<svg width="50" height="60" viewBox="0 0 50 60" fill="none" xmlns="http://www.w3.org/2000/svg">
<path d="M12.8436 54.3576L11.9706 55.1914C11.377 54.566 10.7066 54.2533 9.9593 54.2533C9.33078 54.2533 8.80002 54.4687 8.37402 54.8926C7.94103 55.3234 7.73152 55.8446 7.73152 56.47C7.73152 56.9078 7.82929 57.2969 8.01785 57.6305C8.20641 57.9709 8.47877 58.235 8.82795 58.4296C9.17714 58.6241 9.56124 58.7214 9.98724 58.7214C10.3504 58.7214 10.6786 58.6519 10.9859 58.5199C11.2862 58.3879 11.6144 58.1377 11.9776 57.7833L12.8226 58.6658C12.3337 59.1383 11.8798 59.4649 11.4468 59.6456C11.0138 59.8263 10.518 59.9166 9.96629 59.9166C8.94668 59.9166 8.10864 59.597 7.45916 58.9507C6.80968 58.3045 6.48145 57.4776 6.48145 56.47C6.48145 55.8168 6.6281 55.2401 6.9284 54.7328C7.2287 54.2255 7.64772 53.8156 8.19942 53.5098C8.75113 53.2041 9.34474 53.0442 9.98724 53.0442C10.532 53.0442 11.0488 53.1554 11.5516 53.3847C12.0544 53.614 12.4874 53.9337 12.8505 54.3576H12.8436Z" fill="#0C6A36"/>
<path d="M9.96635 60C8.92579 60 8.0668 59.6664 7.39637 59.0063C6.73292 58.3462 6.39771 57.4984 6.39771 56.47C6.39771 55.8099 6.55135 55.2053 6.85164 54.6911C7.15194 54.1769 7.59191 53.753 8.15759 53.4403C8.71628 53.1276 9.33084 52.9678 9.98032 52.9678C10.532 52.9678 11.0698 53.0859 11.5796 53.3152C12.0894 53.5445 12.5363 53.8781 12.9065 54.3089L12.9554 54.3645L11.9707 55.3026L11.9148 55.247C11.3351 54.6425 10.6787 54.3298 9.95937 54.3298C9.35877 54.3298 8.84198 54.5382 8.42995 54.9482C8.01791 55.3582 7.8084 55.8724 7.8084 56.47C7.8084 56.8939 7.89919 57.2691 8.08077 57.5957C8.26234 57.9223 8.52074 58.1794 8.85595 58.3601C9.19117 58.5477 9.56828 58.638 9.98032 58.638C10.3295 58.638 10.6507 58.5755 10.9441 58.4435C11.2374 58.3114 11.5586 58.0682 11.9148 57.7208L11.9707 57.6652L12.9274 58.6589L12.8716 58.7145C12.3827 59.1939 11.9078 59.5275 11.4678 59.7151C11.0279 59.9027 10.5181 59.993 9.95937 59.993L9.96635 60ZM9.98032 53.1276C9.35877 53.1276 8.77215 53.2805 8.23441 53.5793C7.69666 53.8781 7.27765 54.2811 6.99132 54.7745C6.70499 55.2678 6.55833 55.8376 6.55833 56.4769C6.55833 57.4567 6.87958 58.2767 7.51509 58.9021C8.1506 59.5275 8.97467 59.8471 9.96635 59.8471C10.5041 59.8471 10.9929 59.7568 11.412 59.5831C11.817 59.4093 12.25 59.1036 12.7109 58.6728L11.9707 57.9084C11.6285 58.2419 11.3072 58.4712 11.0139 58.6033C10.7066 58.7423 10.3574 58.8117 9.9873 58.8117C9.54733 58.8117 9.14228 58.7075 8.78611 58.5129C8.42995 58.3114 8.14362 58.0335 7.94808 57.686C7.75253 57.3386 7.64778 56.9356 7.64778 56.4839C7.64778 55.8376 7.87126 55.2887 8.31821 54.844C8.75818 54.4062 9.31687 54.1769 9.95937 54.1769C10.6996 54.1769 11.377 54.4826 11.9707 55.0872L12.7319 54.3645C12.3897 53.9823 11.9776 53.6835 11.5097 53.4681C11.0209 53.2457 10.5041 53.1346 9.97333 53.1346L9.98032 53.1276Z" fill="#0C6735"/>
<path d="M14.5686 53.211H15.8117V59.7568H14.5686V53.211Z" fill="#0C6A36"/>
<path d="M15.8886 59.8332H14.4849V53.1346H15.8886V59.8332ZM14.6455 59.6734H15.728V53.2874H14.6455V59.6734Z" fill="#0C6735"/>
<path d="M18.7515 53.8503V53.211H22.355V53.8503H20.8885V59.7498H20.218V53.8503H18.7515Z" fill="#0C6735"/>
<path d="M20.9235 59.7915H20.1763V53.885H18.7097V53.1624H22.3901V53.885H20.9235V59.7915ZM20.2531 59.7151H20.8467V53.8155H22.3133V53.2527H18.7935V53.8155H20.2601V59.7151H20.2531Z" fill="#0C6735"/>
<path d="M24.0176 53.211H27.7888V53.8503H24.674V55.9002H27.7608V56.5395H24.674V59.1105H27.7608V59.7498H24.0176V53.204V53.211Z" fill="#0C6735"/>
<path d="M27.8025 59.7915H23.9824V53.1693H27.8304V53.892H24.7157V55.8654H27.8025V56.5881H24.7157V59.0828H27.8025V59.8054V59.7915ZM24.0592 59.7151H27.7187V59.1522H24.6319V56.5047H27.7187V55.9419H24.6319V53.8155H27.7466V53.2527H24.0592V59.7151Z" fill="#0C6735"/>
<path d="M35.7636 54.427L35.2468 54.8231C34.9605 54.4548 34.6183 54.1699 34.2133 53.9823C33.8152 53.7878 33.3682 53.6974 32.8934 53.6974C32.3696 53.6974 31.8807 53.8225 31.4338 54.0727C30.9868 54.3228 30.6376 54.6564 30.3932 55.0802C30.1488 55.5041 30.0231 55.9766 30.0231 56.5047C30.0231 57.3039 30.2954 57.9709 30.8471 58.4991C31.3988 59.0341 32.0902 59.2982 32.9283 59.2982C33.8501 59.2982 34.6183 58.9368 35.2399 58.2211L35.7566 58.6102C35.4284 59.0272 35.0234 59.3468 34.5275 59.5761C34.0387 59.8054 33.487 59.9166 32.8864 59.9166C31.7341 59.9166 30.8262 59.5344 30.1627 58.7701C29.6041 58.1238 29.3247 57.3525 29.3247 56.4422C29.3247 55.4833 29.6599 54.6772 30.3373 54.024C31.0078 53.3708 31.8598 53.0442 32.8724 53.0442C33.487 53.0442 34.0387 53.1624 34.5345 53.4056C35.0304 53.6488 35.4354 53.9893 35.7497 54.4201L35.7636 54.427Z" fill="#0C6735"/>
<path d="M32.8935 59.9583C31.7342 59.9583 30.8123 59.5692 30.1419 58.8048C29.5832 58.1586 29.2969 57.3664 29.2969 56.4491C29.2969 55.4833 29.6391 54.6633 30.3235 54.0032C31.0009 53.343 31.8669 53.0095 32.8865 53.0095C33.501 53.0095 34.0667 53.1346 34.5695 53.3778C35.0654 53.621 35.4844 53.9684 35.7987 54.4062L35.8266 54.434L35.2469 54.8787L35.226 54.844C34.9466 54.4826 34.6045 54.1977 34.2134 54.0101C33.8223 53.8225 33.3823 53.7252 32.9074 53.7252C32.3906 53.7252 31.9088 53.8503 31.4688 54.0935C31.0288 54.3367 30.6866 54.6702 30.4422 55.0872C30.1978 55.5041 30.079 55.9766 30.079 56.4908C30.079 57.2761 30.3514 57.9362 30.8891 58.4574C31.4269 58.9785 32.1183 59.2495 32.9423 59.2495C33.8502 59.2495 34.6184 58.8951 35.226 58.1864L35.2469 58.1586L35.8266 58.5963L35.7987 58.6241C35.4704 59.0411 35.0514 59.3676 34.5556 59.597C34.0597 59.8263 33.501 59.9444 32.8935 59.9444V59.9583ZM32.8795 53.0859C31.8808 53.0859 31.0358 53.4125 30.3724 54.0588C29.7089 54.705 29.3737 55.5041 29.3737 56.4491C29.3737 57.3942 29.653 58.1238 30.1978 58.7562C30.8542 59.5066 31.7551 59.8888 32.8935 59.8888C33.4871 59.8888 34.0388 59.7776 34.5206 59.5553C34.9886 59.3399 35.3866 59.0272 35.7079 58.638L35.2539 58.2906C34.6324 58.9924 33.8572 59.3538 32.9354 59.3538C32.0903 59.3538 31.385 59.0827 30.8263 58.5407C30.2676 57.9987 29.9883 57.3177 29.9883 56.5186C29.9883 55.9836 30.114 55.4972 30.3654 55.0733C30.6168 54.6494 30.966 54.302 31.4199 54.0518C31.8738 53.8016 32.3697 53.6696 32.8935 53.6696C33.3753 53.6696 33.8293 53.7669 34.2273 53.9615C34.6254 54.1491 34.9676 54.427 35.2469 54.7814L35.7009 54.434C35.3936 54.024 34.9955 53.6905 34.5206 53.4612C34.0318 53.2249 33.4801 53.0998 32.8725 53.0998L32.8795 53.0859Z" fill="#0C6735"/>
<path d="M37.7893 53.211H38.4458V55.9558H41.7909V53.211H42.4474V59.7568H41.7909V56.5951H38.4458V59.7568H37.7893V53.211Z" fill="#0C6735"/>
<path d="M42.4891 59.7915H41.7488V56.6298H38.4805V59.7915H37.7402V53.1693H38.4805V55.9141H41.7488V53.1693H42.4891V59.7915ZM41.8327 59.7151H42.4123V53.2527H41.8327V55.9975H38.4037V53.2527H37.824V59.7151H38.4037V56.5603H41.8327V59.7151Z" fill="#0C6735"/>
<path fill-rule="evenodd" clip-rule="evenodd" d="M4.74936 7.43913C3.72277 11.4972 5.1614 14.9855 7.13777 18.3418C9.84045 22.928 13.5767 26.5414 17.9415 29.5642C18.584 30.0089 19.1985 30.2035 20.0017 30.1201C21.5171 29.9672 22.8091 30.8289 23.1932 32.0796C23.6541 33.5806 23.0884 35.0607 21.7685 35.8181C20.2112 36.7076 18.1231 35.971 17.3828 34.338C17.1523 33.8238 16.7543 33.3026 16.2933 32.9899C11.4048 29.6615 7.31236 25.5964 4.60969 20.2944C3.17804 17.4732 2.34 14.4991 2.94758 11.2888C3.21994 9.86427 3.78562 8.56484 4.74936 7.45303V7.43913ZM20.1902 31.5863C19.3173 31.6071 18.584 32.4132 18.6189 33.3235C18.6468 34.1782 19.4849 34.9495 20.3439 34.9217C21.2168 34.887 21.9012 34.1643 21.8942 33.2887C21.8942 32.2951 21.1609 31.5724 20.1832 31.5932L20.1902 31.5863Z" fill="#0C6735"/>
<path fill-rule="evenodd" clip-rule="evenodd" d="M1.104 14.9578C0.580223 18.2723 1.57889 21.2534 3.22703 24.0329C6.90741 30.2452 12.229 34.6715 18.6679 37.8402C18.9821 37.9931 19.478 37.9028 19.8411 37.7846C21.2728 37.319 22.6905 37.9305 23.2561 39.3203C23.7869 40.6128 23.2352 41.9887 21.9292 42.614C20.5185 43.295 19.1637 42.8642 18.3536 41.5439C18.1441 41.1965 17.7391 40.9116 17.355 40.7379C11.5865 38.1321 6.85154 34.2894 3.30385 29.0569C1.11796 25.8327 -0.306701 22.3166 0.0564491 18.321C0.161204 17.1675 0.552288 16.0418 0.810683 14.9022C0.908455 14.923 1.00623 14.9369 1.09701 14.9578H1.104ZM19.4081 40.2167C19.4151 40.8699 20.1484 41.5995 20.77 41.5856C21.4404 41.5717 22.0619 40.8838 22.0619 40.1611C22.0619 39.4384 21.4264 38.813 20.7141 38.8269C20.0157 38.8408 19.4012 39.494 19.4081 40.2167Z" fill="#0C6735"/>
<path fill-rule="evenodd" clip-rule="evenodd" d="M10.3226 3.65897C9.47753 6.67476 10.2388 9.39174 11.5447 11.9837C13.6119 16.0974 16.6078 19.4536 20.2324 22.2749C20.7003 22.6362 21.1193 22.7335 21.7269 22.5737C23.0747 22.2262 24.3248 22.5459 25.1977 23.6646C25.952 24.6236 26.1545 25.7284 25.6377 26.9167C25.086 28.2022 23.7312 29.0013 22.2087 28.8971C21.0145 28.8137 19.8413 27.7505 19.4502 26.5414C19.2966 26.0689 18.9963 25.5616 18.6191 25.2628C14.6594 22.115 11.3561 18.4461 9.47055 13.7C8.17858 10.441 7.93415 7.16117 9.9175 4.01336C9.98734 3.90218 10.0642 3.80489 10.148 3.70761C10.1619 3.68676 10.2038 3.69371 10.3226 3.65897ZM22.5649 27.5699C23.6194 27.5699 24.5552 26.6526 24.5343 25.6311C24.5133 24.7278 23.5426 23.7758 22.6417 23.7688C21.657 23.7688 20.7631 24.6861 20.7771 25.6937C20.7911 26.7151 21.6012 27.556 22.5719 27.5629L22.5649 27.5699Z" fill="#0C6735"/>
<path fill-rule="evenodd" clip-rule="evenodd" d="M39.207 5.16686C38.341 4.72908 37.475 4.27741 36.6021 3.84658C33.6271 2.36649 30.4984 1.42839 27.1742 1.24078C26.2523 1.18519 25.2956 1.28247 24.4016 1.49093C22.7395 1.88007 22.111 2.97798 22.8373 4.51367C23.41 5.72971 24.1921 6.93881 25.1559 7.863C26.4479 9.09989 27.9982 10.0588 29.4438 11.122C29.8838 11.4486 30.2889 11.5042 30.8476 11.1845C32.0348 10.5036 33.3756 10.7398 34.3254 11.6362C35.3869 12.6299 35.6383 13.707 35.0936 14.923C34.5559 16.1321 33.4385 16.8687 32.2094 16.7783C30.8266 16.6672 30.0724 15.7708 29.4578 14.6381C29.2204 14.1934 28.8572 13.7348 28.4312 13.4915C25.526 11.8238 22.8094 9.899 20.9378 7.09863C20.1696 5.94513 19.7086 4.47893 19.4991 3.10306C19.2407 1.39365 20.8051 0.156761 22.9421 0.0386311C25.519 -0.114243 28.0541 0.177607 30.4495 1.07401C33.1242 2.07463 35.7082 3.31152 38.3201 4.45808C38.6553 4.604 38.9486 4.85416 39.2698 5.05568C39.2489 5.09042 39.221 5.13212 39.2 5.16686H39.207ZM32.2722 15.2704C33.1591 15.2843 33.8854 14.5964 33.8854 13.7487C33.8854 12.9634 33.1591 12.2408 32.349 12.213C31.6018 12.1852 30.8685 12.9287 30.8406 13.7487C30.8057 14.6867 31.3434 15.2565 32.2722 15.2704Z" fill="#0C6735"/>
<path fill-rule="evenodd" clip-rule="evenodd" d="M17.0824 0.71962C14.7498 3.77015 15.4831 6.75814 17.1941 9.71139C18.968 12.7689 21.4681 15.1593 24.4082 17.091C24.6806 17.2717 25.2742 17.2509 25.5745 17.0771C27.1947 16.1321 29.0663 16.5907 30.072 18.2515C30.9519 19.7038 30.4002 21.6842 28.8987 22.4903C27.3065 23.338 25.4558 22.6918 24.492 21.1561C24.0241 20.4195 23.214 19.8706 22.4947 19.3216C19.0099 16.6463 15.972 13.6166 14.261 9.46818C12.9062 6.18139 13.4928 2.74868 17.0824 0.726569V0.71962ZM27.2227 21.4132C28.2143 21.4202 29.0244 20.6836 29.0594 19.7385C29.0943 18.8004 28.2562 17.9527 27.3065 17.9666C26.3148 17.9805 25.4488 18.7796 25.4698 19.676C25.4907 20.6141 26.2938 21.4063 27.2227 21.4132Z" fill="#0C6735"/>
<path fill-rule="evenodd" clip-rule="evenodd" d="M48.3206 31.1902C47.0496 34.5256 44.4517 36.4226 41.1973 37.5275C37.489 38.7852 33.6829 38.813 29.8488 38.2085C29.4368 38.139 28.9619 38.271 28.5499 38.3961C26.9367 38.9034 25.519 38.3058 24.7787 36.7562C24.1781 35.4985 24.7927 33.8585 26.1615 33.0525C27.4046 32.3228 29.0457 32.6633 29.8558 34.0045C30.3517 34.8244 30.9383 35.0815 31.8252 35.2344C35.5824 35.8737 39.3187 36.0127 42.9991 34.8314C45.4014 34.06 46.449 33.2887 48.3206 31.1971V31.1902ZM27.4884 37.2009C28.2985 37.2218 29.0387 36.506 29.0527 35.6861C29.0597 34.9217 28.2705 34.1434 27.4884 34.1434C26.6783 34.1434 25.8821 34.8661 25.8682 35.6235C25.8542 36.4296 26.6224 37.1801 27.4884 37.2079V37.2009Z" fill="#0C6735"/>
<path fill-rule="evenodd" clip-rule="evenodd" d="M49.5146 25.235C48.8372 27.0973 47.643 28.5427 45.939 29.5572C42.6916 31.489 39.1299 31.9754 35.4216 31.6905C34.2693 31.6071 33.124 31.3848 31.9647 31.2875C31.6015 31.2597 31.2035 31.3848 30.8613 31.5307C29.0595 32.2811 27.4114 31.5515 26.6013 29.6059C25.9937 28.1397 26.7898 26.465 28.3681 25.8813C30.142 25.2281 31.9437 26.0272 32.5723 27.7019C32.691 28.0146 32.9703 28.4315 33.2357 28.4871C37.2862 29.321 41.3507 29.6545 45.3454 28.2161C47.0005 27.6185 48.4391 26.6873 49.5076 25.235H49.5146ZM29.5763 27.0417C28.5916 27.0417 27.9072 27.7644 27.9281 28.7581C27.9491 29.6962 28.7592 30.4884 29.6671 30.4606C30.4492 30.4397 31.2384 29.5364 31.2314 28.6817C31.2244 27.7714 30.4772 27.0417 29.5763 27.0417Z" fill="#0C6735"/>
<path fill-rule="evenodd" clip-rule="evenodd" d="M48.9697 16.4795C49.256 20.7809 47.0771 23.5465 42.6146 24.3873C40.7709 24.7347 38.8434 24.6375 36.9578 24.7625C36.6226 24.7834 36.2525 24.8529 35.9661 25.0196C34.297 25.9994 32.5791 25.6242 31.6502 24.0399C30.8262 22.6362 31.308 20.9198 32.7746 20.0512C34.1644 19.2313 36.0849 19.8914 36.9788 21.4479C37.1184 21.6981 37.4327 21.99 37.6841 22.0108C40.5474 22.254 43.3618 22.0942 45.9388 20.6488C47.58 19.7246 48.0269 19.0645 48.9627 16.4795H48.9697ZM35.7776 22.5042C35.7776 21.712 35.0303 21.031 34.1853 21.031C33.3612 21.031 32.614 21.7467 32.621 22.5389C32.621 23.3589 33.4031 24.1302 34.2342 24.1232C35.0932 24.1232 35.7915 23.3936 35.7846 22.5042H35.7776Z" fill="#0C6735"/>
<path fill-rule="evenodd" clip-rule="evenodd" d="M3.84155 34.4283C5.99252 36.1239 8.0527 37.8819 10.2525 39.4523C13.4371 41.7315 16.9638 43.3645 20.721 44.4833C21.1261 44.6014 21.7267 44.4694 22.0968 44.2401C23.1164 43.6077 24.3805 43.7259 25.1347 44.6501C25.8261 45.4978 25.7143 46.8181 24.8763 47.6311C24.1221 48.3607 22.8441 48.3329 21.9502 47.6658C21.3566 47.2281 20.6931 46.8111 19.9947 46.5818C14.6732 44.8655 10.057 42.0581 6.36265 37.8472C5.42684 36.784 4.67261 35.561 3.84155 34.4214V34.4283ZM24.6947 45.9078C24.0592 45.47 23.724 45.0531 23.3678 45.0253C22.8092 44.9905 22.2086 45.3519 22.3762 46.0051C22.4739 46.3803 22.9977 46.8528 23.3678 46.8876C23.6961 46.9154 24.0662 46.3942 24.6947 45.9008V45.9078Z" fill="#0C6735"/>
<path fill-rule="evenodd" clip-rule="evenodd" d="M42.8803 39.0563C42.0562 40.3974 41.0366 41.2173 39.8144 41.8288C36.9861 43.2394 33.9622 43.6981 30.8405 43.7537C30.2887 43.7676 29.7161 43.9135 29.1993 44.1289C28.2006 44.5458 26.762 44.1289 26.1405 43.1491C25.5399 42.211 25.7494 40.7657 26.5874 40.0777C27.628 39.223 29.1085 39.1118 29.772 40.1055C30.5192 41.2382 31.4969 41.2451 32.5864 41.259C35.6662 41.2938 38.7041 41.0784 41.5464 39.7511C41.9375 39.5705 42.3216 39.3481 42.8803 39.0563ZM29.2761 41.5648C29.2761 41.0714 28.7803 40.7865 28.1518 40.7726C27.4883 40.7657 27.174 41.259 27.202 41.8566C27.2299 42.4681 27.5023 42.9893 28.2635 42.9476C28.9688 42.9059 29.2691 42.482 29.2761 41.5648Z" fill="#0C6735"/>
<path fill-rule="evenodd" clip-rule="evenodd" d="M40.2752 10.3159C36.6787 10.5591 28.4519 6.91101 27.5859 4.61095C31.0149 3.92302 38.7528 7.36269 40.2752 10.3159Z" fill="#0C6735"/>
<path fill-rule="evenodd" clip-rule="evenodd" d="M45.038 11.1151C46.9026 13.7973 45.876 16.4587 42.8591 17.0632C42.035 17.23 41.2877 17.362 40.6243 18.0083C39.898 18.7101 38.5222 18.6545 37.6353 18.0986C36.7065 17.508 36.3154 16.6255 36.5039 15.5553C36.6995 14.4852 37.5305 13.5402 38.5921 13.4221C39.7094 13.297 40.7291 13.6375 41.3017 14.6798C41.6509 15.3121 42.028 15.333 42.6356 15.1245C44.6888 14.4088 45.2754 13.5054 45.038 11.122V11.1151ZM38.9482 17.1536C39.7583 17.1466 40.31 16.556 40.2891 15.8194C40.2681 15.0411 39.7094 14.784 39.0669 14.7145C38.4175 14.6451 37.8099 15.2635 37.8448 15.9167C37.8867 16.6672 38.3127 17.0702 38.9482 17.1605V17.1536Z" fill="#0C6735"/>
<path fill-rule="evenodd" clip-rule="evenodd" d="M28.2352 45.9564H32.0763C32.0902 45.9981 32.1042 46.0468 32.1182 46.0885C30.7982 46.4498 29.4853 46.8111 28.0327 47.2072C28.1095 46.7556 28.1654 46.4012 28.2352 45.9564Z" fill="#0C6735"/>
<path fill-rule="evenodd" clip-rule="evenodd" d="M20.1903 31.5863C21.168 31.5654 21.8943 32.2881 21.9013 33.2818C21.9013 34.1643 21.2169 34.88 20.3509 34.9148C19.4919 34.9495 18.6539 34.1712 18.626 33.3165C18.591 32.4062 19.3243 31.6071 20.1973 31.5793L20.1903 31.5863Z" fill="#2CB45D"/>
<path fill-rule="evenodd" clip-rule="evenodd" d="M19.4083 40.2167C19.4013 39.494 20.0089 38.8408 20.7142 38.827C21.4265 38.8131 22.062 39.4384 22.062 40.1611C22.062 40.8838 21.4405 41.5717 20.7701 41.5856C20.1485 41.5995 19.4152 40.8699 19.4083 40.2167Z" fill="#2CB45D"/>
<path fill-rule="evenodd" clip-rule="evenodd" d="M22.565 27.5699C21.6012 27.5699 20.7841 26.7221 20.7702 25.7006C20.7562 24.6861 21.6501 23.7688 22.6348 23.7758C23.5357 23.7758 24.5064 24.7278 24.5274 25.6381C24.5553 26.6596 23.6195 27.5768 22.558 27.5768L22.565 27.5699Z" fill="#2CB45D"/>
<path fill-rule="evenodd" clip-rule="evenodd" d="M32.2719 15.2704C31.343 15.2565 30.8053 14.6867 30.8402 13.7486C30.8682 12.9287 31.6014 12.1852 32.3487 12.213C33.1588 12.2408 33.8851 12.9634 33.8851 13.7486C33.8851 14.5964 33.1588 15.2843 32.2719 15.2704Z" fill="#2CB45D"/>
<path fill-rule="evenodd" clip-rule="evenodd" d="M27.223 21.4132C26.2942 21.4063 25.491 20.6141 25.4701 19.676C25.4491 18.7865 26.3151 17.9805 27.3068 17.9666C28.2566 17.9527 29.0946 18.8004 29.0597 19.7385C29.0318 20.6766 28.2147 21.4202 27.223 21.4132Z" fill="#2CB45D"/>
<path fill-rule="evenodd" clip-rule="evenodd" d="M27.4881 37.2009C26.6291 37.1801 25.8539 36.4226 25.8679 35.6166C25.8818 34.8592 26.671 34.1365 27.4881 34.1365C28.2702 34.1365 29.0594 34.9148 29.0524 35.6791C29.0384 36.4991 28.2982 37.2148 27.4881 37.194V37.2009Z" fill="#2CB45D"/>
<path fill-rule="evenodd" clip-rule="evenodd" d="M29.5766 27.0417C30.4845 27.0417 31.2247 27.7714 31.2317 28.6817C31.2387 29.5364 30.4495 30.4397 29.6674 30.4606C28.7595 30.4884 27.9494 29.6962 27.9284 28.7581C27.9075 27.7575 28.5919 27.0487 29.5766 27.0417Z" fill="#2CB45D"/>
<path fill-rule="evenodd" clip-rule="evenodd" d="M35.7776 22.5042C35.7846 23.3936 35.0862 24.1232 34.2272 24.1232C33.3962 24.1232 32.621 23.3589 32.614 22.5389C32.614 21.7537 33.3543 21.038 34.1784 21.031C35.0234 21.031 35.7636 21.712 35.7706 22.5042H35.7776Z" fill="#2CB45D"/>
<path fill-rule="evenodd" clip-rule="evenodd" d="M24.6948 45.9078C24.0733 46.4012 23.6962 46.9223 23.3679 46.8945C22.9978 46.8598 22.467 46.3873 22.3762 46.012C22.2086 45.3588 22.8022 44.9975 23.3679 45.0322C23.7241 45.0531 24.0593 45.47 24.6948 45.9147V45.9078Z" fill="#2CB45D"/>
<path fill-rule="evenodd" clip-rule="evenodd" d="M29.2758 41.5648C29.2758 42.482 28.9685 42.9128 28.2632 42.9476C27.5089 42.9893 27.2366 42.4681 27.2017 41.8566C27.1737 41.259 27.488 40.7657 28.1514 40.7726C28.78 40.7796 29.2688 41.0645 29.2758 41.5648Z" fill="#2CB45D"/>
<path fill-rule="evenodd" clip-rule="evenodd" d="M38.9484 17.1536C38.3198 17.0632 37.8868 16.6672 37.8449 15.9097C37.81 15.2635 38.4176 14.6381 39.0671 14.7076C39.7096 14.7771 40.2683 15.0342 40.2892 15.8125C40.3102 16.549 39.7515 17.1397 38.9484 17.1466V17.1536Z" fill="#2CB45D"/>
</svg>
