<svg width="321" height="389" viewBox="0 0 321 389" fill="none" xmlns="http://www.w3.org/2000/svg">
<g clip-path="url(#clip0_10_3004)">
<path d="M83.2607 352.42L77.6014 357.826C73.753 353.772 69.4066 351.744 64.5622 351.744C60.4874 351.744 57.0465 353.141 54.2847 355.889C51.4777 358.682 50.1194 362.061 50.1194 366.115C50.1194 368.953 50.7533 371.476 51.9757 373.638C53.1981 375.846 54.9639 377.558 57.2276 378.819C59.4914 380.08 61.9815 380.711 64.7433 380.711C67.0976 380.711 69.2255 380.26 71.2176 379.405C73.1644 378.549 75.2923 376.927 77.6466 374.629L83.1249 380.351C79.9557 383.414 77.0128 385.531 74.2057 386.703C71.3987 387.874 68.1842 388.459 64.6074 388.459C57.9973 388.459 52.5643 386.387 48.3537 382.198C44.1431 378.008 42.0152 372.647 42.0152 366.115C42.0152 361.88 42.966 358.141 44.9128 354.853C46.8596 351.564 49.5761 348.906 53.1529 346.924C56.7296 344.942 60.578 343.906 64.7433 343.906C68.2747 343.906 71.6251 344.627 74.8849 346.113C78.1447 347.6 80.9517 349.672 83.306 352.42H83.2607Z" fill="#0C6A36"/>
<path d="M64.6075 389C57.8615 389 52.2927 386.838 47.9463 382.558C43.6451 378.278 41.4719 372.782 41.4719 366.115C41.4719 361.835 42.468 357.916 44.4148 354.582C46.3616 351.249 49.214 348.501 52.8812 346.474C56.5032 344.446 60.4874 343.41 64.698 343.41C68.2747 343.41 71.7609 344.176 75.066 345.663C78.3711 347.149 81.2687 349.312 83.6683 352.105L83.9852 352.465L77.6014 358.547L77.2392 358.186C73.4814 354.267 69.2255 352.24 64.5622 352.24C60.6685 352.24 57.3182 353.591 54.647 356.249C51.9757 358.907 50.6175 362.241 50.6175 366.115C50.6175 368.863 51.2061 371.296 52.3832 373.413C53.5604 375.53 55.2355 377.197 57.4087 378.368C59.5819 379.585 62.0268 380.17 64.698 380.17C66.9618 380.17 69.0444 379.765 70.946 378.909C72.8475 378.053 74.9302 376.476 77.2392 374.224L77.6014 373.863L83.8041 380.306L83.4419 380.666C80.2726 383.774 77.1939 385.937 74.3416 387.153C71.4893 388.369 68.1842 388.955 64.5622 388.955L64.6075 389ZM64.698 344.446C60.6685 344.446 56.8654 345.437 53.3793 347.375C49.8931 349.312 47.1766 351.925 45.3203 355.123C43.464 358.322 42.5133 362.016 42.5133 366.16C42.5133 372.512 44.5959 377.828 48.7159 381.882C52.836 385.937 58.1784 388.009 64.6075 388.009C68.0936 388.009 71.2629 387.423 73.9794 386.297C76.6054 385.171 79.4124 383.189 82.4006 380.396L77.6014 375.44C75.3829 377.603 73.3003 379.089 71.3987 379.945C69.4066 380.846 67.1429 381.297 64.7433 381.297C61.891 381.297 59.265 380.621 56.956 379.359C54.647 378.053 52.7907 376.251 51.523 373.999C50.2553 371.746 49.5762 369.133 49.5762 366.205C49.5762 362.016 51.025 358.457 53.9226 355.573C56.7749 352.735 60.3969 351.249 64.5622 351.249C69.3613 351.249 73.753 353.231 77.6014 357.15L82.5364 352.465C80.3179 349.987 77.6467 348.05 74.6132 346.654C71.444 345.212 68.0936 344.491 64.6527 344.491L64.698 344.446Z" fill="#0C6735"/>
<path d="M94.4437 344.987H102.503V387.423H94.4437V344.987Z" fill="#0C6A36"/>
<path d="M103.001 387.919H93.9005V344.491H103.001V387.919ZM94.9418 386.883H101.959V345.482H94.9418V386.883Z" fill="#0C6735"/>
<path d="M121.563 349.131V344.987H144.925V349.131H135.418V387.378H131.071V349.131H121.563Z" fill="#0C6735"/>
<path d="M135.644 387.649H130.8V349.357H121.292V344.672H145.152V349.357H135.644V387.649ZM131.298 387.153H135.146V348.906H144.654V345.257H121.835V348.906H131.343V387.153H131.298Z" fill="#0C6735"/>
<path d="M155.701 344.987H180.149V349.131H159.957V362.421H179.968V366.566H159.957V383.234H179.968V387.378H155.701V344.942V344.987Z" fill="#0C6735"/>
<path d="M180.24 387.649H155.474V344.717H180.421V349.402H160.228V362.196H180.24V366.881H160.228V383.054H180.24V387.739V387.649ZM155.973 387.153H179.697V383.504H159.685V366.34H179.697V362.691H159.685V348.906H179.878V345.257H155.973V387.153Z" fill="#0C6735"/>
<path d="M231.854 352.871L228.503 355.438C226.647 353.051 224.428 351.204 221.803 349.987C219.222 348.726 216.324 348.14 213.246 348.14C209.85 348.14 206.681 348.951 203.783 350.573C200.885 352.195 198.622 354.357 197.037 357.105C195.452 359.853 194.637 362.917 194.637 366.34C194.637 371.521 196.403 375.846 199.98 379.269C203.557 382.738 208.039 384.45 213.472 384.45C219.448 384.45 224.428 382.108 228.458 377.467L231.808 379.99C229.68 382.693 227.054 384.765 223.84 386.252C220.671 387.739 217.094 388.459 213.2 388.459C205.73 388.459 199.844 385.982 195.543 381.026C191.921 376.837 190.11 371.836 190.11 365.935C190.11 359.718 192.283 354.492 196.675 350.258C201.021 346.023 206.545 343.906 213.11 343.906C217.094 343.906 220.671 344.672 223.885 346.248C227.1 347.825 229.726 350.032 231.763 352.826L231.854 352.871Z" fill="#0C6735"/>
<path d="M213.245 388.73C205.73 388.73 199.754 386.207 195.407 381.252C191.785 377.062 189.929 371.926 189.929 365.98C189.929 359.718 192.147 354.402 196.584 350.123C200.976 345.843 206.59 343.681 213.2 343.681C217.184 343.681 220.852 344.491 224.111 346.068C227.326 347.645 230.043 349.897 232.08 352.735L232.261 352.916L228.503 355.799L228.367 355.574C226.556 353.231 224.338 351.384 221.802 350.168C219.267 348.951 216.415 348.321 213.336 348.321C209.986 348.321 206.862 349.131 204.009 350.708C201.157 352.285 198.939 354.447 197.354 357.15C195.769 359.853 195 362.917 195 366.25C195 371.341 196.765 375.62 200.252 378.999C203.738 382.378 208.22 384.135 213.562 384.135C219.448 384.135 224.428 381.837 228.367 377.242L228.503 377.062L232.261 379.9L232.08 380.08C229.952 382.783 227.235 384.901 224.021 386.387C220.806 387.874 217.184 388.64 213.245 388.64V388.73ZM213.155 344.176C206.681 344.176 201.202 346.293 196.901 350.483C192.6 354.673 190.427 359.853 190.427 365.98C190.427 372.107 192.238 376.837 195.769 380.936C200.025 385.802 205.866 388.279 213.245 388.279C217.094 388.279 220.671 387.558 223.795 386.117C226.828 384.72 229.409 382.693 231.491 380.17L228.548 377.918C224.519 382.468 219.493 384.81 213.517 384.81C208.039 384.81 203.466 383.054 199.844 379.54C196.222 376.026 194.411 371.611 194.411 366.43C194.411 362.962 195.226 359.808 196.856 357.06C198.486 354.312 200.75 352.06 203.692 350.438C206.635 348.816 209.85 347.96 213.245 347.96C216.369 347.96 219.312 348.591 221.893 349.852C224.474 351.069 226.692 352.871 228.503 355.168L231.446 352.916C229.454 350.258 226.873 348.095 223.795 346.609C220.625 345.077 217.049 344.266 213.11 344.266L213.155 344.176Z" fill="#0C6735"/>
<path d="M244.983 344.987H249.239V362.781H270.926V344.987H275.182V387.423H270.926V366.926H249.239V387.423H244.983V344.987Z" fill="#0C6735"/>
<path d="M275.453 387.649H270.654V367.151H249.465V387.649H244.666V344.717H249.465V362.511H270.654V344.717H275.453V387.649ZM271.197 387.153H274.955V345.257H271.197V363.052H248.967V345.257H245.21V387.153H248.967V366.701H271.197V387.153Z" fill="#0C6735"/>
<path fill-rule="evenodd" clip-rule="evenodd" d="M30.787 48.2477C24.1316 74.5565 33.4583 97.1712 46.2711 118.93C63.7925 148.662 88.0147 172.088 116.312 191.684C120.477 194.568 124.461 195.829 129.668 195.288C139.492 194.297 147.868 199.883 150.358 207.992C153.347 217.723 149.679 227.318 141.122 232.229C131.026 237.995 117.489 233.22 112.69 222.633C111.195 219.3 108.615 215.921 105.627 213.894C73.9341 192.315 47.403 165.961 29.8815 131.589C20.6001 113.299 15.1671 94.0177 19.1061 73.205C20.8718 63.9699 24.5391 55.5457 30.787 48.3378V48.2477ZM130.89 204.794C125.231 204.929 120.477 210.155 120.703 216.056C120.884 221.597 126.317 226.598 131.886 226.417C137.546 226.192 141.983 221.507 141.937 215.831C141.937 209.389 137.183 204.704 130.845 204.839L130.89 204.794Z" fill="#0C6735"/>
<path fill-rule="evenodd" clip-rule="evenodd" d="M7.15349 96.991C3.75786 118.479 10.2322 137.806 20.9171 155.825C44.777 196.099 79.2766 224.796 121.02 245.338C123.058 246.329 126.272 245.743 128.626 244.978C137.908 241.959 147.099 245.924 150.766 254.934C154.207 263.313 150.63 272.232 142.164 276.287C133.018 280.702 124.235 277.909 118.983 269.349C117.625 267.097 114.999 265.25 112.508 264.124C75.1113 247.23 44.4148 222.318 21.4151 188.396C7.24404 167.493 -1.99207 144.698 0.362236 118.795C1.04136 111.317 3.57676 104.019 5.25194 96.6306C5.88579 96.7657 6.51964 96.8558 7.10822 96.991H7.15349ZM125.819 260.745C125.865 264.98 130.619 269.71 134.648 269.62C138.994 269.529 143.024 265.07 143.024 260.384C143.024 255.699 138.904 251.645 134.286 251.735C129.758 251.825 125.774 256.06 125.819 260.745Z" fill="#0C6735"/>
<path fill-rule="evenodd" clip-rule="evenodd" d="M66.9165 23.7409C61.4383 43.2923 66.3732 60.9065 74.8397 77.7099C88.2411 104.379 107.664 126.138 131.162 144.428C134.195 146.77 136.912 147.401 140.851 146.365C149.589 144.112 157.693 146.185 163.352 153.438C168.242 159.654 169.555 166.817 166.205 174.521C162.628 182.855 153.845 188.035 143.975 187.36C136.233 186.819 128.626 179.927 126.091 172.088C125.095 169.025 123.148 165.736 120.703 163.799C95.0323 143.392 73.6172 119.606 61.393 88.8371C53.0171 67.709 51.4325 46.4457 64.2906 26.0384C64.7433 25.3177 65.2414 24.687 65.7847 24.0563C65.8752 23.9211 66.1469 23.9662 66.9165 23.7409ZM146.284 178.755C153.12 178.755 159.187 172.809 159.051 166.187C158.915 160.33 152.622 154.158 146.782 154.113C140.398 154.113 134.603 160.06 134.693 166.592C134.784 173.214 140.036 178.665 146.329 178.71L146.284 178.755Z" fill="#0C6735"/>
<path fill-rule="evenodd" clip-rule="evenodd" d="M254.174 33.5166C248.56 30.6785 242.946 27.7503 237.286 24.9573C217.999 15.3618 197.716 9.28015 176.165 8.06382C170.189 7.70342 163.986 8.33411 158.191 9.68559C147.416 12.2083 143.341 19.3261 148.049 29.282C151.762 37.1656 156.833 45.0042 163.081 50.9957C171.457 59.0145 181.508 65.2313 190.88 72.1238C193.732 74.2411 196.358 74.6015 199.98 72.5293C207.677 68.1144 216.369 69.6461 222.527 75.4575C229.409 81.8995 231.039 88.8821 227.507 96.7657C224.021 104.604 216.777 109.38 208.808 108.794C199.844 108.073 194.954 102.262 190.97 94.9187C189.431 92.0356 187.076 89.0623 184.315 87.4856C165.48 76.6738 147.868 64.1951 135.735 46.0403C130.754 38.5621 127.766 29.0568 126.408 20.137C124.733 9.0549 134.874 1.03614 148.728 0.270304C165.435 -0.720779 181.87 1.17129 197.399 6.98264C214.739 13.4697 231.491 21.4885 248.424 28.9216C250.597 29.8676 252.499 31.4894 254.582 32.7958C254.446 33.0211 254.265 33.2914 254.129 33.5166H254.174ZM209.216 99.0182C214.966 99.1083 219.674 94.6484 219.674 89.1524C219.674 84.0619 214.966 79.3767 209.714 79.1965C204.87 79.0163 200.116 83.8366 199.935 89.1524C199.708 95.2341 203.194 98.9281 209.216 99.0182Z" fill="#0C6735"/>
<path fill-rule="evenodd" clip-rule="evenodd" d="M110.743 4.68512C95.6209 24.4617 100.375 43.8329 111.467 62.9788C122.967 82.8005 139.175 98.2974 158.236 110.821C160.002 111.992 163.85 111.857 165.797 110.731C176.301 104.604 188.435 107.578 194.954 118.344C200.659 127.76 197.082 140.599 187.348 145.824C177.025 151.32 165.027 147.131 158.78 137.175C155.746 132.4 150.494 128.841 145.831 125.282C123.239 107.938 103.544 88.2965 92.4516 61.4021C83.6683 40.0938 87.4714 17.8395 110.743 4.73017V4.68512ZM176.482 138.842C182.911 138.887 188.163 134.112 188.389 127.985C188.616 121.903 183.183 116.407 177.025 116.497C170.596 116.587 164.982 121.768 165.118 127.579C165.254 133.661 170.461 138.797 176.482 138.842Z" fill="#0C6735"/>
<path fill-rule="evenodd" clip-rule="evenodd" d="M313.258 202.226C305.018 223.85 288.176 236.148 267.077 243.311C243.036 251.465 218.362 251.645 193.506 247.726C190.834 247.275 187.756 248.131 185.084 248.942C174.626 252.231 165.435 248.356 160.636 238.31C156.742 230.156 160.726 219.525 169.6 214.299C177.659 209.569 188.299 211.776 193.551 220.471C196.765 225.787 200.568 227.454 206.318 228.445C230.676 232.589 254.898 233.49 278.758 225.832C294.333 220.831 301.124 215.831 313.258 202.271V202.226ZM178.203 241.194C183.454 241.329 188.254 236.689 188.344 231.373C188.389 226.417 183.273 221.372 178.203 221.372C172.951 221.372 167.789 226.057 167.699 230.967C167.608 236.193 172.588 241.058 178.203 241.239V241.194Z" fill="#0C6735"/>
<path fill-rule="evenodd" clip-rule="evenodd" d="M321 163.619C316.608 175.692 308.866 185.062 297.819 191.639C276.766 204.163 253.676 207.317 229.635 205.469C222.165 204.929 214.74 203.487 207.224 202.857C204.87 202.676 202.289 203.487 200.07 204.433C188.389 209.299 177.705 204.569 172.453 191.955C168.514 182.449 173.675 171.592 183.907 167.808C195.407 163.574 207.088 168.754 211.163 179.611C211.932 181.638 213.743 184.341 215.464 184.702C241.723 190.108 268.074 192.27 293.971 182.945C304.701 179.071 314.028 173.034 320.955 163.619H321ZM191.74 175.332C185.356 175.332 180.919 180.017 181.055 186.459C181.191 192.54 186.443 197.676 192.328 197.496C197.399 197.361 202.515 191.504 202.47 185.963C202.425 180.062 197.58 175.332 191.74 175.332Z" fill="#0C6735"/>
<path fill-rule="evenodd" clip-rule="evenodd" d="M317.469 106.857C319.325 134.742 305.199 152.672 276.268 158.123C264.316 160.375 251.82 159.745 239.596 160.555C237.422 160.691 235.023 161.141 233.167 162.222C222.346 168.574 211.208 166.142 205.187 155.87C199.844 146.77 202.968 135.643 212.476 130.012C221.486 124.696 233.936 128.976 239.731 139.067C240.637 140.689 242.674 142.581 244.304 142.716C262.867 144.293 281.113 143.257 297.819 133.886C308.459 127.895 311.357 123.615 317.423 106.857H317.469ZM231.944 145.914C231.944 140.779 227.1 136.364 221.621 136.364C216.279 136.364 211.434 141.004 211.48 146.14C211.48 151.455 216.551 156.456 221.938 156.411C227.507 156.411 232.035 151.681 231.989 145.914H231.944Z" fill="#0C6735"/>
<path fill-rule="evenodd" clip-rule="evenodd" d="M24.9013 223.219C38.846 234.211 52.2022 245.608 66.4638 255.789C87.1092 270.566 109.973 281.152 134.331 288.405C136.957 289.171 140.851 288.315 143.25 286.828C149.86 282.729 158.055 283.495 162.945 289.486C167.427 294.982 166.703 303.542 161.27 308.812C156.38 313.543 148.095 313.362 142.299 309.038C138.451 306.2 134.15 303.497 129.622 302.01C95.1229 290.883 65.1961 272.683 41.2456 245.383C35.1787 238.491 30.289 230.562 24.9013 223.174V223.219ZM160.093 297.64C155.973 294.802 153.799 292.099 151.49 291.919C147.868 291.694 143.975 294.036 145.061 298.271C145.695 300.704 149.091 303.767 151.49 303.992C153.618 304.172 156.018 300.794 160.093 297.595V297.64Z" fill="#0C6735"/>
<path fill-rule="evenodd" clip-rule="evenodd" d="M277.989 253.222C272.646 261.916 266.036 267.232 258.113 271.196C239.777 280.341 220.173 283.315 199.935 283.675C196.358 283.765 192.645 284.711 189.295 286.108C182.821 288.811 173.494 286.108 169.465 279.756C165.571 273.674 166.929 264.304 172.362 259.844C179.108 254.303 188.706 253.582 193.008 260.024C197.852 267.367 204.19 267.412 211.253 267.502C231.22 267.728 250.914 266.331 269.341 257.727C271.877 256.555 274.367 255.114 277.989 253.222ZM189.793 269.484C189.793 266.286 186.578 264.439 182.504 264.349C178.203 264.304 176.165 267.502 176.346 271.376C176.527 275.341 178.293 278.72 183.228 278.449C187.801 278.179 189.748 275.431 189.793 269.484Z" fill="#0C6735"/>
<path fill-rule="evenodd" clip-rule="evenodd" d="M261.101 66.8981C237.785 68.4748 184.451 44.824 178.836 29.9127C201.066 25.4528 251.231 47.7522 261.101 66.8981Z" fill="#0C6735"/>
<path fill-rule="evenodd" clip-rule="evenodd" d="M291.979 72.0788C304.067 89.4677 297.412 106.722 277.853 110.641C272.511 111.722 267.666 112.578 263.365 116.768C258.656 121.318 249.737 120.957 243.987 117.353C237.966 113.524 235.43 107.803 236.653 100.865C237.92 93.9276 243.308 87.8009 250.19 87.0351C257.434 86.2242 264.044 88.4316 267.757 95.189C270.02 99.2885 272.465 99.4236 276.404 98.0722C289.715 93.4321 293.518 87.5757 291.979 72.1238V72.0788ZM252.499 111.227C257.751 111.181 261.328 107.352 261.192 102.577C261.056 97.5316 257.434 95.8647 253.269 95.4142C249.058 94.9638 245.119 98.9731 245.345 103.208C245.617 108.073 248.379 110.686 252.499 111.272V111.227Z" fill="#0C6735"/>
<path fill-rule="evenodd" clip-rule="evenodd" d="M183.047 297.956H207.948C208.039 298.226 208.129 298.541 208.22 298.812C199.663 301.154 191.151 303.497 181.734 306.064C182.232 303.136 182.594 300.839 183.047 297.956Z" fill="#0C6735"/>
<path fill-rule="evenodd" clip-rule="evenodd" d="M130.89 204.794C137.229 204.659 141.937 209.344 141.982 215.786C141.982 221.507 137.546 226.147 131.931 226.372C126.363 226.598 120.93 221.552 120.748 216.011C120.522 210.11 125.276 204.929 130.935 204.749L130.89 204.794Z" fill="#2CB45D"/>
<path fill-rule="evenodd" clip-rule="evenodd" d="M125.819 260.745C125.774 256.06 129.713 251.825 134.286 251.735C138.904 251.645 143.024 255.699 143.024 260.384C143.024 265.07 138.994 269.529 134.648 269.62C130.619 269.71 125.865 264.98 125.819 260.745Z" fill="#2CB45D"/>
<path fill-rule="evenodd" clip-rule="evenodd" d="M146.284 178.755C140.036 178.755 134.739 173.259 134.648 166.637C134.557 160.06 140.353 154.113 146.736 154.158C152.577 154.158 158.87 160.33 159.006 166.232C159.187 172.854 153.12 178.8 146.238 178.8L146.284 178.755Z" fill="#2CB45D"/>
<path fill-rule="evenodd" clip-rule="evenodd" d="M209.216 99.0182C203.194 98.9281 199.708 95.2341 199.935 89.1524C200.116 83.8366 204.87 79.0163 209.714 79.1965C214.966 79.3767 219.674 84.0619 219.674 89.1524C219.674 94.6484 214.966 99.1083 209.216 99.0182Z" fill="#2CB45D"/>
<path fill-rule="evenodd" clip-rule="evenodd" d="M176.482 138.842C170.461 138.797 165.254 133.661 165.118 127.579C164.982 121.813 170.596 116.587 177.025 116.497C183.183 116.407 188.616 121.903 188.39 127.985C188.208 134.066 182.911 138.887 176.482 138.842Z" fill="#2CB45D"/>
<path fill-rule="evenodd" clip-rule="evenodd" d="M178.203 241.194C172.634 241.058 167.608 236.148 167.699 230.922C167.789 226.012 172.905 221.327 178.203 221.327C183.273 221.327 188.389 226.372 188.344 231.328C188.254 236.644 183.454 241.284 178.203 241.148V241.194Z" fill="#2CB45D"/>
<path fill-rule="evenodd" clip-rule="evenodd" d="M191.74 175.332C197.626 175.332 202.425 180.062 202.47 185.963C202.515 191.504 197.399 197.361 192.328 197.496C186.443 197.676 181.191 192.54 181.055 186.459C180.919 179.972 185.356 175.377 191.74 175.332Z" fill="#2CB45D"/>
<path fill-rule="evenodd" clip-rule="evenodd" d="M231.944 145.914C231.989 151.681 227.462 156.411 221.893 156.411C216.505 156.411 211.48 151.455 211.434 146.14C211.434 141.049 216.234 136.409 221.576 136.364C227.054 136.364 231.853 140.779 231.899 145.914H231.944Z" fill="#2CB45D"/>
<path fill-rule="evenodd" clip-rule="evenodd" d="M160.093 297.64C156.063 300.839 153.618 304.217 151.49 304.037C149.091 303.812 145.65 300.749 145.061 298.316C143.975 294.081 147.823 291.739 151.49 291.964C153.799 292.099 155.972 294.802 160.093 297.685V297.64Z" fill="#2CB45D"/>
<path fill-rule="evenodd" clip-rule="evenodd" d="M189.793 269.484C189.793 275.431 187.801 278.224 183.228 278.449C178.338 278.72 176.573 275.341 176.346 271.377C176.165 267.502 178.203 264.304 182.504 264.349C186.578 264.394 189.748 266.241 189.793 269.484Z" fill="#2CB45D"/>
<path fill-rule="evenodd" clip-rule="evenodd" d="M252.499 111.227C248.424 110.641 245.617 108.073 245.345 103.163C245.119 98.9731 249.058 94.9187 253.269 95.3692C257.434 95.8197 261.056 97.4865 261.192 102.532C261.328 107.307 257.706 111.136 252.499 111.181V111.227Z" fill="#2CB45D"/>
</g>
<defs>
<clipPath id="clip0_10_3004">
<rect width="321" height="389" fill="white"/>
</clipPath>
</defs>
</svg>
