<svg width="40" height="35" viewBox="0 0 40 35" fill="none" xmlns="http://www.w3.org/2000/svg">
<path d="M2.5 0.75C3.75162 0.75 4.75 1.73026 4.75 2.92871V28.4287C4.75008 29.2414 5.43136 29.8926 6.25 29.8926H37.5C38.7516 29.8926 39.7499 30.8729 39.75 32.0713C39.75 33.2697 38.7516 34.25 37.5 34.25H6.25C2.92811 34.25 0.250077 31.6383 0.25 28.4287V2.92871C0.25 1.73026 1.24838 0.75 2.5 0.75ZM33.4004 6.24219C34.2799 5.38777 35.7122 5.38777 36.5918 6.24219C37.467 7.09257 37.4669 8.47083 36.5918 9.32129L36.4072 9.50098L36.4141 9.50781L26.5996 19.043C25.7201 19.8974 24.2878 19.8974 23.4082 19.043L18.9238 14.6875L18.75 14.5186L18.5762 14.6875L11.5918 21.4639V21.4648C10.7123 22.3192 9.27994 22.3192 8.40039 21.4648C7.5249 20.6144 7.52491 19.2352 8.40039 18.3848L17.1504 9.88477C18.0299 9.03034 19.4622 9.03034 20.3418 9.88477L24.8262 14.2412L25 14.4111L25.1738 14.2412L33.4004 6.24219Z" fill="#2FB45D" stroke="#BFE8CD" stroke-width="0.5"/>
</svg>
