<svg width="44" height="35" viewBox="0 0 44 35" fill="none" xmlns="http://www.w3.org/2000/svg">
<g clip-path="url(#clip0_282_1430)">
<path d="M44 36H0V-1H44V36Z" stroke="#101010"/>
<path d="M25.1689 23.25C29.9069 23.2501 33.7499 27.0931 33.75 31.8311C33.75 32.8873 32.8947 33.75 31.8311 33.75H11.1689C10.1127 33.75 9.25 32.8947 9.25 31.8311C9.25011 27.0931 13.0931 23.2501 17.8311 23.25H25.1689ZM10.8379 13.25C11.8685 13.2501 12.8473 13.4772 13.7285 13.8789L13.9053 13.959L13.8711 14.1504C13.7928 14.5839 13.7559 15.038 13.7559 15.5C13.7559 17.8123 14.7728 19.8889 16.3779 21.3125L16.8711 21.75H2.83105C1.96189 21.7499 1.25011 21.0381 1.25 20.1689C1.25 16.3496 4.34962 13.25 8.16895 13.25H10.8379ZM21.5 9.25C23.1576 9.25 24.7468 9.90895 25.9189 11.0811C27.091 12.2532 27.75 13.8424 27.75 15.5C27.75 17.1576 27.091 18.7468 25.9189 19.9189C24.7468 21.091 23.1576 21.75 21.5 21.75C19.8424 21.75 18.2532 21.091 17.0811 19.9189C15.909 18.7468 15.25 17.1576 15.25 15.5C15.25 13.8424 15.909 12.2532 17.0811 11.0811C18.2532 9.90895 19.8424 9.25 21.5 9.25ZM34.8311 13.25C38.6504 13.25 41.75 16.3496 41.75 20.1689C41.7499 21.0451 41.0374 21.7499 40.1689 21.75H26.127L26.6221 21.3125C28.233 19.8893 29.2441 17.8129 29.2441 15.5C29.2441 15.0405 29.2011 14.5913 29.1279 14.1465L29.0977 13.959L29.2695 13.8799C30.1526 13.4708 31.1325 13.2501 32.1621 13.25H34.8311ZM10.5 1.25C11.8924 1.25 13.2273 1.80352 14.2119 2.78809C15.1965 3.77265 15.75 5.10761 15.75 6.5C15.75 7.89239 15.1965 9.22735 14.2119 10.2119C13.2273 11.1965 11.8924 11.75 10.5 11.75C9.10761 11.75 7.77265 11.1965 6.78809 10.2119C5.80352 9.22735 5.25 7.89239 5.25 6.5C5.25 5.10761 5.80352 3.77265 6.78809 2.78809C7.77265 1.80352 9.10761 1.25 10.5 1.25ZM33.5 1.25C34.8924 1.25 36.2273 1.80352 37.2119 2.78809C38.1965 3.77265 38.75 5.10761 38.75 6.5C38.75 7.89239 38.1965 9.22735 37.2119 10.2119C36.2273 11.1965 34.8924 11.75 33.5 11.75C32.1076 11.75 30.7727 11.1965 29.7881 10.2119C28.8035 9.22735 28.25 7.89239 28.25 6.5C28.25 5.10761 28.8035 3.77265 29.7881 2.78809C30.7727 1.80352 32.1076 1.25 33.5 1.25Z" fill="#2FB45D" stroke="#BFE8CD" stroke-width="0.5"/>
</g>
<defs>
<clipPath id="clip0_282_1430">
<rect width="43" height="34" fill="white" transform="translate(0.5 0.5)"/>
</clipPath>
</defs>
</svg>
