<svg width="42" height="39" viewBox="0 0 42 39" fill="none" xmlns="http://www.w3.org/2000/svg">
<path d="M19.3989 0.488281C20.9554 0.142503 22.5761 0.220231 23.6997 0.424805H23.7007C28.3868 1.30014 32.0806 6.06553 33.2397 12.2627L33.3149 12.6621L32.9243 12.5488C30.2036 11.7566 27.2864 11.4115 24.4741 11.6582H24.4722C23.8596 11.7075 23.2092 11.8148 22.5308 11.9209C21.8568 12.0262 21.1579 12.13 20.4692 12.165C19.0908 12.2351 17.7114 12.033 16.5913 10.9932L16.5845 10.9873C16.0685 10.4713 15.6587 9.8565 15.3491 9.19434C15.3309 9.16978 15.3162 9.1462 15.3062 9.12793C15.2885 9.09568 15.2726 9.06134 15.2593 9.03125C15.2286 8.96173 15.2112 8.91677 15.1899 8.875L15.0776 8.6543L15.2974 8.54004C16.4582 7.93498 18.1334 7.17269 20.2671 6.81738H20.2681C21.8986 6.55001 23.3746 6.57921 24.6079 6.73242C21.4051 5.73033 18.0315 5.98141 15.1206 7.33984C13.5518 8.07552 12.1303 9.10485 10.9565 10.4258L10.9517 10.4316L10.9468 10.4365C10.761 10.6222 10.4991 10.7598 10.2192 10.7598C10.0108 10.7597 9.80345 10.6881 9.61084 10.5029C9.18427 10.1483 9.20762 9.53778 9.52783 9.15234L9.53271 9.14648C11.0223 7.45903 12.8046 6.20668 14.7349 5.39062C14.8425 4.57636 15.0479 3.83852 15.4458 3.14355L15.6167 2.86523C16.5083 1.51619 17.9395 0.812497 19.3989 0.488281Z" fill="#2FB55D" stroke="#BFE8CD" stroke-width="0.5"/>
<path d="M7.1626 16.7428C7.85506 19.4663 8.99365 22.1839 10.6216 24.5016L10.8999 24.8795C11.1893 25.2587 11.509 25.6429 11.8354 26.0416C12.2678 26.5698 12.7099 27.1204 13.0864 27.6979C13.8402 28.8538 14.3533 30.15 14.0063 31.6442C13.8495 32.3219 13.5379 32.9951 13.0776 33.6149C13.0281 33.7168 12.9636 33.8402 12.8413 33.9625L12.7026 34.1022L12.5347 33.9996C11.3723 33.2899 9.89808 32.225 8.52686 30.5485C7.47 29.2756 6.74733 27.9732 6.25537 26.8268C6.9687 29.9824 8.765 32.7204 11.2925 34.5553L11.606 34.775L11.6069 34.776C13.0315 35.759 14.5978 36.4921 16.3569 36.8336L16.3687 36.8365C16.5828 36.889 16.7472 37.0189 16.8647 37.1549L16.9663 37.2906L16.9849 37.318L16.9946 37.3483C17.0453 37.4982 17.122 37.7126 17.0513 37.9899L17.0503 37.9889C16.9231 38.4987 16.4089 38.853 15.9087 38.7213V38.7233C13.7722 38.2769 11.7842 37.3439 10.0845 36.069C9.34646 36.3947 8.56197 36.5816 7.77002 36.5817C6.00318 36.5817 4.56764 35.6581 3.49072 34.4918C2.41425 33.3259 1.67391 31.8961 1.29053 30.8229V30.8219C-0.306232 26.2906 1.97095 20.6946 6.7583 16.6139L7.06396 16.3531L7.1626 16.7428Z" fill="#2FB55D" stroke="#BFE8CD" stroke-width="0.5"/>
<path d="M37.1274 17.7596C37.6279 17.6327 38.1774 17.874 38.3257 18.3719L38.4526 18.7723C39.0444 20.734 39.2118 22.7723 38.9536 24.7303C39.6186 25.2225 40.1541 25.7733 40.5522 26.4686H40.5532C41.4239 27.9987 41.3358 29.7129 40.8618 31.2371C40.3878 32.7612 39.5193 34.1266 38.7778 34.9959L38.561 35.2498L38.5562 35.243C35.407 38.6888 29.573 39.4309 23.6655 37.2645L23.2876 37.1258L23.5796 36.8484C25.6079 34.9209 27.3867 32.5487 28.5698 29.9842L28.5708 29.9832C28.8278 29.4318 29.0548 28.8147 29.2983 28.1727C29.5401 27.5354 29.7972 26.8761 30.1099 26.2606C30.7356 25.0288 31.6034 23.9336 33.0728 23.5057L33.0854 23.5018L33.3442 23.4481C33.9552 23.3342 34.6267 23.3007 35.2573 23.3465H35.2563C35.3322 23.3489 35.4143 23.3656 35.4644 23.3758C35.5346 23.3901 35.5692 23.3962 35.5884 23.3963H35.8384V23.6463C35.8384 24.9685 35.6359 26.7977 34.8745 28.8279V28.8289C34.2512 30.4701 33.4381 31.7952 32.6655 32.8143C35.2409 30.5162 36.8094 27.3828 37.0874 24.1248V24.1238C37.2351 22.405 37.0875 20.6926 36.5015 18.9822L36.4976 18.9715L36.4956 18.9608C36.4659 18.8396 36.4505 18.7019 36.4585 18.5682C36.4663 18.4376 36.4977 18.289 36.5806 18.1639C36.6373 18.0783 36.7041 17.9916 36.7954 17.9188C36.8889 17.8442 36.9972 17.7926 37.1265 17.7596H37.1274Z" fill="#2FB55D" stroke="#BFE8CD" stroke-width="0.5"/>
</svg>
