<svg width="46" height="47" viewBox="0 0 46 47" fill="none" xmlns="http://www.w3.org/2000/svg">
<mask id="path-1-outside-1_282_1435" maskUnits="userSpaceOnUse" x="0" y="0" width="46" height="47" fill="black">
<rect fill="white" width="46" height="47"/>
<path d="M18.9679 23.497L19.8109 22.4898L23.0027 25.8245L26.1944 22.4898L27.0374 23.497L23.6866 27.0126V32.841C24.7311 33.0317 25.7119 33.3838 26.5867 33.8678C27.822 34.5475 28.8665 35.4863 29.6406 36.6011L27.4615 37.6573C27.4456 37.3835 27.382 37.1096 27.2865 36.8505C26.9472 35.941 26.1572 35.232 24.9272 35.232H20.707L16.8631 34.039C17.4251 33.7016 18.0295 33.418 18.6657 33.198C19.6625 32.8557 20.7441 32.6699 21.8787 32.6699C22.0218 32.6699 22.165 32.6699 22.3081 32.6797V27.0029L18.9573 23.4872L18.9679 23.497ZM23.0027 7.20978C23.3844 7.20978 23.6866 6.92619 23.6866 6.57414V1.63565C23.6866 1.2836 23.3844 1 23.0027 1C22.6209 1 22.3187 1.2836 22.3187 1.63565V6.57414C22.3187 6.92619 22.6209 7.20978 23.0027 7.20978ZM34.7674 11.3219L38.5583 7.83076C38.8287 7.58628 38.8287 7.18534 38.5636 6.93597C38.2932 6.6866 37.8584 6.6866 37.588 6.93597L33.7919 10.4271C33.5215 10.6716 33.5215 11.0726 33.7919 11.3219C34.0623 11.5713 34.4971 11.5713 34.7674 11.3219ZM31.0774 19.6831L31.8037 20.754C31.2682 21.0669 30.7221 21.3456 30.176 21.6292C29.0998 22.1866 27.9811 22.7636 27.0374 23.4921C27.8432 23.5899 28.5855 23.6144 29.2588 23.5753C30.7592 23.4824 31.931 23.0521 32.7952 22.3333C33.6647 21.6096 34.2479 20.573 34.5501 19.2773C34.7303 18.5145 34.8152 17.6588 34.7993 16.7249C32.6626 17.6588 30.9713 18.1723 29.6512 18.5683C27.0798 19.3458 26.1413 19.6294 26.1944 22.4849C27.2229 21.7074 28.384 21.106 29.5027 20.5241C30.0594 20.2357 30.6055 19.957 31.0774 19.6831ZM7.0494 21.8883C7.42583 21.8883 7.73334 21.6047 7.73334 21.2527C7.73334 20.9006 7.42053 20.6171 7.0494 20.6171H1.68394C1.30221 20.6171 1 20.9006 1 21.2527C1 21.6047 1.30221 21.8883 1.68394 21.8883H7.0494ZM44.3161 20.6171H38.9506C38.5689 20.6171 38.2667 20.9006 38.2667 21.2527C38.2667 21.6047 38.5689 21.8883 38.9506 21.8883H44.3161C44.6978 21.8883 45 21.6047 45 21.2527C45 20.9006 44.6978 20.6171 44.3161 20.6171ZM11.4552 19.2773C11.7574 20.5779 12.3406 21.6096 13.2101 22.3333C14.069 23.0521 15.2461 23.4824 16.7465 23.5753C17.4198 23.6144 18.1621 23.5899 18.9679 23.4921C18.0189 22.7685 16.9002 22.1866 15.8293 21.6292C15.2779 21.3456 14.7371 21.062 14.2016 20.754L14.9279 19.6831C15.3998 19.957 15.9512 20.2406 16.5026 20.5241C17.6213 21.106 18.7824 21.7074 19.8109 22.4849C19.864 19.6342 18.9255 19.3458 16.3541 18.5683C15.034 18.1674 13.348 17.6588 11.206 16.7249C11.1954 17.6588 11.2803 18.5096 11.4552 19.2773ZM36.4375 36.694C36.533 37.1243 36.4746 37.5448 36.1459 37.716L26.7458 42.6202L20.2987 45.8767C20.023 46.0136 19.6413 46.0234 19.2383 45.9696C18.7665 45.9109 18.2628 45.7593 17.844 45.6273L8.80431 42.6789C8.71948 42.6447 8.62405 42.63 8.52862 42.63H6.86914V44.1996H1.33402V33.8972H6.86914V35.4667H8.40137C8.4756 35.4667 8.54983 35.4521 8.61875 35.4325L12.0649 34.3764C12.3141 34.2981 12.5421 34.2443 12.7595 34.2248C12.9451 34.2101 13.1253 34.2248 13.3215 34.2835L15.1983 34.8653C15.1983 34.8653 15.2142 34.8702 15.2248 34.8751L20.3464 36.4642C20.4313 36.4985 20.5267 36.5131 20.6221 36.5131H24.9484C25.4892 36.5131 25.8497 36.8456 26.0088 37.271C26.083 37.4617 26.1148 37.672 26.1148 37.8871C26.1148 38.1022 26.0777 38.3076 26.0088 38.4983L25.9929 38.5374C25.9929 38.5374 25.977 38.5765 25.9664 38.5961C25.7914 38.9726 25.4521 39.2513 24.9431 39.2513H16.7147C16.3382 39.2513 16.0307 39.5349 16.0307 39.8869C16.0307 40.239 16.3435 40.5226 16.7147 40.5226H24.9431C26.0141 40.5226 26.7458 39.9945 27.1381 39.266L35.059 35.4179C35.3082 35.2956 35.5892 35.4081 35.8278 35.6232C35.9763 35.7552 36.1088 35.9215 36.2095 36.1073C36.3156 36.298 36.4004 36.5033 36.4428 36.7087L36.4375 36.694ZM5.92011 35.5156C5.92011 35.1636 5.61791 34.88 5.23617 34.88H2.96168C2.57995 34.88 2.26714 35.1636 2.26714 35.5156C2.26714 35.8677 2.57995 36.1513 2.96168 36.1513H5.23617C5.61791 36.1513 5.92011 35.8677 5.92011 35.5156ZM11.2326 11.317C11.503 11.5615 11.9377 11.5615 12.2081 11.317C12.4785 11.0677 12.4785 10.6667 12.2028 10.4222L8.41198 6.93108C8.14158 6.6866 7.70683 6.6866 7.43644 6.93108C7.16604 7.18045 7.17135 7.58139 7.44174 7.82587L11.2326 11.317Z"/>
</mask>
<path d="M18.9679 23.497L19.8109 22.4898L23.0027 25.8245L26.1944 22.4898L27.0374 23.497L23.6866 27.0126V32.841C24.7311 33.0317 25.7119 33.3838 26.5867 33.8678C27.822 34.5475 28.8665 35.4863 29.6406 36.6011L27.4615 37.6573C27.4456 37.3835 27.382 37.1096 27.2865 36.8505C26.9472 35.941 26.1572 35.232 24.9272 35.232H20.707L16.8631 34.039C17.4251 33.7016 18.0295 33.418 18.6657 33.198C19.6625 32.8557 20.7441 32.6699 21.8787 32.6699C22.0218 32.6699 22.165 32.6699 22.3081 32.6797V27.0029L18.9573 23.4872L18.9679 23.497ZM23.0027 7.20978C23.3844 7.20978 23.6866 6.92619 23.6866 6.57414V1.63565C23.6866 1.2836 23.3844 1 23.0027 1C22.6209 1 22.3187 1.2836 22.3187 1.63565V6.57414C22.3187 6.92619 22.6209 7.20978 23.0027 7.20978ZM34.7674 11.3219L38.5583 7.83076C38.8287 7.58628 38.8287 7.18534 38.5636 6.93597C38.2932 6.6866 37.8584 6.6866 37.588 6.93597L33.7919 10.4271C33.5215 10.6716 33.5215 11.0726 33.7919 11.3219C34.0623 11.5713 34.4971 11.5713 34.7674 11.3219ZM31.0774 19.6831L31.8037 20.754C31.2682 21.0669 30.7221 21.3456 30.176 21.6292C29.0998 22.1866 27.9811 22.7636 27.0374 23.4921C27.8432 23.5899 28.5855 23.6144 29.2588 23.5753C30.7592 23.4824 31.931 23.0521 32.7952 22.3333C33.6647 21.6096 34.2479 20.573 34.5501 19.2773C34.7303 18.5145 34.8152 17.6588 34.7993 16.7249C32.6626 17.6588 30.9713 18.1723 29.6512 18.5683C27.0798 19.3458 26.1413 19.6294 26.1944 22.4849C27.2229 21.7074 28.384 21.106 29.5027 20.5241C30.0594 20.2357 30.6055 19.957 31.0774 19.6831ZM7.0494 21.8883C7.42583 21.8883 7.73334 21.6047 7.73334 21.2527C7.73334 20.9006 7.42053 20.6171 7.0494 20.6171H1.68394C1.30221 20.6171 1 20.9006 1 21.2527C1 21.6047 1.30221 21.8883 1.68394 21.8883H7.0494ZM44.3161 20.6171H38.9506C38.5689 20.6171 38.2667 20.9006 38.2667 21.2527C38.2667 21.6047 38.5689 21.8883 38.9506 21.8883H44.3161C44.6978 21.8883 45 21.6047 45 21.2527C45 20.9006 44.6978 20.6171 44.3161 20.6171ZM11.4552 19.2773C11.7574 20.5779 12.3406 21.6096 13.2101 22.3333C14.069 23.0521 15.2461 23.4824 16.7465 23.5753C17.4198 23.6144 18.1621 23.5899 18.9679 23.4921C18.0189 22.7685 16.9002 22.1866 15.8293 21.6292C15.2779 21.3456 14.7371 21.062 14.2016 20.754L14.9279 19.6831C15.3998 19.957 15.9512 20.2406 16.5026 20.5241C17.6213 21.106 18.7824 21.7074 19.8109 22.4849C19.864 19.6342 18.9255 19.3458 16.3541 18.5683C15.034 18.1674 13.348 17.6588 11.206 16.7249C11.1954 17.6588 11.2803 18.5096 11.4552 19.2773ZM36.4375 36.694C36.533 37.1243 36.4746 37.5448 36.1459 37.716L26.7458 42.6202L20.2987 45.8767C20.023 46.0136 19.6413 46.0234 19.2383 45.9696C18.7665 45.9109 18.2628 45.7593 17.844 45.6273L8.80431 42.6789C8.71948 42.6447 8.62405 42.63 8.52862 42.63H6.86914V44.1996H1.33402V33.8972H6.86914V35.4667H8.40137C8.4756 35.4667 8.54983 35.4521 8.61875 35.4325L12.0649 34.3764C12.3141 34.2981 12.5421 34.2443 12.7595 34.2248C12.9451 34.2101 13.1253 34.2248 13.3215 34.2835L15.1983 34.8653C15.1983 34.8653 15.2142 34.8702 15.2248 34.8751L20.3464 36.4642C20.4313 36.4985 20.5267 36.5131 20.6221 36.5131H24.9484C25.4892 36.5131 25.8497 36.8456 26.0088 37.271C26.083 37.4617 26.1148 37.672 26.1148 37.8871C26.1148 38.1022 26.0777 38.3076 26.0088 38.4983L25.9929 38.5374C25.9929 38.5374 25.977 38.5765 25.9664 38.5961C25.7914 38.9726 25.4521 39.2513 24.9431 39.2513H16.7147C16.3382 39.2513 16.0307 39.5349 16.0307 39.8869C16.0307 40.239 16.3435 40.5226 16.7147 40.5226H24.9431C26.0141 40.5226 26.7458 39.9945 27.1381 39.266L35.059 35.4179C35.3082 35.2956 35.5892 35.4081 35.8278 35.6232C35.9763 35.7552 36.1088 35.9215 36.2095 36.1073C36.3156 36.298 36.4004 36.5033 36.4428 36.7087L36.4375 36.694ZM5.92011 35.5156C5.92011 35.1636 5.61791 34.88 5.23617 34.88H2.96168C2.57995 34.88 2.26714 35.1636 2.26714 35.5156C2.26714 35.8677 2.57995 36.1513 2.96168 36.1513H5.23617C5.61791 36.1513 5.92011 35.8677 5.92011 35.5156ZM11.2326 11.317C11.503 11.5615 11.9377 11.5615 12.2081 11.317C12.4785 11.0677 12.4785 10.6667 12.2028 10.4222L8.41198 6.93108C8.14158 6.6866 7.70683 6.6866 7.43644 6.93108C7.16604 7.18045 7.17135 7.58139 7.44174 7.82587L11.2326 11.317Z" fill="#2FB45D"/>
<path d="M18.9679 23.497L19.8109 22.4898L23.0027 25.8245L26.1944 22.4898L27.0374 23.497L23.6866 27.0126V32.841C24.7311 33.0317 25.7119 33.3838 26.5867 33.8678C27.822 34.5475 28.8665 35.4863 29.6406 36.6011L27.4615 37.6573C27.4456 37.3835 27.382 37.1096 27.2865 36.8505C26.9472 35.941 26.1572 35.232 24.9272 35.232H20.707L16.8631 34.039C17.4251 33.7016 18.0295 33.418 18.6657 33.198C19.6625 32.8557 20.7441 32.6699 21.8787 32.6699C22.0218 32.6699 22.165 32.6699 22.3081 32.6797V27.0029L18.9573 23.4872L18.9679 23.497ZM23.0027 7.20978C23.3844 7.20978 23.6866 6.92619 23.6866 6.57414V1.63565C23.6866 1.2836 23.3844 1 23.0027 1C22.6209 1 22.3187 1.2836 22.3187 1.63565V6.57414C22.3187 6.92619 22.6209 7.20978 23.0027 7.20978ZM34.7674 11.3219L38.5583 7.83076C38.8287 7.58628 38.8287 7.18534 38.5636 6.93597C38.2932 6.6866 37.8584 6.6866 37.588 6.93597L33.7919 10.4271C33.5215 10.6716 33.5215 11.0726 33.7919 11.3219C34.0623 11.5713 34.4971 11.5713 34.7674 11.3219ZM31.0774 19.6831L31.8037 20.754C31.2682 21.0669 30.7221 21.3456 30.176 21.6292C29.0998 22.1866 27.9811 22.7636 27.0374 23.4921C27.8432 23.5899 28.5855 23.6144 29.2588 23.5753C30.7592 23.4824 31.931 23.0521 32.7952 22.3333C33.6647 21.6096 34.2479 20.573 34.5501 19.2773C34.7303 18.5145 34.8152 17.6588 34.7993 16.7249C32.6626 17.6588 30.9713 18.1723 29.6512 18.5683C27.0798 19.3458 26.1413 19.6294 26.1944 22.4849C27.2229 21.7074 28.384 21.106 29.5027 20.5241C30.0594 20.2357 30.6055 19.957 31.0774 19.6831ZM7.0494 21.8883C7.42583 21.8883 7.73334 21.6047 7.73334 21.2527C7.73334 20.9006 7.42053 20.6171 7.0494 20.6171H1.68394C1.30221 20.6171 1 20.9006 1 21.2527C1 21.6047 1.30221 21.8883 1.68394 21.8883H7.0494ZM44.3161 20.6171H38.9506C38.5689 20.6171 38.2667 20.9006 38.2667 21.2527C38.2667 21.6047 38.5689 21.8883 38.9506 21.8883H44.3161C44.6978 21.8883 45 21.6047 45 21.2527C45 20.9006 44.6978 20.6171 44.3161 20.6171ZM11.4552 19.2773C11.7574 20.5779 12.3406 21.6096 13.2101 22.3333C14.069 23.0521 15.2461 23.4824 16.7465 23.5753C17.4198 23.6144 18.1621 23.5899 18.9679 23.4921C18.0189 22.7685 16.9002 22.1866 15.8293 21.6292C15.2779 21.3456 14.7371 21.062 14.2016 20.754L14.9279 19.6831C15.3998 19.957 15.9512 20.2406 16.5026 20.5241C17.6213 21.106 18.7824 21.7074 19.8109 22.4849C19.864 19.6342 18.9255 19.3458 16.3541 18.5683C15.034 18.1674 13.348 17.6588 11.206 16.7249C11.1954 17.6588 11.2803 18.5096 11.4552 19.2773ZM36.4375 36.694C36.533 37.1243 36.4746 37.5448 36.1459 37.716L26.7458 42.6202L20.2987 45.8767C20.023 46.0136 19.6413 46.0234 19.2383 45.9696C18.7665 45.9109 18.2628 45.7593 17.844 45.6273L8.80431 42.6789C8.71948 42.6447 8.62405 42.63 8.52862 42.63H6.86914V44.1996H1.33402V33.8972H6.86914V35.4667H8.40137C8.4756 35.4667 8.54983 35.4521 8.61875 35.4325L12.0649 34.3764C12.3141 34.2981 12.5421 34.2443 12.7595 34.2248C12.9451 34.2101 13.1253 34.2248 13.3215 34.2835L15.1983 34.8653C15.1983 34.8653 15.2142 34.8702 15.2248 34.8751L20.3464 36.4642C20.4313 36.4985 20.5267 36.5131 20.6221 36.5131H24.9484C25.4892 36.5131 25.8497 36.8456 26.0088 37.271C26.083 37.4617 26.1148 37.672 26.1148 37.8871C26.1148 38.1022 26.0777 38.3076 26.0088 38.4983L25.9929 38.5374C25.9929 38.5374 25.977 38.5765 25.9664 38.5961C25.7914 38.9726 25.4521 39.2513 24.9431 39.2513H16.7147C16.3382 39.2513 16.0307 39.5349 16.0307 39.8869C16.0307 40.239 16.3435 40.5226 16.7147 40.5226H24.9431C26.0141 40.5226 26.7458 39.9945 27.1381 39.266L35.059 35.4179C35.3082 35.2956 35.5892 35.4081 35.8278 35.6232C35.9763 35.7552 36.1088 35.9215 36.2095 36.1073C36.3156 36.298 36.4004 36.5033 36.4428 36.7087L36.4375 36.694ZM5.92011 35.5156C5.92011 35.1636 5.61791 34.88 5.23617 34.88H2.96168C2.57995 34.88 2.26714 35.1636 2.26714 35.5156C2.26714 35.8677 2.57995 36.1513 2.96168 36.1513H5.23617C5.61791 36.1513 5.92011 35.8677 5.92011 35.5156ZM11.2326 11.317C11.503 11.5615 11.9377 11.5615 12.2081 11.317C12.4785 11.0677 12.4785 10.6667 12.2028 10.4222L8.41198 6.93108C8.14158 6.6866 7.70683 6.6866 7.43644 6.93108C7.16604 7.18045 7.17135 7.58139 7.44174 7.82587L11.2326 11.317Z" stroke="#BFE8CD" mask="url(#path-1-outside-1_282_1435)"/>
</svg>
