<svg width="120" height="120" viewBox="0 0 120 120" fill="none" xmlns="http://www.w3.org/2000/svg">
<path d="M26.7565 48.8729C26.3727 48.716 26.0692 48.5466 25.662 48.4444C23.8938 48.0006 22.1919 47.6872 20.4756 47.0435C20.9585 44.9856 21.9373 43.3711 22.9951 41.5781C23.942 39.9369 24.9444 38.3489 26.0803 36.8309C26.6866 36.0205 27.3722 35.3521 28.024 34.5901C38.1846 22.7134 54.354 17.732 69.5224 21.1604C80.6113 23.6667 90.6626 30.8336 96.5941 40.5512C100.774 47.4272 102.964 54.9851 102.843 63.047C102.763 68.3841 101.932 73.217 100.03 78.2154C99.3655 79.9634 98.5092 81.6488 97.6951 83.3325C97.3267 82.3113 96.1171 80.496 95.5021 79.5762C94.9606 78.7735 94.4332 77.9033 93.8422 77.139C90.3443 72.6155 86.0694 68.426 81.1073 65.542C80.4084 65.1358 79.7729 64.5935 79 64.3024C78.979 64.2911 78.958 64.2798 78.937 64.2685C79.159 63.6969 79.3655 63.0979 79.5734 62.5195C81.5206 62.4987 85.2441 63.1536 85.2041 60.2277C85.1808 58.5192 85.2994 56.7751 85.1556 55.0784C85.1079 54.5162 84.3066 53.7128 83.7391 53.618C82.344 53.3931 80.861 53.5514 79.4296 53.505C79.0445 52.318 78.7562 51.3533 78.1693 50.2116C77.753 49.4017 77.2743 48.6612 76.8608 47.86C77.6365 47.0373 79.3219 45.7745 79.6589 44.7572C79.8244 44.258 79.7409 43.7317 79.5088 43.268C79.2627 42.7766 75.8346 39.2072 75.3149 38.7718C75.0858 38.58 74.8562 38.439 74.5688 38.35C72.7327 37.7809 71.7638 40.1504 70.5841 40.7351C70.3992 40.8267 70.25 40.7899 70.0664 40.7233C69.3183 40.4516 68.615 39.9508 67.8823 39.6198C66.952 39.1997 65.9763 38.9448 65.0245 38.59C64.1183 38.2522 64.9161 35.7663 64.3343 34.6406C64.0751 34.1391 63.6517 33.7919 63.1105 33.6333C62.646 33.4971 57.8409 33.4985 57.1574 33.5781C56.7816 33.6218 56.4088 33.728 56.0836 33.9246C54.5099 34.8764 55.5323 36.8204 55.1805 38.0804C55.1255 38.2778 55.0527 38.3918 54.8698 38.4938C54.287 38.8186 53.5666 38.959 52.9441 39.2121C51.6805 39.726 50.5388 40.2996 49.3521 40.9626C48.5645 40.1865 47.7769 39.3352 46.9741 38.5838C46.5531 38.2006 45.97 38.1142 45.4257 38.1849C44.8294 38.2622 44.3159 38.8843 43.9163 39.3006C42.6822 40.5854 41.4359 41.8656 40.3191 43.2549C39.8749 43.8074 39.9417 44.8363 40.3215 45.3883C40.5807 45.7649 41.3198 46.2154 41.7 46.5017C42.1093 46.8099 42.5542 47.1169 42.9708 47.4162C42.2654 48.5579 41.6963 50.0489 41.25 51.3209C41.0425 51.9122 40.8618 52.6723 40.6011 53.2167C40.3315 53.4314 39.639 53.3613 39.2633 53.3547C38.7686 53.3453 38.3207 53.3256 37.8268 53.2927C38.2146 53.2668 38.3905 53.2582 38.7707 53.1697C38.6422 53.1249 37.7786 53.188 37.4316 53.1269C37.4933 52.6617 37.2938 52.4056 37.0684 51.9619C37.4201 51.579 37.5009 51.1657 37.6751 51.0448C37.8724 51.0818 38.1071 51.1664 38.3017 51.2295L38.4045 51.473C38.4214 51.3569 38.4465 51.2459 38.4784 51.1329C38.1361 50.9356 37.6649 50.8067 37.273 50.7593L36.4039 50.6426C34.1875 50.1435 31.5015 49.5352 29.2823 49.2982C28.5158 48.912 27.6125 48.6956 26.7565 48.8729ZM43.0611 28.5653C42.7968 29.1015 42.8852 29.8396 42.8878 30.4634C42.3284 30.4466 41.3844 30.3498 40.9465 30.6987L40.9488 30.9196C41.4456 31.2708 42.2985 31.1813 42.9149 31.1665C42.8964 31.7206 42.7804 32.624 43.0629 33.0501C43.2755 33.1813 43.2125 33.1401 43.5012 33.1408C43.7425 32.732 43.6366 31.6528 43.6179 31.1583C44.137 31.1681 44.9873 31.288 45.3668 31.0149C45.4798 30.8438 45.4636 30.834 45.4594 30.6333L45.3934 30.5066C44.9517 30.3878 44.0873 30.4517 43.5934 30.4668C43.6062 29.9577 43.7176 29.0797 43.5107 28.6717C43.2989 28.534 43.352 28.5781 43.0611 28.5653ZM94.536 48.5592C94.2913 48.6484 94.161 48.9152 94.241 49.1631C94.3211 49.4111 94.5829 49.5511 94.8335 49.4803C95.0041 49.432 95.1348 49.2945 95.1741 49.1216C95.2134 48.9488 95.1551 48.7682 95.0221 48.651C94.8891 48.5337 94.7026 48.4985 94.536 48.5592ZM92.4987 67.3129C92.0773 67.7908 92.0045 68.4095 92.8085 68.4407C93.4566 67.9791 93.1714 67.4704 92.4987 67.3129Z" fill="url(#paint0_linear_2289_680)"/>
<path d="M42.8886 30.4634C42.886 29.8396 42.7975 29.1016 43.0619 28.5653C43.3528 28.5781 43.2997 28.534 43.5114 28.6717C43.7184 29.0798 43.607 29.9577 43.5942 30.4668C44.0881 30.4517 44.9525 30.3878 45.3942 30.5066L45.4602 30.6333C45.4644 30.8341 45.4805 30.8438 45.3676 31.0149C44.9881 31.288 44.1378 31.1682 43.6187 31.1583C43.6374 31.6528 43.7432 32.732 43.502 33.1408C43.2133 33.1401 43.2762 33.1813 43.0637 33.0501C42.7811 32.624 42.8971 31.7206 42.9157 31.1665C42.2993 31.1813 41.4464 31.2708 40.9496 30.9196L40.9473 30.6987C41.3852 30.3498 42.3291 30.4466 42.8886 30.4634Z" fill="#95E0C1"/>
<path d="M41.5703 43.2001C42.3621 43.739 43.7702 45.093 44.6084 45.7662C45.0126 46.2965 47.5411 48.1304 47.5075 48.4499C46.7755 48.2579 45.2242 46.4792 44.5491 46.2618C44.0297 45.8696 41.5403 43.6436 41.196 43.6485C40.4522 44.5145 41.7694 45.3271 42.368 45.8115C43.2081 46.4911 44.1207 47.1282 44.9354 47.8358C45.2316 48.3742 45.8897 48.4801 45.9468 49.0051L45.8106 49.2262C45.6002 49.1792 45.0944 48.6858 44.5793 48.4785C44.2775 48.2794 43.9859 48.071 43.6909 47.8621C43.533 48.206 43.2959 48.6851 43.1634 49.0292C42.6425 49.9334 42.3139 51.0247 42.0143 52.0225C41.8444 52.589 41.7337 53.2465 41.4098 53.7453C41.2476 53.9949 41.0459 54.1281 40.7582 54.2026C39.8453 54.4386 36.7299 53.9171 36.2671 54.5045C36.1314 54.6767 36.1074 54.9953 36.0903 55.208C36.0401 55.8322 36.0489 60.4536 36.153 60.8672C36.2345 61.1917 36.4008 61.3495 36.652 61.5541L36.7502 61.5663C37.979 61.7118 39.3589 61.5017 40.5625 61.7216C40.7181 61.7501 41.0447 62.0304 41.1129 62.1591C41.5513 62.9861 41.5647 64.1041 41.8865 65.0671C42.1956 65.992 42.6544 66.9327 42.9006 67.7718C42.2053 69.0925 39.2522 70.8634 40.5432 72.2977C41.3698 73.2162 42.378 74.1378 43.2461 75.034C43.618 75.4062 44.5469 76.4051 44.9011 76.6472C45.5652 76.2646 45.948 75.7318 46.5011 75.2572C46.6957 75.3724 47.0985 75.5825 47.1784 75.7749L47.1386 75.8406C46.1362 76.718 45.8332 77.6385 44.4201 77.4729C42.9224 75.9289 41.423 74.3964 39.8971 72.8799C39.3441 72.3303 39.0489 71.0342 39.5221 70.4668C40.1437 69.7215 41.2764 68.3074 41.9943 67.7159C41.0792 65.5867 40.8756 64.7655 40.2948 62.5601C39.2332 62.4571 37.1868 62.732 36.298 62.3478C35.8925 62.1725 35.495 61.7621 35.3377 61.3484C35.1116 60.7536 35.1466 55.8517 35.2349 54.9797C35.258 54.7524 35.305 54.5484 35.4066 54.3421C35.6448 53.8586 36.0612 53.5457 36.565 53.378L36.7199 53.3753L36.8814 53.3689L39.2636 53.3547C39.6393 53.3614 40.3318 53.4315 40.6014 53.2168C40.862 52.6723 41.0427 51.9122 41.2503 51.3209C41.6965 50.049 42.2657 48.558 42.9711 47.4162C42.5544 47.1169 42.1096 46.8099 41.7003 46.5017C41.3201 46.2154 40.581 45.7649 40.3218 45.3883C39.942 44.8363 39.8752 43.8074 40.3193 43.2549C41.4361 41.8656 42.6824 40.5855 43.9165 39.3006C44.3161 38.8844 44.8296 38.2622 45.426 38.1849C45.9702 38.1142 46.5534 38.2006 46.9744 38.5838C47.7771 39.3352 48.5648 40.1866 49.3524 40.9626C50.539 40.2997 51.6808 39.726 52.9444 39.2122C53.5669 38.959 54.2873 38.8186 54.87 38.4938C55.053 38.3918 55.1257 38.2778 55.1808 38.0805C55.5326 36.8205 54.5102 34.8765 56.0839 33.9247C56.4091 33.728 56.7818 33.6218 57.1577 33.5781C57.8412 33.4986 62.6462 33.4972 63.1108 33.6333C63.652 33.7919 64.0753 34.1391 64.3346 34.6407C64.9164 35.7664 64.1186 38.2523 65.0248 38.59C65.9766 38.9449 66.9523 39.1997 67.8825 39.6199C68.6153 39.9508 69.3186 40.4517 70.0667 40.7233C70.2503 40.79 70.3995 40.8268 70.5844 40.7351C71.764 40.1505 72.7329 37.7809 74.569 38.35C74.8565 38.4391 75.0861 38.5801 75.3152 38.7719C75.8349 39.2072 79.263 42.7767 79.5091 43.268C79.7412 43.7317 79.8247 44.258 79.6592 44.7572C79.3222 45.7745 77.6368 47.0374 76.8611 47.86C77.2745 48.6612 77.7532 49.4017 78.1696 50.2116C78.7565 51.3534 79.0448 52.3181 79.4298 53.505C80.8613 53.5515 82.3443 53.3931 83.7394 53.618C84.3068 53.7128 85.1082 54.5163 85.1559 55.0784C85.2996 56.7752 85.1811 58.5193 85.2044 60.2277C85.2443 63.1537 81.5208 62.4987 79.5736 62.5196C79.3657 63.0979 79.1593 63.697 78.9373 64.2685C78.4663 65.4067 77.9439 66.633 77.5075 67.78L77.5557 67.8395C79.8599 70.6523 82.0956 71.1831 78.5495 74.3509C77.9313 74.9033 77.1728 75.9233 76.5215 76.5583C76.3513 76.4589 76.2018 76.3585 76.0377 76.2493C76.1355 76.0866 76.3728 75.8629 76.5051 75.6971C77.2335 74.7997 78.1046 73.7704 78.9379 72.9851C80.3745 71.6311 79.353 70.9152 78.3045 69.8576C77.7222 69.2703 76.9055 68.5008 76.6309 67.7072C76.8668 66.7121 77.9417 64.7052 78.0168 64.1495C78.7879 61.967 78.783 61.3476 81.4141 61.537C81.9509 61.5755 82.9919 61.5497 83.5464 61.5115C83.917 61.2794 84.0014 61.1827 84.2497 60.8204C84.2799 60.5093 84.2827 60.2286 84.2772 59.916C84.2492 58.336 84.3155 56.7627 84.2884 55.1822C83.3746 53.857 81.2342 54.6521 79.7973 54.4799C78.1297 54.28 78.2451 52.2158 77.4732 50.9136C77.1415 50.3541 76.2495 48.7545 76.065 48.229C75.5521 46.7671 78.6373 45.4801 78.7926 44.1425C78.5995 43.4495 77.402 42.3876 76.8651 41.8401C76.0299 40.9881 75.1994 40.0287 74.2882 39.2686C73.8764 38.9251 73.0758 39.7227 72.8051 40.0225C72.0311 40.8099 71.5219 41.4963 70.4266 41.8049C69.4197 41.5209 67.969 40.6158 66.8628 40.1985C65.9905 39.8105 64.9135 39.7183 64.1312 39.1697C62.9256 38.3243 64.626 34.5997 62.6591 34.5481C60.8903 34.5016 58.9081 34.4706 57.1497 34.5263C55.0321 34.7167 57.0141 38.7136 55.4281 39.2984C53.5843 39.9835 51.6719 40.5867 50.0021 41.6588C48.3248 42.7359 46.6644 38.0711 45.2441 39.3324C44.0459 40.3965 42.6528 41.9846 41.5703 43.2001Z" fill="#62AC9D"/>
<path d="M44.6084 45.7662C43.7702 45.093 42.3621 43.739 41.5703 43.2001C42.6528 41.9846 44.0459 40.3965 45.2441 39.3324C46.6645 38.0711 48.3248 42.7359 50.0021 41.6588C51.6719 40.5867 53.5843 39.9835 55.4281 39.2984C57.0141 38.7136 55.0321 34.7167 57.1497 34.5263C58.9081 34.4706 60.8903 34.5016 62.6591 34.5481C64.626 34.5997 62.9256 38.3243 64.1313 39.1697C64.9135 39.7183 65.9906 39.8105 66.8628 40.1985C67.969 40.6158 69.4197 41.5209 70.4266 41.8049C71.5219 41.4963 72.0311 40.8099 72.8051 40.0225C73.0758 39.7227 73.8764 38.925 74.2882 39.2686C75.1994 40.0287 76.0299 40.9881 76.8651 41.8401C77.402 42.3876 78.5995 43.4495 78.7926 44.1425C78.6373 45.48 75.5521 46.7671 76.065 48.229C76.2495 48.7545 77.1415 50.3541 77.4732 50.9136C78.2451 52.2158 78.1297 54.28 79.7974 54.4799C81.2342 54.6521 83.3746 53.857 84.2884 55.1822C84.3155 56.7627 84.2492 58.336 84.2772 59.916C84.2827 60.2286 84.2799 60.5093 84.2497 60.8204C84.0015 61.1827 83.917 61.2794 83.5464 61.5115C82.9919 61.5497 81.9509 61.5755 81.4141 61.537C78.783 61.3476 78.7879 61.967 78.0168 64.1495C77.6273 64.6815 76.4484 67.4575 76.5848 67.8224C77.6392 70.6442 81.6811 70.7744 77.8947 73.8816C77.6453 74.0862 76.5939 75.3761 76.291 75.7844C74.2222 73.6519 72.0685 71.5345 69.8665 69.5397C72.1448 67.1872 73.1225 67.4518 70.0813 65.1161C70.9139 63.8745 71.1389 62.6603 71.4726 61.2469C71.9768 61.2738 74.175 61.3612 74.5189 61.1935C74.6804 60.7162 74.7715 56.3699 74.5792 56.0468C74.1415 55.8788 72.0235 56.0063 71.417 56.0218C71.0746 54.6189 70.8331 53.6652 70.0478 52.4398C70.5713 51.9224 71.6627 50.8956 72.0374 50.3076C71.4694 49.535 69.1956 47.2825 68.414 46.5436C67.854 46.9604 66.645 48.1823 66.1766 48.7115C64.9082 47.9555 63.9611 47.6048 62.5755 47.1862C62.5693 46.5626 62.6673 45.1254 62.5043 44.5947C62.1856 44.2356 60.4514 44.3652 59.9373 44.3597C56.5557 44.3235 56.9882 44.0853 57.0196 47.1878C55.7695 47.5288 54.6659 48.0686 53.4986 48.6141C51.7297 47.2335 51.5831 45.9024 49.7031 48.215C49.5005 48.4642 49.0227 48.8956 48.7763 49.1259C48.3085 48.8975 47.7981 48.3898 47.3931 48.0524C46.5311 47.3343 45.5482 46.372 44.6084 45.7662Z" fill="url(#paint1_linear_2289_680)"/>
<path d="M44.9356 47.8357C44.1209 47.1281 43.2084 46.4911 42.3683 45.8114C41.7697 45.327 40.4525 44.5145 41.1963 43.6484C41.5406 43.6435 44.03 45.8695 44.5494 46.2617C44.8778 46.6312 46.0192 47.5488 46.462 47.9025C47.0292 48.3554 47.8301 49.1021 48.3876 49.5188C48.1174 49.7731 47.9111 49.9808 47.6021 50.1883C47.3657 49.7145 45.4362 48.1992 44.9356 47.8357Z" fill="#DCEF9E"/>
<path d="M48.7761 49.1258C49.0225 48.8955 49.5003 48.4641 49.7029 48.2149C51.5829 45.9023 51.7295 47.2334 53.4984 48.614C54.6657 48.0685 55.7693 47.5288 57.0194 47.1877C56.988 44.0852 56.5555 44.3234 59.9371 44.3597C60.4512 44.3652 62.1854 44.2355 62.5041 44.5946C62.6671 45.1254 62.5691 46.5625 62.5753 47.1861C63.9609 47.6047 64.908 47.9554 66.1764 48.7114C66.6448 48.1822 67.8538 46.9603 68.4138 46.5436C69.1954 47.2824 71.4692 49.5349 72.0372 50.3075C71.6625 50.8955 70.5711 51.9223 70.0476 52.4397C70.8329 53.6652 71.0744 54.6188 71.4168 56.0217C72.0233 56.0062 74.1413 55.8787 74.579 56.0468C74.7713 56.3698 74.6802 60.7161 74.5187 61.1934C74.1748 61.3611 71.9766 61.2737 71.4724 61.2468C71.1387 62.6602 70.9137 63.8744 70.0811 65.116C73.1223 67.4517 72.1446 67.1871 69.8663 69.5396L69.5586 69.8714C69.2502 70.1725 68.9141 70.5252 68.5276 70.7186L68.1827 70.785C67.3128 70.4124 66.9315 69.725 66.2221 69.0606C64.845 69.9345 64.3277 70.1339 62.7432 70.615C62.5912 72.1837 62.7106 74.1473 62.6578 75.7366C62.6418 76.2165 62.6918 77.1875 62.6312 77.626C62.535 78.0129 62.5769 78.9989 62.5777 79.4436L61.9988 79.4108C62.005 79.0327 62.0601 78.0526 61.9332 77.7441C61.8311 77.0302 61.9309 74.5939 61.8895 73.6503L57.9209 73.657L57.8896 74.6722C57.6693 74.6043 57.4373 74.5259 57.2125 74.4813C57.1941 74.7434 57.1809 75.0677 57.1494 75.3232L57.1481 74.0052L57.1292 70.5937C55.2881 70.0941 55.0316 69.9691 53.4767 68.9612C52.7139 69.627 52.1432 70.288 51.294 70.9122C50.7158 70.5295 47.8686 67.624 47.4642 67.0381C47.8441 66.4581 48.8915 65.4477 49.4264 64.9095C48.6897 63.56 48.4277 62.8641 48.0446 61.3877C47.523 61.3573 45.252 61.5472 45.1573 61.1642C44.9327 60.2553 44.8658 56.9705 45.0825 56.1473C45.7712 55.9509 47.2524 56.0144 48.0126 56.0186C48.3676 54.4796 48.678 53.7199 49.5275 52.3926C49.0768 51.9591 48.6438 51.5304 48.2034 51.0869C48.016 50.8106 47.685 50.4616 47.6016 50.1883C47.9107 49.9808 48.1169 49.7731 48.3871 49.5188L48.7761 49.1258ZM58.9576 49.3389C53.7205 49.8313 49.8673 54.4656 50.3391 59.7045C50.8109 64.9436 55.4301 68.8149 60.6709 68.3636C65.9408 67.9099 69.8383 63.2594 69.3639 57.9913C68.8895 52.7232 64.2239 48.8439 58.9576 49.3389Z" fill="#2FB45D"/>
<path d="M44.6081 45.7661C45.548 46.3719 46.5308 47.3342 47.3929 48.0523C47.7979 48.3897 48.3082 48.8974 48.776 49.1258L48.3871 49.5188C47.8296 49.1021 47.0286 48.3554 46.4614 47.9024C46.0187 47.5488 44.8773 46.6312 44.5488 46.2617C45.2239 46.4791 46.7753 48.2578 47.5072 48.4498C47.5409 48.1303 45.0123 46.2964 44.6081 45.7661Z" fill="#95E0C1"/>
<path d="M43.6909 47.8621C43.9858 48.0709 44.2774 48.2794 44.5793 48.4785C45.0092 48.8695 47.7948 51.0128 48.2035 51.0869C48.6439 51.5304 49.0769 51.9592 49.5276 52.3926C48.6781 53.7199 48.3677 54.4796 48.0127 56.0187C47.2525 56.0144 45.7713 55.9509 45.0826 56.1473C44.8659 56.9706 44.9328 60.2553 45.1575 61.1642C45.2522 61.5472 47.5231 61.3574 48.0447 61.3877C48.4278 62.8642 48.6898 63.56 49.4265 64.9096C48.8916 65.4477 47.8442 66.4581 47.4643 67.0382C47.8687 67.624 50.7159 70.5295 51.2941 70.9123C52.1434 70.288 52.7141 69.6271 53.4768 68.9612C55.0317 69.9691 55.2882 70.0942 57.1293 70.5937L57.1482 74.0052C56.1513 73.5978 53.8986 70.056 52.5596 70.787C52.5423 71.0037 53.1328 71.452 53.3198 71.6458C54.0695 72.4234 54.8363 73.1871 55.5857 73.9648C56.2142 74.5785 56.6082 75.1821 57.1344 75.7794C57.1573 77.7839 57.0872 79.8847 57.1316 81.8619L57.1149 87.3029L56.4857 87.3056C56.2242 86.7187 54.9895 84.8491 54.5872 84.3144C53.3438 82.6623 51.8046 81.0525 50.4284 79.5044C49.8576 78.8623 47.621 76.084 47.1385 75.8406L47.1784 75.7748C47.6667 75.6167 48.0481 74.9591 47.8615 74.4458C47.5063 74.1135 47.2866 74.3774 46.9849 74.6326C46.5083 74.1184 45.1248 72.4839 44.3639 72.9315C44.3062 73.2937 46.1605 74.9299 46.5173 75.214L46.501 75.2571C45.9479 75.7317 45.5652 76.2646 44.9011 76.6472C44.5468 76.4051 43.618 75.4062 43.246 75.034C42.3779 74.1377 41.3697 73.2162 40.5431 72.2976C39.2522 70.8634 42.2053 69.0924 42.9006 67.7717C42.6543 66.9327 42.1956 65.9919 41.8864 65.0671C41.5646 64.104 41.5513 62.986 41.1129 62.1591C41.0447 62.0304 40.7181 61.7501 40.5624 61.7216C39.3588 61.5016 37.9789 61.7117 36.7501 61.5662L36.6519 61.554C36.4007 61.3494 36.2345 61.1917 36.1529 60.8672C36.0488 60.4535 36.04 55.8321 36.0902 55.208C36.1073 54.9953 36.1313 54.6766 36.267 54.5045C36.7298 53.917 39.8452 54.4385 40.7581 54.2025C41.0458 54.1281 41.2475 53.9948 41.4097 53.7452C41.7336 53.2465 41.8443 52.5889 42.0143 52.0224C42.3138 51.0246 42.6424 49.9333 43.1633 49.0291C43.2958 48.6851 43.5329 48.2059 43.6909 47.8621ZM36.8695 55.1238C37.102 56.081 41.4577 60.7461 42.4014 61.5009C42.4919 61.506 42.5161 61.5135 42.605 61.5C42.6489 61.0057 41.9941 60.2136 41.6934 59.8829C40.9768 59.0948 37.5908 55.2265 36.8695 55.1238Z" fill="url(#paint2_linear_2289_680)"/>
<path d="M44.9351 47.8357C45.4357 48.1992 47.3652 49.7146 47.6016 50.1883C47.6849 50.4616 48.016 50.8106 48.2034 51.0869C47.7946 51.0128 45.0091 48.8695 44.5791 48.4785C45.0941 48.6858 45.5999 49.1791 45.8104 49.2261L45.9466 49.005C45.8895 48.48 45.2314 48.3742 44.9351 47.8357Z" fill="#95E0C1"/>
<path d="M94.8338 49.4803C94.5832 49.5511 94.3214 49.411 94.2413 49.1631C94.1613 48.9152 94.2916 48.6484 94.5363 48.5592C94.7029 48.4985 94.8894 48.5336 95.0224 48.6509C95.1554 48.7681 95.2137 48.9487 95.1744 49.1216C95.1351 49.2944 95.0045 49.432 94.8338 49.4803Z" fill="#95E0C1"/>
<path d="M26.7568 48.8729C27.6129 48.6956 28.5162 48.9119 29.2827 49.2982C29.2305 49.3501 28.654 50.1881 28.5986 50.2817C28.2451 49.8681 28.0673 49.8716 27.5453 49.9551C27.4297 49.7802 27.1553 49.6405 26.9677 49.5239C26.9017 49.2848 26.8418 49.106 26.7568 48.8729Z" fill="#FEFEFE" fill-opacity="0.811765"/>
<path d="M60.6716 68.3636C55.4309 68.8149 50.8117 64.9436 50.3399 59.7045C49.8681 54.4656 53.7212 49.8313 58.9583 49.339C64.2246 48.844 68.8902 52.7232 69.3647 57.9913C69.8391 63.2594 65.9415 67.9099 60.6716 68.3636Z" fill="url(#paint3_linear_2289_680)"/>
<path d="M27.5451 49.9551C28.0672 49.8716 28.245 49.868 28.5984 50.2817C28.4967 51.2551 26.9905 51.0288 27.5451 49.9551Z" fill="#A5EACA" fill-opacity="0.988235"/>
<path d="M36.404 50.6426L37.273 50.7593C36.931 50.8369 36.653 51.0128 36.4807 51.2817C36.0579 51.9422 36.7764 52.4554 36.8984 53.0107C36.9195 53.1068 36.8318 53.289 36.7197 53.3753L36.5648 53.378C36.2873 52.9789 36.3009 53.0521 35.8639 52.9725C35.5019 52.9066 35.0796 52.1609 34.8643 51.8479C34.9227 51.7365 35.089 51.7078 35.2425 51.6457C35.2457 51.2919 35.0293 51.4425 34.8821 51.2093C35.0846 50.998 35.45 50.808 35.7114 50.6527C35.9676 50.6592 36.1489 50.6607 36.404 50.6426Z" fill="#FEFEFE" fill-opacity="0.415686"/>
<path d="M37.2738 50.7593C37.6657 50.8066 38.1369 50.9355 38.4792 51.1329C38.4473 51.2458 38.4222 51.3568 38.4052 51.4729L38.3025 51.2294C38.1079 51.1664 37.8732 51.0818 37.6759 51.0447C37.1927 50.8659 36.9629 51.6894 36.83 52.0437C37.1465 52.4526 37.4422 52.7559 37.1919 53.2808C37.0526 53.3385 37.0313 53.3404 36.8819 53.3688L36.7204 53.3753C36.8326 53.289 36.9202 53.1068 36.8991 53.0107C36.7771 52.4553 36.0587 51.9422 36.4815 51.2817C36.6537 51.0128 36.9317 50.8369 37.2738 50.7593Z" fill="#FEFEFE" fill-opacity="0.670588"/>
<path d="M37.6759 51.0447C37.5018 51.1657 37.4209 51.579 37.0693 51.9619C37.2946 52.4055 37.4942 52.6617 37.4324 53.1268C37.7794 53.188 38.6431 53.1248 38.7715 53.1697C38.3914 53.2582 38.2155 53.2667 37.8277 53.2926C38.3215 53.3256 38.7694 53.3453 39.2642 53.3546L36.882 53.3688C37.0314 53.3404 37.0527 53.3385 37.192 53.2808C37.4423 52.7559 37.1466 52.4526 36.8301 52.0437C36.963 51.6894 37.1928 50.8659 37.6759 51.0447Z" fill="#FEFEFE" fill-opacity="0.713726"/>
<path d="M42.6056 61.4999C42.5167 61.5134 42.4925 61.5059 42.4021 61.5009C41.4584 60.7461 37.1026 56.081 36.8701 55.1238C37.5914 55.2264 40.9774 59.0948 41.694 59.8829C41.9947 60.2136 42.6496 61.0057 42.6056 61.4999Z" fill="#A5EACA"/>
<path d="M76.2908 75.7844C76.5937 75.3761 77.6451 74.0862 77.8945 73.8816C81.6809 70.7744 77.639 70.6442 76.5846 67.8224C76.4482 67.4575 77.6271 64.6815 78.0166 64.1495C77.9415 64.7052 76.8666 66.7121 76.6307 67.7072C76.9053 68.5008 77.722 69.2703 78.3043 69.8576C79.3528 70.9152 80.3743 71.6311 78.9377 72.9851C78.1044 73.7704 77.2333 74.7997 76.5049 75.6971C76.3726 75.8629 76.1353 76.0866 76.0375 76.2493L76.0014 76.2495C74.456 74.9239 72.8771 73.1048 71.3975 71.6754C70.8917 71.1868 70.0797 70.2596 69.5586 69.8715L69.8663 69.5397C72.0683 71.5345 74.222 73.6519 76.2908 75.7844Z" fill="#95E0C1"/>
<path d="M78.9373 64.2684C78.9583 64.2798 78.9793 64.291 79.0003 64.3024C79.7732 64.5935 80.4087 65.1357 81.1077 65.542C86.0697 68.426 90.3446 72.6155 93.8425 77.139C94.4335 77.9033 94.9609 78.7734 95.5024 79.5762C96.1174 80.496 97.327 82.3113 97.6954 83.3325C95.883 87.1875 92.3448 91.476 89.3364 94.5206C88.1927 95.6781 85.8568 97.0457 85.2709 98.296C84.8821 98.3568 82.2611 98.1444 81.616 98.1327C78.7036 98.0799 75.8087 97.9454 72.8932 97.9805C72.5911 97.9841 68.2295 97.957 68.1781 97.9364L68.2256 97.8321C67.8535 97.7736 66.962 97.8882 66.4648 97.8691L66.4757 97.7845C66.631 97.7093 66.766 97.6603 66.8592 97.519C67.1206 97.123 67.4643 96.6542 67.7819 96.3042C67.7947 96.424 67.8058 96.5109 67.8276 96.6294L67.9118 96.5457C67.9539 96.2631 67.9515 96.2296 67.7125 96.1289L68.1432 95.4508C69.1128 95.4076 72.4283 95.6229 73.0743 95.2246C73.228 95.1299 73.3613 94.9957 73.3839 94.8077C73.4121 94.5733 73.2514 94.3077 73.0945 94.1449C72.6902 93.7257 72.0032 93.8137 71.4748 93.8153C71.4806 93.3275 71.4738 92.8283 71.4728 92.3394C71.9011 92.3497 72.7132 92.4255 73.015 92.1521C73.7069 91.5257 73.0776 90.4712 72.1889 90.6238C72.0423 90.649 71.5733 90.6184 71.4264 90.6111C71.4432 90.3064 71.4288 89.9004 71.4256 89.5863L71.5549 89.6567C71.8346 89.6067 72.0669 89.5889 72.2403 89.3558L72.2139 89.2548C71.9329 89.1442 71.7141 89.1722 71.4259 89.2282L71.403 88.939C71.9548 88.9571 72.5613 89.0423 73.0386 88.6964C73.4179 88.4215 73.5091 87.9325 73.1393 87.5945C72.6979 87.1914 72.2595 87.2388 71.7014 87.2469C71.8495 85.1961 73.964 79.3166 75.42 78.0415L75.6559 77.7785C75.9584 77.3075 76.1753 76.9972 76.5215 76.5582C77.1728 75.9232 77.9313 74.9032 78.5496 74.3509C82.0957 71.1831 79.86 70.6522 77.5557 67.8395L77.5075 67.78C77.9439 66.6329 78.4664 65.4067 78.9373 64.2684ZM84.0922 72.4934C83.0369 72.8994 83.1302 74.0414 84.2926 73.9959C85.3252 73.6394 85.1586 72.6576 84.0922 72.4934ZM78.7975 81.2945C78.5519 81.7423 78.6525 82.3307 78.6798 82.861C78.1085 82.8646 77.6736 82.8197 77.1461 83.0524L77.0513 83.1648C77.2669 83.5461 78.2715 83.4559 78.6841 83.4479C78.6795 83.7443 78.5949 84.9115 78.792 85.1369C78.8158 85.164 78.927 85.2321 78.9643 85.2558C79.3955 84.8586 79.1977 84.0129 79.2085 83.4346C79.739 83.4479 80.2572 83.523 80.7128 83.2583L80.7502 83.1513C80.4397 82.811 79.6494 82.9086 79.2097 82.9199C79.2141 82.4865 79.305 81.6813 79.0819 81.3616C78.9457 81.313 78.9404 81.3088 78.7975 81.2945ZM71.4079 89.9966C71.5443 90.5911 71.9007 90.3921 72.4082 90.2676L72.4732 90.2514L72.4943 90.1493C72.2333 90.0066 71.7221 90.0078 71.4079 89.9966Z" fill="#EDFDF5"/>
<path d="M92.8092 68.4407C92.0052 68.4095 92.078 67.7908 92.4994 67.3129C93.1722 67.4704 93.4573 67.9791 92.8092 68.4407Z" fill="#95E0C1"/>
<path d="M66.2228 69.0605C66.9321 69.725 67.3135 70.4124 68.1834 70.785L72.995 75.6545C73.3725 76.0307 74.5784 77.2802 74.9529 77.5689C74.8182 77.9423 73.852 79.3419 73.5614 79.8357C72.0964 82.3261 71.453 84.4314 71.0027 87.245C70.7529 87.2546 70.3418 87.258 70.1069 87.2922L69.421 87.2988L69.4381 87.2581C69.591 87.2393 69.5207 87.2616 69.6503 87.1953C69.6409 87.0984 63.1635 80.1268 62.7418 79.8979L62.6337 79.9658C62.6496 79.1996 62.6351 78.3953 62.6318 77.626C62.6924 77.1875 62.6425 76.2165 62.6584 75.7366C62.7113 74.1473 62.5919 72.1837 62.7439 70.615C64.3284 70.1339 64.8456 69.9345 66.2228 69.0605Z" fill="url(#paint4_linear_2289_680)"/>
<path d="M68.5283 70.7187C68.9148 70.5252 69.2509 70.1726 69.5593 69.8715C70.0805 70.2596 70.8925 71.1868 71.3982 71.6754C72.8779 73.1048 74.4567 74.9239 76.0022 76.2495C75.6872 76.5671 75.3605 76.8998 75.1092 77.2727C73.9015 76.0184 72.6791 74.8209 71.4389 73.5999C70.4719 72.648 69.5402 71.624 68.5283 70.7187Z" fill="#DCEF9E"/>
<path d="M57.1347 75.7795C56.6085 75.1821 56.2146 74.5785 55.5861 73.9648C54.8367 73.1871 54.0698 72.4234 53.3201 71.6459C53.1331 71.4521 52.5426 71.0037 52.5599 70.787C53.8989 70.056 56.1516 73.5979 57.1485 74.0052L57.1498 75.3232L57.1347 75.7795Z" fill="#A5EACA"/>
<path d="M32.6739 72.7699C32.1726 72.8179 31.5039 72.8503 31.0332 72.6722L30.9473 72.58C31.1342 72.2311 32.2273 72.3103 32.6181 72.3124C32.6044 71.8434 32.5362 71.1399 32.7759 70.7512L32.8607 70.7395C33.1364 71.0733 33.073 71.9107 33.0716 72.3498C33.3979 72.3429 34.6668 72.2845 34.8554 72.4379L34.8906 72.5805C34.597 73.0032 33.5379 72.7611 33.0232 72.8911L32.995 72.917C32.8741 72.8744 32.7882 72.8266 32.6739 72.7699Z" fill="#87D2BE"/>
<path d="M68.1826 70.785L68.5275 70.7186C69.5394 71.6239 70.4711 72.6479 71.4381 73.5998C72.6783 74.8208 73.9007 76.0183 75.1084 77.2726L75.1441 77.3458C75.064 77.4297 75.0107 77.473 74.9522 77.5689C74.5777 77.2802 73.3718 76.0307 72.9942 75.6545L68.1826 70.785Z" fill="#83C328"/>
<path d="M84.2929 73.996C83.1305 74.0415 83.0372 72.8995 84.0925 72.4934C85.1589 72.6577 85.3255 73.6395 84.2929 73.996Z" fill="#FEFEFE"/>
<path d="M32.6743 72.7699C32.7886 72.8266 32.8745 72.8744 32.9954 72.917L33.0237 72.8911C33.0936 73.2606 33.1834 74.2114 32.8696 74.4774L32.7655 74.4364C32.5269 74.0271 32.6155 73.2485 32.6743 72.7699Z" fill="#95E0C1" fill-opacity="0.980392"/>
<path d="M46.518 75.214C46.1612 74.9299 44.3069 73.2937 44.3646 72.9315C45.1255 72.4838 46.509 74.1184 46.9856 74.6326L46.518 75.214Z" fill="#A6D1C4"/>
<path d="M57.8902 74.6723L57.9215 73.6571L61.89 73.6504C61.9314 74.594 61.8317 77.0303 61.9338 77.7442C61.9309 78.2139 61.924 78.6902 61.9301 79.1591C61.7946 78.9581 61.1487 78.3441 60.9491 78.1294C59.9951 77.1038 58.9782 76.0313 57.877 75.1585L57.8902 74.6723Z" fill="#A5EACA"/>
<path d="M46.9848 74.6326C47.2866 74.3774 47.5062 74.1135 47.8614 74.4458C48.0481 74.9591 47.6666 75.6167 47.1783 75.7748C47.0984 75.5824 46.6956 75.3723 46.501 75.2571L46.5173 75.214L46.9848 74.6326Z" fill="#87D2BE"/>
<path d="M57.2134 74.4813C57.4381 74.526 57.6701 74.6044 57.8905 74.6722L57.8772 75.1584C57.8701 76.1079 57.8846 77.0597 57.8951 78.0094C57.8201 79.2369 57.9194 80.6238 57.8783 81.8679L57.7934 81.0349C57.7263 81.4407 57.8801 83.0212 57.2516 83.0253C57.231 82.5687 57.2793 81.7649 57.2185 81.373L57.1323 81.8619C57.0878 79.8847 57.158 77.7839 57.1351 75.7794L57.1502 75.3232C57.1817 75.0677 57.195 74.7435 57.2134 74.4813Z" fill="#62AC9D"/>
<path d="M57.8769 75.1584C58.9781 76.0313 59.9951 77.1038 60.9491 78.1294C61.1487 78.3441 61.7946 78.958 61.9301 79.1591L61.9318 80.4592C61.6897 80.4164 61.1924 79.7899 60.9794 79.5892C59.9088 78.5799 58.9447 77.5384 57.9493 76.4615C57.9497 76.9085 57.9841 77.6056 57.8948 78.0094C57.8843 77.0597 57.8698 76.1079 57.8769 75.1584Z" fill="#CEF5EA"/>
<path d="M44.4199 77.4729C45.8331 77.6385 46.136 76.718 47.1384 75.8406C47.6209 76.084 49.8575 78.8623 50.4284 79.5044C51.8045 81.0525 53.3437 82.6623 54.5871 84.3144C54.9894 84.8491 56.2241 86.7187 56.4857 87.3056C55.6407 87.3025 48.7171 87.3602 48.5214 87.2681L48.4964 87.0216C48.1587 83.8377 46.2715 80.0673 44.4199 77.4729Z" fill="#A6D1C4"/>
<path d="M76.0014 76.2495L76.0375 76.2493C76.2015 76.3585 76.3511 76.4589 76.5212 76.5583C76.175 76.9973 75.9581 77.3076 75.6555 77.7786L75.1441 77.3459L75.1084 77.2727C75.3596 76.8998 75.6864 76.5671 76.0014 76.2495Z" fill="#C4E664"/>
<path d="M57.8952 78.0094C57.9845 77.6055 57.95 76.9085 57.9497 76.4614C58.9451 77.5384 59.9092 78.5798 60.9798 79.5892C61.1927 79.7899 61.6901 80.4164 61.9322 80.4592C61.9493 82.3192 61.9155 84.2021 61.8956 86.0639L61.8813 87.3038L57.8921 87.3062L57.8783 81.8679C57.9194 80.6238 57.8202 79.2369 57.8952 78.0094Z" fill="#A6D1C4"/>
<path d="M74.9531 77.5689C75.0116 77.473 75.0649 77.4297 75.1451 77.3458L75.6565 77.7785L75.4206 78.0414L74.9531 77.5689Z" fill="#83C328"/>
<path d="M74.9525 77.569L75.42 78.0415C73.964 79.3166 71.8495 85.1961 71.7014 87.2469C71.1744 87.2767 70.632 87.3204 70.1064 87.2922C70.3414 87.258 70.7525 87.2546 71.0022 87.245C71.4526 84.4315 72.0959 82.3261 73.561 79.8357C73.8515 79.3419 74.8177 77.9423 74.9525 77.569Z" fill="url(#paint5_linear_2289_680)"/>
<path d="M62.5785 79.4437C62.5777 78.999 62.5357 78.0129 62.6319 77.6261C62.6352 78.3954 62.6497 79.1997 62.6338 79.9659L62.648 81.059C62.652 81.7968 62.6396 82.6292 62.6732 83.358C62.6727 83.6211 62.6828 84.7728 62.6436 84.9854C62.3865 85.5506 62.7975 86.9071 62.3757 87.3075C61.8206 87.4391 62.0918 86.4934 61.8955 86.064C61.9154 84.2022 61.9492 82.3192 61.9321 80.4592L61.9303 79.1591C61.9242 78.6902 61.9311 78.2139 61.9339 77.7442C62.0609 78.0527 62.0058 79.0328 61.9996 79.4109L62.5785 79.4437Z" fill="#46928F"/>
<path d="M62.6338 79.9658L62.7418 79.8979C63.1636 80.1268 69.641 87.0984 69.6504 87.1953C69.5208 87.2617 69.5911 87.2393 69.4382 87.2581C69.1956 87.2222 68.5992 87.2406 68.3232 87.243C67.9605 86.6587 67.47 86.1854 67.0055 85.6834C65.6447 84.2133 64.2169 82.8152 62.7942 81.4065C62.6913 81.3045 62.6699 81.1949 62.648 81.0589L62.6338 79.9658Z" fill="#CEF5EA"/>
<path d="M57.1316 81.8619L57.2178 81.373C57.2786 81.7649 57.2304 82.5687 57.2509 83.0253C57.8795 83.0212 57.7256 81.4407 57.7927 81.0349L57.8776 81.8679L57.8914 87.3062L61.8806 87.3039L61.8949 86.0639C62.0912 86.4934 61.82 87.4391 62.3751 87.3075C62.7969 86.9071 62.3859 85.5505 62.643 84.9853C62.6984 85.7191 62.6797 86.565 62.6799 87.3116L66.708 87.3044L69.4204 87.2988L70.1063 87.2923C70.6319 87.3204 71.1743 87.2767 71.7013 87.2469C72.2594 87.2388 72.6978 87.1914 73.1391 87.5945C73.509 87.9325 73.4178 88.4215 73.0385 88.6964C72.5612 89.0423 71.9547 88.9571 71.4029 88.939L55.4643 88.9378L50.9026 88.9337C50.2075 88.933 49.1075 88.9008 48.4509 88.9612C48.0343 88.975 47.536 89.0177 47.1283 88.9355C46.8038 88.87 46.3137 88.1986 46.4736 87.8532C46.827 87.0899 48.0436 87.4291 48.453 87.2723L48.4965 87.0216L48.5214 87.2681C48.7171 87.3602 55.6408 87.3025 56.4857 87.3056L57.1149 87.3029L57.1316 81.8619Z" fill="#4BA3A0"/>
<path d="M62.6475 81.059C62.6694 81.1949 62.6908 81.3046 62.7937 81.4065C64.2164 82.8152 65.6442 84.2133 67.005 85.6834C67.4695 86.1854 67.96 86.6588 68.3227 87.2431C68.5987 87.2406 69.1951 87.2222 69.4377 87.2582L69.4205 87.2988L66.7081 87.3045C66.5402 87.037 66.2806 86.8474 66.0441 86.636C64.8764 85.5921 63.878 84.3604 62.6727 83.3579C62.6391 82.6292 62.6514 81.7968 62.6475 81.059Z" fill="#A5EACA"/>
<path d="M78.6802 82.8611C78.6529 82.3307 78.5523 81.7423 78.798 81.2946C78.9408 81.3089 78.9461 81.3131 79.0824 81.3617C79.3054 81.6814 79.2146 82.4866 79.2101 82.9199C79.6498 82.9087 80.4401 82.8111 80.7507 83.1514L80.7133 83.2584C80.2577 83.5231 79.7395 83.448 79.2089 83.4346C79.1982 84.0129 79.396 84.8587 78.9647 85.2558C78.9275 85.2322 78.8163 85.1641 78.7925 85.137C78.5954 84.9115 78.68 83.7444 78.6845 83.448C78.2719 83.456 77.2674 83.5462 77.0518 83.1649L77.1466 83.0525C77.674 82.8197 78.1089 82.8646 78.6802 82.8611Z" fill="#83C328"/>
<path d="M62.6731 83.3579C63.8785 84.3603 64.8768 85.5921 66.0446 86.636C66.2811 86.8474 66.5406 87.037 66.7086 87.3044L62.6805 87.3116C62.6802 86.565 62.699 85.7191 62.6436 84.9853C62.6827 84.7727 62.6726 83.621 62.6731 83.3579Z" fill="#A6D1C4"/>
<path d="M31.939 83.7649C31.8176 83.9437 31.6651 84.1062 31.6877 84.2969C31.8459 84.3811 31.9724 84.3628 32.1534 84.3644C32.0807 84.557 31.8955 84.6835 31.6897 84.6817C31.484 84.6798 31.3013 84.5498 31.2319 84.3561C31.1625 84.1624 31.2213 83.946 31.3793 83.8139C31.5372 83.6819 31.7605 83.6624 31.939 83.7649Z" fill="#A5EACA" fill-opacity="0.788235"/>
<path d="M32.1535 84.3644C31.9724 84.3628 31.846 84.3811 31.6878 84.2969C31.6652 84.1061 31.8176 83.9437 31.939 83.7649C32.148 83.885 32.2389 84.1391 32.1535 84.3644Z" fill="#A5EACA" fill-opacity="0.890196"/>
<path d="M48.4512 88.9613C49.1078 88.9008 50.2078 88.9331 50.9029 88.9338L55.4646 88.9379L71.4032 88.939L71.426 89.2283L71.4258 89.5864C71.4289 89.9004 71.4434 90.3065 71.4266 90.6112C68.4369 90.5129 65.3548 90.5937 62.358 90.5838C57.7268 90.5683 53.0866 90.5783 48.4561 90.6481C48.4883 90.1594 48.4583 89.4653 48.4512 88.9613Z" fill="#188088"/>
<path d="M71.426 89.2282C71.7143 89.1722 71.9331 89.1442 72.2141 89.2548L72.2405 89.3558C72.067 89.5889 71.8348 89.6067 71.555 89.6568L71.4258 89.5863L71.426 89.2282Z" fill="#FEFEFE" fill-opacity="0.929412"/>
<path d="M72.4734 90.2513L72.4085 90.2676C71.901 90.3921 71.5446 90.5911 71.4082 89.9966C71.7224 90.0078 72.2336 90.0065 72.4945 90.1493L72.4734 90.2513Z" fill="#FEFEFE" fill-opacity="0.517647"/>
<path d="M48.4558 90.648C53.0864 90.5782 57.7265 90.5682 62.3578 90.5837C65.3545 90.5937 68.4366 90.5128 71.4263 90.6111C71.5732 90.6184 72.0422 90.649 72.1888 90.6238C73.0775 90.4712 73.7068 91.5256 73.0149 92.1521C72.7131 92.4255 71.9009 92.3497 71.4727 92.3394C71.4737 92.8283 71.4805 93.3275 71.4747 93.8153C72.0031 93.8137 72.6901 93.7257 73.0944 94.1449C73.2513 94.3077 73.412 94.5733 73.3838 94.8077C73.3612 94.9957 73.2279 95.1299 73.0742 95.2246C72.4282 95.6229 69.1127 95.4076 68.1431 95.4508C67.3026 95.3795 65.9762 95.4227 65.1062 95.426L59.5061 95.4433L54.4718 95.4268C53.908 95.4259 52.3228 95.3983 51.8527 95.4835C50.5868 95.386 48.0597 95.6736 46.7724 95.3567C46.6024 95.2556 46.5243 94.9964 46.5229 94.834C46.5126 93.7106 47.6165 93.908 48.448 93.8805C51.0548 93.7846 54.1653 93.8627 56.8005 93.8632L71.4193 93.8646C71.4119 93.3262 71.4186 92.7784 71.42 92.2392C70.1557 92.1698 68.3582 92.2223 67.0596 92.2237L59.0379 92.2299L52.0734 92.2386C51.0685 92.2442 49.3868 92.2158 48.4201 92.3107C47.9879 92.3891 46.9869 92.4394 46.7439 92.0594C45.7429 90.4942 47.785 90.6237 48.4558 90.648Z" fill="#4BA3A0"/>
<path d="M48.4199 92.3107C49.3866 92.2158 51.0684 92.2442 52.0732 92.2386L59.0377 92.2299L67.0594 92.2237C68.3581 92.2223 70.1555 92.1698 71.4198 92.2392C71.4184 92.7784 71.4118 93.3262 71.4191 93.8646L56.8004 93.8632C54.1652 93.8627 51.0546 93.7845 48.4478 93.8805C48.468 93.3389 48.4431 92.8503 48.4199 92.3107Z" fill="#188088"/>
<path d="M51.8525 95.4835C52.3226 95.3983 53.9078 95.4259 54.4716 95.4268L59.5059 95.4433L65.106 95.426C65.976 95.4227 67.3024 95.3795 68.1429 95.4508L67.7122 96.1289C67.0545 96.9724 66.3517 97.7619 65.3982 98.2717C65.2121 98.371 63.9928 98.8541 64.0313 98.9576C64.2403 99.5204 64.2231 99.6328 64.7534 99.6759C64.4341 99.7292 64.1432 99.71 63.8197 99.7045C63.8404 99.4373 63.8143 99.24 63.791 98.9751C61.7912 99.3723 57.9864 99.4115 55.9795 98.8969C54.1302 98.4225 52.7663 97.1398 51.8525 95.4835Z" fill="#188088"/>
<path d="M64.7542 99.6759C64.224 99.6328 64.2412 99.5204 64.0321 98.9576C63.9937 98.8541 65.213 98.3711 65.3991 98.2717C66.3526 97.7619 67.0553 96.9724 67.7131 96.1289C67.9521 96.2296 67.9545 96.2631 67.9123 96.5457L67.8282 96.6294C67.8064 96.5109 67.7953 96.424 67.7825 96.3042C67.4649 96.6543 67.1212 97.123 66.8598 97.519C66.7666 97.6603 66.6316 97.7093 66.4763 97.7845L66.4654 97.8691C66.9625 97.8882 67.8541 97.7736 68.2262 97.8321L68.1787 97.9364C68.23 97.957 72.5916 97.9841 72.8937 97.9805C75.8093 97.9454 78.7041 98.08 81.6166 98.1327C82.2617 98.1444 84.8827 98.3568 85.2714 98.2961C86.4396 98.5917 87.8868 98.2807 89.4578 98.8354C85.5623 99.5136 81.4732 99.5082 77.5287 99.5861C73.6776 99.662 69.8314 99.8636 65.9801 99.6792C65.5928 99.6604 65.1398 99.658 64.7542 99.6759Z" fill="#FEFEFE"/>
<path d="M30.8506 98.9155C32.7303 98.4064 35.0417 98.526 36.9696 98.4153C41.0861 98.1793 45.1309 98.0921 49.2507 98.058C50.2952 98.0345 51.9842 97.8481 52.9567 98.2502C53.1276 98.3208 53.1423 98.6853 53.239 98.7203C53.7659 98.9107 54.0659 99.0534 54.5208 99.377C53.8141 99.4816 52.6975 99.6537 52.0021 99.6546C46.8754 99.662 41.6622 99.6487 36.5482 99.3631C35.716 99.2955 34.891 99.3178 34.0606 99.2337C32.9714 99.1234 31.9509 98.8979 30.8506 98.9155Z" fill="#FEFEFE" fill-opacity="0.988235"/>
<defs>
<linearGradient id="paint0_linear_2289_680" x1="90.1009" y1="32.5543" x2="46.8686" y2="74.1156" gradientUnits="userSpaceOnUse">
<stop stop-color="#D9E7E2"/>
<stop offset="1" stop-color="#FBFBF9"/>
</linearGradient>
<linearGradient id="paint1_linear_2289_680" x1="55.5247" y1="61.4425" x2="78.7097" y2="43.9675" gradientUnits="userSpaceOnUse">
<stop stop-color="#D8F194"/>
<stop offset="1" stop-color="#84BCCC"/>
</linearGradient>
<linearGradient id="paint2_linear_2289_680" x1="57.2267" y1="62.0439" x2="42.0419" y2="74.1889" gradientUnits="userSpaceOnUse">
<stop stop-color="#E2F39A"/>
<stop offset="1" stop-color="#81BEC1"/>
</linearGradient>
<linearGradient id="paint3_linear_2289_680" x1="50.4947" y1="57.0236" x2="69.0625" y2="60.5728" gradientUnits="userSpaceOnUse">
<stop stop-color="#FEFEFD" stop-opacity="0.941176"/>
<stop offset="1" stop-color="white"/>
</linearGradient>
<linearGradient id="paint4_linear_2289_680" x1="71.3539" y1="73.4338" x2="63.9761" y2="82.3935" gradientUnits="userSpaceOnUse">
<stop stop-color="#F2F98E"/>
<stop offset="1" stop-color="#9ED4B3"/>
</linearGradient>
<linearGradient id="paint5_linear_2289_680" x1="74.4693" y1="82.6607" x2="71.8161" y2="82.2545" gradientUnits="userSpaceOnUse">
<stop stop-color="#B6ED66"/>
<stop offset="1" stop-color="#73CBA6"/>
</linearGradient>
</defs>
</svg>
