<svg width="120" height="120" viewBox="0 0 120 120" fill="none" xmlns="http://www.w3.org/2000/svg">
<path d="M61.1082 28.2577C61.8057 28.1165 61.886 28.0981 62.5634 28.2795C62.2343 28.348 61.8267 28.5902 61.565 28.7991C61.9024 29.0041 62.2151 29.1306 62.3367 29.5047C62.2807 29.9747 61.7453 29.935 61.3788 30.219C60.9628 30.5416 60.926 31.2614 60.3805 31.2829C60.1226 31.097 59.7165 30.3783 59.5348 30.0838C59.0775 29.9953 58.7606 29.9504 58.602 29.4684C58.7216 29.3687 58.7408 29.3395 58.8466 29.2229C58.9385 28.8906 58.9765 28.7772 58.8432 28.469C58.6356 28.3601 58.7509 28.3887 58.4736 28.4428C59.3613 27.8333 58.9118 28.7343 59.1478 28.9971C59.9706 28.8925 59.966 27.6026 60.6449 27.7181C60.8766 27.8687 60.9544 28.0275 61.1082 28.2577Z" fill="#C5ED87"/>
<path d="M62.5635 28.2794C65.6343 27.8627 70.4674 30.7917 72.635 32.8305C72.9967 33.1707 73.4237 33.6006 73.8165 33.8888L73.7975 33.9953C73.5703 35.2306 72.7826 35.0971 74.2301 35.8415C74.608 36.6148 74.5917 36.8527 75.5059 36.7281C75.7269 36.9186 78.5018 39.7774 78.5849 39.9312L78.6299 39.9851C78.8619 40.2595 79.2435 40.683 79.5519 40.8562C79.6755 40.7858 79.9111 40.5345 79.9078 40.5351C80.4116 40.4299 81.1083 40.2767 81.602 40.1871C81.6532 40.311 81.6478 40.3024 81.6772 40.4326C81.842 40.5439 81.9922 40.5294 82.1948 40.5428C82.3044 40.6503 82.2982 40.6412 82.3377 40.7897C82.5696 40.8104 82.57 40.7692 82.7048 40.8955C82.6502 41.1834 80.9508 43.1365 80.6278 43.4527C75.094 48.8696 69.8256 54.5747 64.294 59.9897C62.2466 57.818 60.0705 55.6412 57.9245 53.5654L57.8964 53.4904C58.4651 51.4719 59.1814 49.4671 59.524 47.3919C59.8 45.7203 60.1563 43.5196 59.8608 41.8633C59.8226 41.649 59.9126 41.4581 59.7829 41.2662C59.7425 39.8738 59.5014 38.1024 59.0835 36.761C58.9943 36.4747 58.9283 36.3558 58.6821 36.2431C57.375 36.382 55.8352 36.8364 54.5992 37.2687C49.7639 38.9601 45.5505 41.8322 42.3449 45.8453C40.6766 47.9337 39.2244 50.4678 38.2478 52.9469C38.0237 53.5156 37.6205 54.4696 37.5061 55.0497C37.1193 56.2832 36.5475 58.657 36.4912 59.9593L36.438 59.9879C36.4283 59.9716 35.8972 57.573 35.848 57.3475C35.408 55.3326 34.7474 53.7382 34.0207 51.8364C33.7757 51.1952 32.5528 49.0421 32.5312 48.8078C32.7161 48.2876 33.1041 48.4885 33.4222 48.0553C33.9779 47.4389 36.105 46.2265 36.8198 45.6227C38.325 44.3511 39.7018 42.869 41.053 41.4387C41.3857 41.2055 42.3005 39.8104 42.4998 39.423C45.2715 35.5376 48.2257 32.0424 52.6602 29.9492C54.2418 29.2026 56.0227 28.3297 57.8164 28.6617C58.0618 28.7626 58.037 28.711 58.1784 28.8931C58.185 29.1004 58.1705 29.135 58.2991 29.3106C58.4223 29.3603 58.5189 29.3791 58.6021 29.4684C58.7607 29.9504 59.0776 29.9953 59.5349 30.0837C59.7166 30.3782 60.1227 31.0969 60.3806 31.2828C60.9261 31.2613 60.9629 30.5416 61.3789 30.219C61.7454 29.9349 62.2808 29.9746 62.3368 29.5046C62.2152 29.1305 61.9025 29.0041 61.5652 28.799C61.8268 28.5902 62.2344 28.348 62.5635 28.2794ZM65.6787 49.3075C65.23 50.1097 65.1677 49.9824 64.5403 50.54C64.7838 50.7178 65.7827 51.6546 65.8693 51.6849C66.1873 51.1702 66.3656 51.0308 66.8203 50.6349C66.877 50.5855 66.8398 50.4917 66.8265 50.4104C66.5569 50.0334 66.2007 49.9301 66.0116 49.5097C65.947 49.3661 65.8211 49.3307 65.6787 49.3075Z" fill="#FEFEFE"/>
<path d="M57.8164 28.6617C58.0914 28.6064 58.2153 28.5481 58.4737 28.4428C58.751 28.3887 58.6357 28.3601 58.8433 28.469C58.9766 28.7772 58.9386 28.8906 58.8467 29.223C58.7409 29.3396 58.7217 29.3687 58.602 29.4685C58.5188 29.3792 58.4223 29.3604 58.2991 29.3107C58.1704 29.1351 58.185 29.1005 58.1784 28.8932C58.037 28.7111 58.0618 28.7626 57.8164 28.6617Z" fill="#EDFDF5" fill-opacity="0.933333"/>
<path d="M73.8163 33.8888C73.9839 34.0089 74.0609 34.0931 74.204 34.2369C74.4915 34.0825 74.4981 33.5595 74.9641 33.5026C75.1152 33.559 75.0907 33.5138 75.1509 33.6145C75.3317 33.9173 75.407 34.0215 75.6683 34.3032C75.9073 34.561 76.3404 34.8485 76.581 35.111C76.574 35.1795 76.567 35.2482 76.5599 35.3169C76.3155 35.6264 75.9878 35.5987 75.6493 35.8053C75.496 36.0456 75.2982 36.2941 75.2669 36.5648L75.3129 36.6703L75.5057 36.7281C74.5915 36.8527 74.6078 36.6148 74.2299 35.8415C72.7824 35.0971 73.5701 35.2306 73.7973 33.9953L73.8163 33.8888Z" fill="#A1D269"/>
<path d="M37.5062 55.0498C37.6205 54.4697 38.0238 53.5157 38.2478 52.947C39.2245 50.4679 40.6767 47.9338 42.345 45.8454C45.5506 41.8323 49.764 38.9602 54.5993 37.2688C55.8352 36.8365 57.3751 36.382 58.6822 36.2432L58.608 36.3176C56.8299 37.7905 54.0629 41.0314 52.6572 42.8142L51.1514 44.733C50.996 44.932 50.6407 45.4259 50.4841 45.5773C50.664 44.6708 51.5829 39.7186 51.5015 39.1235C51.0996 39.3504 50.1611 45.3647 49.9509 46.1829C49.7843 46.6293 49.1978 47.3109 48.8947 47.7204C48.4305 48.3473 47.977 48.938 47.6261 49.6471C49.0271 48.995 50.3531 48.3918 51.7371 47.7001C52.7377 47.2 54.3042 46.3445 55.3025 45.9627C55.5424 46.3621 55.7127 46.7885 55.8965 47.2164C53.2264 48.5384 50.4829 49.8348 47.9136 51.3336C47.7212 51.4458 46.7714 52.9547 46.6003 53.2089C44.2129 56.7563 42.2095 60.536 39.9976 64.1896C39.4082 65.1629 38.6962 66.1147 38.0953 67.0873C37.7437 67.6438 37.1462 68.232 36.8982 68.8248L36.708 68.9346C36.8844 68.405 37.9396 66.7618 38.28 66.0859C39.8312 63.0047 41.264 59.9305 42.8988 56.8895C43.1026 56.4943 43.2166 56.2656 43.3668 55.8509C43.1279 55.2545 41.3546 51.3213 41.0449 51.137L40.9237 51.22C40.8804 51.3219 40.8409 51.4432 40.8869 51.5518C41.3192 52.5718 41.6809 53.6072 42.0492 54.6524C42.1025 55.0979 42.3266 55.5512 42.3134 55.9234C42.1048 55.9554 41.6098 56.0285 41.4191 56.0153C40.6644 55.9628 38.1075 55.7764 37.5655 55.4027C37.5164 55.2322 37.5139 55.2264 37.5062 55.0498Z" fill="#C5ED87"/>
<path d="M58.6827 36.2432C58.9289 36.3559 58.9949 36.4747 59.0841 36.761C59.502 38.1025 59.7431 39.8739 59.7834 41.2663C59.8086 45.461 59.2072 49.316 57.4048 53.1425L56.5132 54.8871L56.2814 55.3064C53.0583 60.5527 47.7841 64.0889 42.397 66.8525L39.0938 68.5127C38.5266 68.7936 37.6133 69.2137 37.0977 69.5302C37.1057 70.3628 37.0821 71.4817 37.1318 72.2902C37.164 74.2605 37.1578 76.2382 37.1602 78.2094C37.0166 82.3806 37.2178 86.9711 37.2 91.1728L41.5502 91.172L48.9677 91.1723C51.9872 91.2036 55.042 91.1776 58.0638 91.1734L66.261 91.1652L72.0829 91.1552C73.0746 91.1553 74.2604 91.1243 75.2387 91.164L80.2075 91.1702C81.1042 91.1709 82.2048 91.1971 83.0865 91.1559C86.0195 91.1196 89.4659 91.0992 92.3944 91.166L96.8234 91.1742C97.7954 91.1737 98.8777 91.2681 99.798 90.9675C99.943 90.5904 99.9863 90.3328 100.226 89.9985C100.293 90.5009 100.28 90.5932 100.438 91.1152C101.17 91.4193 103.128 90.7545 103.505 91.6085C103.478 92.0919 103.257 92.3358 102.748 92.3551C101.981 92.3842 101.202 92.3387 100.432 92.3394L95.559 92.3551C95.2778 92.3541 93.9609 92.3332 93.798 92.3721C93.5126 92.4026 92.4766 92.3688 92.1281 92.3672L88.3332 92.3585L75.6239 92.3565L44.8679 92.3796L37.6947 92.3807C35.0593 92.3619 32.3116 92.3173 29.679 92.3952C29.4088 92.3525 28.7494 92.3796 28.4721 92.3918L22.9038 92.4035C22.5819 92.2291 20.2018 92.441 19.6853 92.3584C19.2888 92.2951 18.7174 92.117 19.0014 91.5156C19.3207 90.8392 20.2959 91.3515 20.9225 91.0439C20.9528 91.0737 20.983 91.1033 21.0134 91.133C24.4574 91.1981 28.0039 91.1497 31.4397 91.1769C32.5315 91.2627 34.6553 91.2137 35.7988 91.19L35.8036 79.9807L35.8137 72.9153C35.7547 72.0455 35.7991 70.412 35.7964 69.4891C35.0291 69.0935 34.2101 68.7415 33.4311 68.3587C28.9968 66.1802 24.5736 63.686 20.9618 60.2727C20.4895 59.8264 20.0419 59.2884 19.5504 58.8751L19.4653 58.9403C19.3695 58.5748 18.0086 57.1186 17.6561 56.6501C14.7327 52.7636 13.078 48.1465 13.0601 43.2691C13.0573 42.5295 13.0639 41.7827 13.1348 41.0462C13.2023 40.3443 13.791 36.8926 14.1881 36.5518C14.2588 36.4913 14.3457 36.5179 14.4333 36.519C14.532 36.671 14.6093 36.7954 14.7253 36.9366C14.2373 38.5737 13.9655 42.0519 14.0223 43.811C14.37 54.5695 22.6883 61.9677 31.5552 66.6865C33.0635 67.4891 34.7643 68.1923 36.2174 69.0028L36.368 69.0281C36.425 69.0048 36.6369 68.9537 36.7085 68.9346L36.8987 68.8248C38.255 68.2698 39.9565 67.3555 41.289 66.697C41.4997 66.5155 42.3991 66.1059 42.6841 65.9508C46.7122 63.7593 51.2224 60.7372 54.0884 57.1155C57.8539 52.3569 59.3178 45.8525 58.9841 39.8896C58.9158 38.6673 58.7675 37.5243 58.6085 36.3176L58.6827 36.2432Z" fill="url(#paint0_linear_2289_738)"/>
<path d="M40.2646 38.5756C40.0173 38.6248 40.0037 38.6349 39.7803 38.7604C39.4503 38.9063 39.3746 38.9722 39.1759 39.2829C38.525 39.4504 38.3762 39.042 37.9181 39.3106C37.5895 38.6629 36.762 38.6318 36.7109 38.0664C36.8929 37.6802 37.3145 37.5736 37.7184 37.3995C37.9418 36.9681 38.212 36.2306 38.7821 36.3418C39.0646 36.5484 39.0866 36.9251 39.3996 37.2294C39.7487 37.5689 40.3051 37.7708 40.5433 38.1759C40.5016 38.3612 40.409 38.4108 40.2646 38.5756Z" fill="#C5ED87" fill-opacity="0.933333"/>
<path d="M50.4843 45.5773C50.6409 45.4259 50.9962 44.9321 51.1516 44.7331L52.6575 42.8143C54.0631 41.0315 56.8302 37.7906 58.6082 36.3176C58.7673 37.5243 58.9155 38.6674 58.9838 39.8896C59.3176 45.8526 57.8537 52.357 54.0881 57.1156C51.2221 60.7373 46.712 63.7593 42.6839 65.9508C42.3989 66.106 41.4995 66.5156 41.2888 66.6971C39.9562 67.3556 38.2548 68.2699 36.8984 68.8249C37.1464 68.232 37.7439 67.6438 38.0955 67.0873C38.6964 66.1148 39.4085 65.163 39.9978 64.1896C42.2097 60.5361 44.2132 56.7563 46.6005 53.2089C46.7716 52.9547 47.7214 51.4458 47.9138 51.3337C50.4832 49.8349 53.2266 48.5384 55.8968 47.2164C55.7129 46.7886 55.5426 46.3621 55.3027 45.9627C54.3044 46.3445 52.738 47.2 51.7373 47.7002C50.3533 48.3918 49.0273 48.9951 47.6264 49.6471C47.9772 48.938 48.4307 48.3474 48.8949 47.7204C49.1981 47.311 49.7845 46.6293 49.9511 46.1829C49.996 46.1869 50.0408 46.1909 50.0857 46.195C50.2929 46.0166 50.3609 45.8241 50.4843 45.5773Z" fill="#A1D269"/>
<path d="M14.4326 36.519C15.6441 36.8031 16.8534 36.9828 18.0488 37.3545C23.6266 39.0886 28.2798 42.8015 31.6403 47.5289C31.885 47.8731 33.1633 47.247 33.4222 48.0553C33.104 48.4886 32.716 48.2877 32.5312 48.8079C32.5527 49.0422 33.7756 51.1953 34.0206 51.8365C34.7473 53.7382 35.4079 55.3327 35.8479 57.3476C35.8971 57.5731 36.4282 59.9717 36.438 59.988L36.4912 59.9594C36.1811 62.1065 36.3713 65.05 36.3361 67.2494C36.3317 67.5287 36.33 68.8485 36.3673 69.0281L36.2167 69.0028C35.9561 67.6014 34.4182 64.8007 33.7451 63.5085C31.7627 59.7025 29.6922 55.9002 27.2786 52.3491C26.9049 51.7992 26.4329 50.9356 26.0072 50.4601C26.0114 48.3061 25.9746 46.2265 26.1575 44.0765C25.5138 45.4169 25.2617 47.5143 25.0506 49.0092C24.2903 47.6939 22.6146 45.5978 21.6548 44.4286C20.7085 43.393 20.8205 43.1556 20.5322 41.8017C20.4471 42.2442 20.4119 42.5174 20.373 42.9671C19.5407 41.7947 18.3843 40.5783 17.3809 39.5418C16.4864 38.6175 15.6975 37.7747 14.7246 36.9366C14.6086 36.7954 14.5313 36.671 14.4326 36.519Z" fill="#C5ED87"/>
<path d="M14.7251 36.9365C15.698 37.7746 16.4869 38.6175 17.3814 39.5417C18.3847 40.5782 19.5412 41.7947 20.3734 42.967C20.4619 43.5605 20.7164 44.5075 20.9287 45.0576L21.6552 44.4286C22.6151 45.5977 24.2908 47.6939 25.0511 49.0092C25.1426 49.3217 25.7524 50.2539 26.0077 50.4601C26.4333 50.9355 26.9053 51.7992 27.279 52.349C29.6926 55.9002 31.7631 59.7024 33.7456 63.5084C34.4187 64.8007 35.9565 67.6013 36.2172 69.0028C34.764 68.1923 33.0633 67.4891 31.555 66.6864C22.6881 61.9677 14.3698 54.5695 14.0221 43.811C13.9653 42.0519 14.2371 38.5736 14.7251 36.9365ZM20.1526 45.553C19.8455 46.4384 19.841 46.3994 18.906 46.5874C19.4422 46.7739 19.7059 46.8119 20.0012 47.3377C20.0573 47.4375 20.164 47.6439 20.2383 47.7155C20.5776 47.0094 20.7151 46.8644 21.5155 46.7509C20.446 46.4069 20.7069 46.1381 20.1526 45.553Z" fill="#A1D269"/>
<path d="M78.5852 39.9312L78.703 39.8097C79.5561 39.8609 80.271 39.7283 81.1189 39.8407C81.6953 39.9171 82.2166 39.5415 82.7619 39.4019C83.5506 39.3097 86.6024 38.1103 87.2075 38.1815C87.2234 38.2748 86.0556 43.4881 85.9586 43.7601C86.1471 44.2569 86.7427 46.093 86.9367 46.3982C86.9077 46.3961 86.8787 46.394 86.8496 46.3919C85.8448 46.1387 85.898 45.1284 85.9759 44.3063C85.9792 44.2723 85.8629 44.0847 85.8336 44.0464C85.7809 43.9678 85.7871 43.7042 85.7843 43.5941C85.7482 43.5246 84.7762 42.4216 84.7803 42.4234C84.5496 42.6528 84.313 42.8689 84.0803 43.094C80.3917 46.6619 76.8376 50.5375 73.2289 54.1775L68.3128 59.2211C67.7749 59.7704 66.2822 61.1971 65.8629 61.7068C65.4565 62.142 65.1 62.5713 64.4692 62.6629C63.7413 62.7853 63.3002 62.2384 62.8353 61.7593C61.4815 60.3644 60.1391 58.945 58.7368 57.5966C58.2408 57.1196 57.7234 56.5691 57.1828 56.1455L57.1172 56.0947L57.118 56.0587L57.2378 55.6969C57.4734 55.2636 57.9006 54.051 57.9248 53.5654C60.0709 55.6412 62.247 57.818 64.2943 59.9898C69.8259 54.5748 75.0943 48.8696 80.6282 43.4527C80.9511 43.1366 82.6506 41.1834 82.7052 40.8955C82.5703 40.7693 82.57 40.8104 82.3381 40.7898C82.2986 40.6412 82.3048 40.6503 82.1952 40.5428C81.9926 40.5294 81.8423 40.5439 81.6776 40.4326C81.6482 40.3024 81.6536 40.311 81.6023 40.1871C81.1086 40.2767 80.412 40.4299 79.9082 40.5351C79.9114 40.5345 79.6759 40.7858 79.5523 40.8562C79.2438 40.683 78.8623 40.2595 78.6302 39.9851L78.5852 39.9312Z" fill="#CEF5EA"/>
<path d="M39.7801 38.7604C40.0035 38.6349 40.0171 38.6248 40.2645 38.5756L40.3246 38.5715C40.2976 38.5735 40.5438 38.5553 40.5082 38.5523C41.3453 38.6225 42.6512 38.0273 42.4996 39.4231C42.3002 39.8105 41.3855 41.2056 41.0528 41.4388C40.894 41.4519 40.84 41.471 40.687 41.5082L40.4461 41.0166C39.7939 40.8933 39.8989 40.8108 39.6104 40.2605C39.4717 39.9958 39.3496 39.7463 39.2432 39.4646C39.3464 39.3228 39.7368 38.8627 39.7801 38.7604Z" fill="#EDFDF5" fill-opacity="0.415686"/>
<path d="M39.1755 39.2829C39.3743 38.9722 39.45 38.9063 39.78 38.7604C39.7366 38.8627 39.3463 39.3228 39.243 39.4646C39.3495 39.7463 39.4716 39.9958 39.6103 40.2605C39.8988 40.8108 39.7938 40.8933 40.446 41.0166L40.6869 41.5082L40.4023 41.5879C39.5086 41.841 39.5732 41.6386 39.0914 41.0377L39.0374 40.9712C39.0302 40.3684 39.3615 40.2814 38.9854 39.7021L39.1755 39.2829Z" fill="#EDFDF5" fill-opacity="0.258824"/>
<path d="M49.9512 46.1829C50.1614 45.3647 51.0998 39.3504 51.5018 39.1235C51.5831 39.7186 50.6643 44.6708 50.4844 45.5773C50.361 45.8241 50.2929 46.0166 50.0857 46.195C50.0408 46.1909 49.9961 46.1869 49.9512 46.1829Z" fill="#83C328"/>
<path d="M37.918 39.3105C38.3761 39.0419 38.5249 39.4503 39.1757 39.2829L38.9855 39.7021C38.8713 39.8497 38.7757 39.945 38.7068 40.1137C38.1855 40.042 38.1102 39.7295 37.918 39.3105Z" fill="#C5ED87" fill-opacity="0.988235"/>
<path d="M38.707 40.1137C38.7759 39.945 38.8716 39.8497 38.9858 39.702C39.362 40.2813 39.0307 40.3684 39.0379 40.9712C38.8378 40.6514 38.7953 40.2186 38.707 40.1137Z" fill="#EDFDF5" fill-opacity="0.2"/>
<path d="M59.783 41.2662C59.9127 41.4581 59.8227 41.649 59.8609 41.8633C60.1564 43.5196 59.8001 45.7203 59.5241 47.3919C59.1816 49.4671 58.4652 51.4719 57.8965 53.4904C57.6988 53.2612 57.685 53.2407 57.4043 53.1425C59.2068 49.316 59.8082 45.461 59.783 41.2662Z" fill="#CEF5EA"/>
<path d="M20.373 42.9671C20.412 42.5174 20.4472 42.2443 20.5323 41.8018C20.8206 43.1556 20.7086 43.393 21.6548 44.4286L20.9283 45.0577C20.7161 44.5076 20.4615 43.5606 20.373 42.9671Z" fill="#83C328"/>
<path d="M65.8623 61.7068C66.2816 61.1971 67.7743 59.7704 68.3122 59.2211L73.2284 54.1775C76.837 50.5375 80.3911 46.6619 84.0797 43.094C84.3124 42.8689 84.549 42.6528 84.7798 42.4233C84.7757 42.4216 85.7476 43.5246 85.7837 43.594C85.7865 43.7042 85.7803 43.9678 85.833 44.0464C85.8623 44.0847 85.9786 44.2723 85.9753 44.3063C85.8974 45.1284 85.8442 46.1387 86.8491 46.3919C86.8781 46.394 86.9071 46.3961 86.9361 46.3982C88.3023 47.7295 90.6014 48.5751 92.1136 49.7159C93.3236 50.6289 95.5364 52.5751 96.3115 53.8659C96.2951 53.8386 96.2955 54.2897 96.3112 54.3691C96.5401 54.8865 96.7754 54.8977 97.3247 55.1146C97.5891 55.564 97.7118 56.0126 98.1449 56.1689L98.3413 56.1469C98.5971 56.1364 98.8365 56.1374 99.0867 56.0844C99.7198 56.8198 100.453 57.5174 101.017 58.2938C104.758 63.4383 106.347 69.2328 105.929 75.5486C105.625 80.1499 104.089 83.6184 101.838 87.5588C101.435 88.263 100.498 89.4652 100.226 89.9984C99.9854 90.3328 99.9422 90.5903 99.7972 90.9674C98.8768 91.268 97.7946 91.1737 96.8225 91.1742L92.3936 91.166C92.3534 89.8379 92.3865 88.3638 92.3859 87.018L92.3965 78.4506L92.4137 51.8581C92.3466 51.7518 92.2832 51.6493 92.2189 51.5411C92.2998 51.3672 92.4495 51.228 92.5814 51.0837L92.5568 51.0026C92.3967 51.0242 92.1273 51.1348 91.9653 51.1929C91.1536 50.9232 90.8692 50.9855 90.0511 51.0399C88.2207 51.1578 86.3568 51.0134 84.5282 51.1299C83.8651 51.1721 83.2162 51.6221 83.1811 52.3181C83.1255 53.4209 83.1493 54.5567 83.1504 55.6617L83.1439 62.1771L83.1302 84.7679L83.1386 89.0907C83.1401 89.5964 83.1942 90.6637 83.0978 91.1118C81.171 91.0719 79.0804 91.12 77.1294 91.1082C76.977 87.6681 76.8698 84.1858 76.6485 80.7522C76.5326 78.9529 76.1546 77.0137 75.8994 75.2235C75.76 74.2457 75.6485 72.8808 75.3321 71.9841C75.352 71.7947 75.3414 71.5001 75.3336 71.3083C75.2671 69.6651 75.2191 67.9767 75.2412 66.3366C75.2503 65.6513 74.7676 64.9865 74.088 64.9168C72.7596 64.7806 71.316 64.9103 69.9738 64.8714C69.208 64.8567 68.3869 64.8635 67.6332 64.9157C67.1427 63.7525 66.5719 62.7489 65.8623 61.7068ZM79.0302 68.3452C78.8965 68.641 78.761 68.9357 78.6376 69.236C78.3894 69.3394 77.9659 69.4654 77.8805 69.7369C78.2854 70.181 78.6449 70.3408 79.0457 70.8558C79.2083 70.9107 79.131 70.918 79.2824 70.8663L79.68 70.1852C79.9335 70.0894 80.2191 70.0067 80.4231 69.839C80.4989 69.4709 79.9623 69.4301 79.7413 69.2348C79.481 69.0049 79.3436 68.4865 79.0302 68.3452ZM97.0573 75.3726C96.9264 75.6008 96.8073 75.7972 96.7018 76.0394C96.4335 76.1252 96.1506 76.2104 95.8861 76.3034C96.1583 76.4419 96.4365 76.5894 96.7143 76.7145C96.8556 77.0294 96.9225 77.1781 97.1902 77.404C97.2607 77.2001 97.3441 76.9337 97.4293 76.7412L98.2945 76.2921L97.4293 76.0843C97.3574 75.8321 97.3125 75.4777 97.0573 75.3726Z" fill="#FEFEFE"/>
<path d="M25.0508 49.0092C25.2618 47.5142 25.5139 45.4168 26.1576 44.0764C25.9748 46.2265 26.0116 48.3061 26.0074 50.4601C25.7521 50.254 25.1423 49.3217 25.0508 49.0092Z" fill="#83C328"/>
<path d="M18.9053 46.5874C19.8403 46.3994 19.8448 46.4384 20.1519 45.553C20.7062 46.1381 20.4452 46.4069 21.5148 46.7509C20.7144 46.8644 20.5768 47.0094 20.2376 47.7156C20.1633 47.644 20.0565 47.4375 20.0005 47.3377C19.7052 46.8119 19.4415 46.774 18.9053 46.5874Z" fill="#C5ED87"/>
<path d="M64.54 50.5401C65.1675 49.9825 65.2297 50.1098 65.6784 49.3076C65.8208 49.3308 65.9468 49.3662 66.0113 49.5098C66.2005 49.9302 66.5566 50.0335 66.8263 50.4105C66.8395 50.4918 66.8768 50.5855 66.82 50.635C66.3654 51.0309 66.187 51.1703 65.8691 51.685C65.7825 51.6547 64.7836 50.7179 64.54 50.5401Z" fill="#ECC82F"/>
<path d="M83.098 91.1119C83.1945 90.6638 83.1403 89.5964 83.1388 89.0908L83.1305 84.7679L83.1442 62.1771L83.1506 55.6617C83.1496 54.5568 83.1258 53.421 83.1813 52.3181C83.2165 51.6222 83.8654 51.1722 84.5284 51.13C86.357 51.0135 88.221 51.1579 90.0513 51.04C90.8694 50.9856 91.1538 50.9233 91.9656 51.193C92.1275 51.1349 92.397 51.0243 92.557 51.0027L92.5816 51.0838C92.4497 51.2281 92.3 51.3673 92.2192 51.5412C92.2834 51.6493 92.3468 51.7519 92.4139 51.8582L92.3967 78.4507L92.3862 87.0181C92.3868 88.3638 92.3536 89.8379 92.3938 91.166C89.4653 91.0992 86.0189 91.1196 83.0859 91.156L83.098 91.1119Z" fill="url(#paint1_linear_2289_738)"/>
<path d="M42.0491 54.6524C41.6808 53.6072 41.3191 52.5718 40.8868 51.5518C40.8408 51.4432 40.8803 51.3219 40.9236 51.2199L41.0448 51.137C41.3545 51.3213 43.1278 55.2545 43.3667 55.8508C43.2165 56.2656 43.1025 56.4943 42.8987 56.8895C42.7887 56.7978 42.2076 54.9967 42.0491 54.6524Z" fill="#83C328"/>
<path d="M96.3115 54.3692C96.7743 54.0062 96.9111 53.9486 97.4864 53.8234C97.6179 53.4455 97.6943 53.0449 98.0253 52.8372C98.4725 52.841 98.6266 53.4349 98.7813 53.796C99.1495 53.9992 99.5957 54.1228 99.7083 54.4921C99.5713 54.8804 99.0783 54.9873 98.7079 55.1331C98.5971 55.5471 98.5104 55.7503 98.3416 56.147L98.1452 56.1689C97.712 56.0127 97.5893 55.5641 97.325 55.1147C96.7757 54.8978 96.5404 54.8865 96.3115 54.3692Z" fill="#A1D269"/>
<path d="M56.513 54.8871L57.4046 53.1426C57.6853 53.2408 57.6991 53.2613 57.8968 53.4905L57.9249 53.5655C57.9007 54.0511 57.4735 55.2637 57.2379 55.697L57.1181 56.0588C56.8358 55.8138 56.5583 55.5579 56.2812 55.3064L56.513 54.8871Z" fill="#87D2BE"/>
<path d="M42.0494 54.6523C42.208 54.9966 42.789 56.7978 42.899 56.8895C41.2643 59.9305 39.8314 63.0046 38.2802 66.0859C37.9399 66.7618 36.8846 68.405 36.7082 68.9346C36.6366 68.9537 36.4248 69.0048 36.3677 69.0281C36.3304 68.8484 36.3321 67.5287 36.3365 67.2493C36.3717 65.0499 36.1815 62.1064 36.4916 59.9593C36.5478 58.657 37.1196 56.2832 37.5064 55.0497C37.5141 55.2263 37.5166 55.2322 37.5657 55.4027C38.1077 55.7764 40.6646 55.9627 41.4193 56.0152C41.6101 56.0285 42.1051 55.9554 42.3137 55.9234C42.3268 55.5512 42.1027 55.0979 42.0494 54.6523Z" fill="#A1D269"/>
<path d="M37.0977 69.5301C37.6133 69.2137 38.5265 68.7936 39.0937 68.5127L42.397 66.8525C47.7841 64.0889 53.0582 60.5526 56.2814 55.3064C56.5584 55.5579 56.8359 55.8137 57.1182 56.0587L57.1174 56.0947C56.8119 56.5117 56.6489 57.0325 56.3827 57.4662C55.7517 58.4948 55.1236 59.5403 54.3535 60.4723C50.6214 64.8676 45.7139 67.9523 40.6616 70.6101C39.703 71.1144 38.0752 71.9634 37.1318 72.2901C37.0821 71.4817 37.1056 70.3628 37.0977 69.5301Z" fill="#CEF5EA"/>
<path d="M37.1309 72.2902C38.0743 71.9634 39.7021 71.1144 40.6607 70.6102C45.713 67.9523 50.6205 64.8676 54.3526 60.4723C55.1227 59.5403 55.7508 58.4948 56.3818 57.4662C56.648 57.0325 56.811 56.5117 57.1165 56.0947L57.1821 56.1456C57.7227 56.5691 58.2401 57.1196 58.7361 57.5966C60.1384 58.9451 61.4808 60.3645 62.8346 61.7593C63.2995 62.2384 63.7406 62.7853 64.4685 62.663C65.0993 62.5713 65.4558 62.1421 65.8622 61.7068C66.5718 62.749 67.1426 63.7526 67.6331 64.9158C66.4339 65.1904 66.2665 65.9429 66.2455 67.0194C66.2255 68.0517 66.2631 69.0757 66.2666 70.1071L66.2632 76.2282L66.2507 80.9706C66.2508 81.4544 66.2232 82.7521 66.2712 83.1783C66.1954 85.8144 66.334 88.545 66.26 91.1652L58.0629 91.1734C58.0123 89.5576 58.0541 87.7138 58.0547 86.0849L58.0461 77.3804C58.0459 75.6478 58.0609 73.9168 58.0268 72.1834C58.0059 71.1272 57.53 70.6538 56.4291 70.6692C54.3636 70.6983 52.3037 70.6485 50.2406 70.6584C49.9917 70.6597 49.4763 70.8482 49.288 71.0554C48.8462 71.7516 48.9656 73.4321 48.963 74.195L48.951 77.9046L48.9668 91.1723L41.5493 91.172C41.4683 87.8037 41.6474 84.309 41.4837 80.9351C41.4184 80.5341 40.9835 80.0872 40.5968 80.0085C40.0369 79.8946 39.4963 79.956 38.9341 79.9651C38.3469 79.9747 37.7647 79.9815 37.1796 79.9834C37.1857 79.3925 37.2021 78.7984 37.1592 78.2094C37.1569 76.2382 37.1631 74.2605 37.1309 72.2902ZM54.401 63.7392C54.0864 64.119 53.6379 64.6887 53.2287 64.9489L53.0379 65.09L52.8754 65.1831C52.8703 65.1709 54.2437 66.5752 54.4049 66.7652C54.8215 66.2804 55.3612 65.6464 55.8581 65.2614L55.8825 65.1661L55.713 64.9959C55.2914 64.5817 54.8988 64.2079 54.5201 63.7509L54.4768 63.6914L54.401 63.7392ZM44.3684 72.8626L43.9746 72.3727C43.4871 73.1172 43.0755 73.4169 42.3689 73.9672C42.9589 74.5165 43.4398 74.9552 43.9288 75.6055L43.9501 75.6561L44.0291 75.6586C44.4871 75.0389 45.0564 74.5206 45.6151 73.9934C45.5133 73.8206 45.4462 73.8252 45.2459 73.706C44.9217 73.4146 44.6714 73.1756 44.3684 72.8626Z" fill="url(#paint2_linear_2289_738)"/>
<path d="M19.4649 58.9403L19.55 58.8752C20.0415 59.2885 20.4891 59.8265 20.9614 60.2728C24.5732 63.6861 28.9964 66.1803 33.4307 68.3588C34.2097 68.7415 35.0287 69.0936 35.796 69.4892C35.7987 70.4121 35.7543 72.0455 35.8133 72.9154L35.8032 79.9808C34.7355 79.9761 33.3685 79.8972 32.2981 80.0294C31.9903 80.0674 31.5005 80.6104 31.4831 80.9503C31.3107 84.3087 31.5929 87.8269 31.4392 91.177C28.0035 91.1498 24.457 91.1982 21.013 91.133C20.9826 91.1034 20.9524 91.0737 20.9221 91.044C20.9779 90.9583 21.0304 90.8724 21.0843 90.7853C20.9825 90.5771 20.6182 90.4176 20.4117 90.2486C19.9422 89.8645 19.4142 89.1256 19.0557 88.6189C16.633 85.195 15.0514 81.4858 14.3688 77.3378C13.5164 72.1569 14.4355 67.2764 16.5575 62.5119C17.2462 60.9653 17.5917 60.2436 18.5568 58.8735C18.8257 58.9887 19.3442 59.3053 19.5535 59.3279C19.6042 59.1678 19.5487 59.1435 19.4649 58.9403ZM23.3499 73.0588C23.9199 72.4838 24.0785 72.3278 24.8214 72.0577C23.9212 71.6239 23.3458 71.4008 23.0814 70.3542C22.5766 71.3904 22.3801 71.6481 21.294 72.1122C22.1351 72.4137 22.272 72.5317 22.7623 73.2896C22.8464 73.4585 22.8703 73.5376 23.0141 73.6628C23.184 73.5553 23.1493 73.4142 23.2908 73.162L23.3499 73.0588Z" fill="#EDFDF5"/>
<path d="M54.4017 63.7392L54.4775 63.6914L54.5207 63.7509C54.8995 64.2079 55.292 64.5817 55.7137 64.9959C55.3321 64.9731 55.1459 64.9812 54.7687 65.0061L54.6363 65.0795L54.6244 65.1418C55.1246 65.1498 55.372 65.14 55.8588 65.2614C55.3619 65.6464 54.8221 66.2804 54.4055 66.7652C54.2444 66.5752 52.871 65.1709 52.876 65.1831L53.0385 65.09C53.2837 65.2907 53.8974 65.1898 54.2519 65.17L54.0845 65.26C54.0677 65.4974 54.2076 65.6268 54.391 65.7557L54.4988 65.7523C54.5034 65.5133 54.4703 65.4032 54.4211 65.166L54.4557 65.0555C54.4213 64.5922 54.3874 64.2027 54.4017 63.7392Z" fill="#A7EF4A"/>
<path d="M53.2295 64.949C53.6387 64.6887 54.0872 64.1191 54.4018 63.7393C54.3875 64.2027 54.4215 64.5923 54.4559 65.0555L54.4213 65.166C54.4705 65.4032 54.5036 65.5134 54.499 65.7523L54.3912 65.7557C54.2078 65.6268 54.0679 65.4974 54.0847 65.26L54.2521 65.17L54.3934 65.1432L54.2961 65.007C54.0405 64.9407 53.6066 64.9807 53.2893 64.9544L53.2295 64.949Z" fill="#C5ED87"/>
<path d="M66.2717 83.1783C66.2238 82.7521 66.2514 81.4545 66.2512 80.9706L66.2638 76.2283L66.2672 70.1071C66.2637 69.0757 66.226 68.0518 66.2461 67.0194C66.2671 65.943 66.4345 65.1904 67.6337 64.9158C68.3873 64.8636 69.2085 64.8568 69.9743 64.8715C71.3164 64.9104 72.7601 64.7807 74.0885 64.9169C74.7681 64.9866 75.2508 65.6514 75.2416 66.3367C75.2196 67.9768 75.2675 69.6652 75.3341 71.3084C75.3418 71.5002 75.3525 71.7948 75.3326 71.9842C75.1765 72.9955 75.212 74.4418 75.2129 75.4928L75.2335 80.888C75.2368 81.7195 75.2737 83.0203 75.2225 83.8291C74.9819 83.6111 75.2893 81.3618 75.1226 80.8389L75.0326 80.8012C74.78 80.9177 74.1212 81.2627 73.8399 81.2477C72.5195 81.1769 71.4253 80.6807 70.0506 80.8632C69.8115 80.8948 68.9877 80.6466 68.6615 80.6648C68.1254 80.6946 67.6366 80.647 67.1313 80.517C67.0193 80.4858 66.4108 80.4437 66.3503 80.4592C66.2839 80.9144 66.3354 82.5414 66.3421 83.0861L66.2717 83.1783Z" fill="url(#paint3_linear_2289_738)"/>
<path d="M53.0381 65.0901L53.2289 64.949L53.2886 64.9544C53.606 64.9807 54.0399 64.9407 54.2955 65.007L54.3928 65.1432L54.2514 65.17C53.897 65.1898 53.2832 65.2907 53.0381 65.0901Z" fill="#83C328"/>
<path d="M54.7683 65.0061C55.1455 64.9811 55.3317 64.973 55.7133 64.9959L55.8827 65.1661L55.8584 65.2613C55.3716 65.1399 55.1242 65.1498 54.624 65.1418L54.6359 65.0794L54.7683 65.0061Z" fill="#83C328"/>
<path d="M78.638 69.236C78.7614 68.9357 78.8969 68.641 79.0306 68.3452C79.3439 68.4865 79.4814 69.0049 79.7417 69.2348C79.9627 69.4301 80.4993 69.4709 80.4235 69.839C80.2195 70.0067 79.9339 70.0894 79.6804 70.1852L79.2828 70.8663C79.1314 70.9179 79.2087 70.9107 79.0461 70.8558C78.6453 70.3408 78.2857 70.181 77.8809 69.7369C77.9663 69.4654 78.3898 69.3394 78.638 69.236Z" fill="#83C328"/>
<path d="M24.8214 72.0577C24.0784 72.3278 23.9199 72.4838 23.3499 73.0588L23.2908 73.1619C23.1493 73.4141 23.1839 73.5552 23.014 73.6628C22.8702 73.5375 22.8463 73.4584 22.7623 73.2896C22.272 72.5317 22.1351 72.4137 21.2939 72.1122C22.38 71.6481 22.5766 71.3904 23.0814 70.3541C23.3458 71.4007 23.9212 71.6239 24.8214 72.0577Z" fill="#C5ED87"/>
<path d="M48.9668 91.1724L48.951 77.9046L48.963 74.195C48.9656 73.4322 48.8462 71.7516 49.288 71.0554C49.4763 70.8482 49.9917 70.6597 50.2406 70.6584C52.3037 70.6485 54.3636 70.6983 56.4291 70.6692C57.53 70.6538 58.0059 71.1272 58.0268 72.1834C58.0609 73.9168 58.0459 75.6478 58.0461 77.3804L58.0547 86.0849C58.0541 87.7138 58.0123 89.5576 58.0629 91.1734C55.0411 91.1776 51.9862 91.2036 48.9668 91.1724Z" fill="url(#paint4_linear_2289_738)"/>
<path d="M75.2227 83.829C75.2739 83.0203 75.237 81.7194 75.2337 80.8879L75.2131 75.4927C75.2122 74.4417 75.1766 72.9955 75.3327 71.9841C75.6491 72.8808 75.7606 74.2457 75.9 75.2235C76.1553 77.0137 76.5332 78.9529 76.6491 80.7522C76.8705 84.1858 76.9776 87.6682 77.1301 91.1082C79.081 91.12 81.1716 91.0719 83.0984 91.1118L83.0863 91.1559C82.2046 91.197 81.104 91.1709 80.2073 91.1702L75.2385 91.164C75.2192 90.8444 75.2328 90.5225 75.2314 90.2025C75.222 88.078 75.2581 85.9532 75.2227 83.829Z" fill="#CEF5EA"/>
<path d="M44.3686 72.8626C44.1417 73.2853 44.1253 73.3646 44.0347 73.8218C44.3154 73.8265 44.6284 73.8244 44.9058 73.8379C44.6427 73.9956 44.4101 73.9634 44.0921 73.9723C44.0638 74.2937 44.0704 75.4235 43.929 75.6055C43.44 74.9553 42.9592 74.5165 42.3691 73.9673C43.0758 73.4169 43.4873 73.1172 43.9748 72.3727L44.3686 72.8626Z" fill="#A1D269"/>
<path d="M44.0354 73.8219C44.126 73.3646 44.1424 73.2854 44.3693 72.8627C44.6723 73.1757 44.9226 73.4146 45.2468 73.7061C45.4471 73.8253 45.5142 73.8207 45.616 73.9934C45.0573 74.5206 44.488 75.039 44.03 75.6586L43.951 75.6562L43.9297 75.6056C44.071 75.4236 44.0645 74.2938 44.0928 73.9723C44.4107 73.9634 44.6434 73.9956 44.9064 73.8379C44.6291 73.8244 44.3161 73.8265 44.0354 73.8219Z" fill="#A7EF4A"/>
<path d="M96.7025 76.0395C96.8079 75.7973 96.927 75.6008 97.0579 75.3727C97.3131 75.4778 97.358 75.8322 97.43 76.0844L98.2952 76.2921L97.43 76.7413C97.3448 76.9337 97.2613 77.2002 97.1908 77.4041C96.9231 77.1782 96.8562 77.0295 96.7149 76.7146C96.4371 76.5894 96.1589 76.442 95.8867 76.3035C96.1512 76.2105 96.4341 76.1253 96.7025 76.0395Z" fill="#ECC82F"/>
<path d="M37.1594 78.2095C37.2023 78.7985 37.1859 79.3926 37.1798 79.9835C37.7649 79.9816 38.3471 79.9748 38.9343 79.9652C39.4965 79.956 40.0371 79.8946 40.597 80.0085C40.9837 80.0873 41.4186 80.5341 41.4839 80.9351C41.6476 84.3091 41.4685 87.8037 41.5495 91.172L37.1993 91.1729C37.2171 86.9711 37.0159 82.3806 37.1594 78.2095Z" fill="#87D2BE"/>
<path d="M31.4389 91.1769C31.5926 87.8269 31.3104 84.3087 31.4828 80.9502C31.5002 80.6104 31.99 80.0673 32.2978 80.0294C33.3682 79.8972 34.7352 79.976 35.8029 79.9807L35.7981 91.1901C34.6546 91.2137 32.5308 91.2627 31.4389 91.1769Z" fill="#87D2BE"/>
<path d="M66.2715 83.1782L66.3418 83.086C66.3352 82.5413 66.2837 80.9143 66.35 80.4591C66.4106 80.4437 67.0191 80.4857 67.1311 80.5169C67.6364 80.6469 68.1252 80.6945 68.6613 80.6647C68.9875 80.6465 69.8113 80.8947 70.0504 80.8631C71.4251 80.6806 72.5193 81.1768 73.8397 81.2476C74.121 81.2626 74.7798 80.9176 75.0323 80.8011L75.1223 80.8388C75.2891 81.3617 74.9817 83.611 75.2223 83.829C75.2577 85.9532 75.2216 88.0779 75.231 90.2024C75.2324 90.5225 75.2188 90.8444 75.2381 91.164C74.2598 91.1242 73.074 91.1553 72.0823 91.1552L66.2604 91.1651C66.3343 88.5449 66.1957 85.8144 66.2715 83.1782Z" fill="#87D2BE"/>
<path d="M29.6787 92.3952C32.3113 92.3172 35.059 92.3619 37.6943 92.3806L44.8676 92.3796L75.6236 92.3565L88.3329 92.3585L92.1278 92.3672C92.4763 92.3688 93.5123 92.4026 93.7977 92.3721C92.8779 93.9363 92.5096 94.2677 91.152 95.4363C91.9957 95.8192 91.9322 95.2361 93.1554 95.9129C92.9678 96.0386 92.5871 96.3102 92.4026 96.4025C91.8817 96.0343 91.3532 96.3318 90.7927 96.1777C90.6316 96.1336 90.5881 95.9838 90.4581 95.9284C90.4389 95.9202 88.9641 96.4323 88.4813 96.4291L71.5349 96.423C72.4909 96.0074 78.6982 96.5853 79.3502 96.232L79.2149 96.0807C78.7279 96.0014 78.2665 95.7807 77.7805 95.7142C76.5169 95.5409 75.2213 95.6198 73.9544 95.4927C72.6187 95.3586 71.2993 95.0283 69.9595 94.8863C69.093 94.7946 68.2314 94.8096 67.3652 94.7468C66.1693 94.66 64.977 94.4872 63.7837 94.3687C62.9627 94.2873 62.137 94.263 61.3152 94.184C59.9474 94.0524 58.5733 93.9172 57.2079 93.762C56.567 93.6892 55.9291 93.5771 55.2868 93.5202C51.4853 93.1828 47.6608 92.9883 43.8504 92.7704C43.2539 92.7363 42.6893 92.5004 42.0936 92.4751C40.4372 92.4047 30.2641 92.6614 29.6787 92.3952Z" fill="url(#paint5_linear_2289_738)"/>
<path d="M22.9033 92.4035L28.4716 92.3918C27.9873 93.6992 29.1002 95.9516 30.3344 96.2325C31.5743 96.5148 33.8362 96.383 35.1487 96.3874L42.1629 96.4023L71.5347 96.423L88.4811 96.4291C88.9639 96.4323 90.4387 95.9202 90.4579 95.9284C90.5879 95.9838 90.6314 96.1336 90.7925 96.1778C91.353 96.3319 91.8815 96.0343 92.4024 96.4025C88.8061 98.6285 85.6877 100.242 81.676 101.649C63.8038 107.916 42.4713 106.245 26.6804 95.3777C25.5418 94.5942 24.1406 93.6576 23.3039 92.5746L23.5207 92.6379C23.2213 92.5789 23.1317 92.5862 22.9033 92.4035Z" fill="#EDFDF5"/>
<path d="M28.4714 92.3918C28.7487 92.3796 29.4081 92.3526 29.6783 92.3952C30.2637 92.6615 40.4368 92.4047 42.0932 92.4751C42.6889 92.5004 43.2535 92.7363 43.85 92.7704C47.6604 92.9883 51.4849 93.1828 55.2864 93.5202C55.9287 93.5772 56.5666 93.6892 57.2075 93.7621C58.5729 93.9172 59.947 94.0525 61.3148 94.1841C62.1365 94.2631 62.9623 94.2873 63.7833 94.3688C64.9766 94.4872 66.1689 94.6601 67.3648 94.7468C68.231 94.8096 69.0926 94.7946 69.9591 94.8864C71.2989 95.0283 72.6183 95.3586 73.954 95.4927C75.2209 95.6199 76.5165 95.541 77.7801 95.7142C78.2661 95.7808 78.7275 96.0014 79.2145 96.0808L79.3498 96.232C78.6978 96.5854 72.4905 96.0074 71.5345 96.4231L42.1626 96.4023L35.1485 96.3874C33.836 96.383 31.5741 96.5148 30.3342 96.2325C29.1 95.9516 27.9871 93.6993 28.4714 92.3918Z" fill="#CEF5EA"/>
<defs>
<linearGradient id="paint0_linear_2289_738" x1="102.054" y1="62.288" x2="14.1398" y2="66.5492" gradientUnits="userSpaceOnUse">
<stop stop-color="#0B4D52"/>
<stop offset="1" stop-color="#3E9787"/>
</linearGradient>
<linearGradient id="paint1_linear_2289_738" x1="86.0352" y1="91.2422" x2="89.5291" y2="51.0249" gradientUnits="userSpaceOnUse">
<stop stop-color="#5EB7AD"/>
<stop offset="1" stop-color="#C4DFD7"/>
</linearGradient>
<linearGradient id="paint2_linear_2289_738" x1="52.3534" y1="91.0635" x2="52.3044" y2="56.2567" gradientUnits="userSpaceOnUse">
<stop stop-color="#A2EFE4"/>
<stop offset="1" stop-color="#E7F3ED"/>
</linearGradient>
<linearGradient id="paint3_linear_2289_738" x1="69.9335" y1="80.861" x2="71.6659" y2="64.717" gradientUnits="userSpaceOnUse">
<stop stop-color="#7EC5BB"/>
<stop offset="1" stop-color="#D8E4DE"/>
</linearGradient>
<linearGradient id="paint4_linear_2289_738" x1="54.4939" y1="91.3455" x2="52.3471" y2="70.4791" gradientUnits="userSpaceOnUse">
<stop stop-color="#57B6AC"/>
<stop offset="1" stop-color="#93CEC3"/>
</linearGradient>
<linearGradient id="paint5_linear_2289_738" x1="68.2288" y1="90.0608" x2="67.7444" y2="95.1637" gradientUnits="userSpaceOnUse">
<stop stop-color="#7BA690"/>
<stop offset="1" stop-color="#A9CFC1"/>
</linearGradient>
</defs>
</svg>
