<svg width="120" height="120" viewBox="0 0 120 120" fill="none" xmlns="http://www.w3.org/2000/svg">
<path d="M27.6844 56.2038C26.9864 57.0196 26.2294 57.7587 25.5261 58.5586L25.5422 58.6351C25.7013 58.6417 25.8239 58.6485 25.984 58.643C27.6805 58.6834 29.4096 58.6021 31.1164 58.6024C31.1151 59.8924 31.138 61.2798 31.1068 62.5622L31.102 83.5371L31.0724 88.2935C31.0708 88.5976 31.1093 89.771 31.0526 89.9967C30.4807 90.043 26.8622 90.4157 26.5605 90.3048L26.489 90.2132C26.5711 90.0757 26.5725 90.0869 26.5741 89.9283C24.1067 87.4998 20.2459 80.01 19.4474 76.5288C19.4452 76.4128 19.4398 76.3336 19.4773 76.2221C19.6641 75.6669 19.6641 75.0422 19.6827 74.4538C20.1816 74.4683 21.0086 74.5703 21.3592 74.1431C21.3495 73.6051 20.0276 73.713 19.6524 73.721C19.6442 73.2211 19.7925 72.2708 19.3383 72.0305C19.1182 72.0111 19.0202 72.0973 18.8255 72.2079C18.4514 70.9341 18.3588 69.6314 18.2002 68.3142C16.3237 52.7263 24.567 37.0799 37.3209 28.3379C42.7502 24.6165 49.0464 21.9852 55.6642 21.4543C56.4046 21.3949 57.1686 21.2242 57.9139 21.1802C60.8025 21.0131 63.6981 21.0028 66.5686 21.4102C67.3969 21.5277 68.2809 21.5168 69.1185 21.6596C87.6527 24.8223 102.342 40.3137 104.804 58.9179C106.204 69.493 103.72 80.3894 97.5582 89.0666C97.1472 89.6391 96.3719 90.6122 96.0759 91.2093L95.9029 91.2319C93.6183 90.8602 91.5496 90.6532 89.2864 90.3451L89.3051 90.2859L89.3004 70.4627C89.2972 66.5396 89.3361 62.5308 89.2493 58.6147C91.0725 58.6433 92.8983 58.641 94.722 58.6441C92.587 56.4171 90.3855 54.2818 88.2852 51.99C86.5908 50.1411 84.9066 48.1079 83.1953 46.3084C82.9346 46.6426 82.6405 46.9767 82.3514 47.2866C78.8968 50.9896 75.5927 54.9558 72.0207 58.5347L77.805 58.5121C77.7769 61.8243 77.8708 65.2371 77.7977 68.5338C76.5784 67.8676 75.7055 67.8676 74.375 67.9276C74.3534 67.1564 74.3725 66.3096 74.3756 65.5325C74.3666 65.1688 74.3773 65.1991 74.0679 65.0711C72.9259 64.6845 71.8554 64.5369 70.6707 64.3652C68.3906 64.0518 66.0731 63.9452 63.7762 63.8044C63.8256 62.9423 63.8037 61.8731 63.8051 61.0027L63.8112 56.1969L63.8265 40.4863L69.7304 40.4756C65.8675 36.3858 62.1317 32.1436 58.2544 28.0285C57.9821 28.3806 57.6037 28.8013 57.2962 29.133C53.841 32.8605 50.5313 36.7646 47.0764 40.4878L52.7902 40.4849L52.7993 54.8662C52.8043 57.7262 52.8653 60.9293 52.7595 63.7648C50.5806 63.7883 43.5856 63.9094 41.9342 64.9598L41.9826 64.5327C42.0405 64.2381 41.9867 62.5446 41.9777 62.1629C41.9491 60.9463 41.9487 59.7446 41.9478 58.5271C43.996 58.4974 46.1996 58.5502 48.2691 58.5511C44.2166 54.5355 40.5924 50.598 36.722 46.4221L27.6844 56.2038ZM41.9951 30.1268C41.9555 29.8921 42.0074 29.9818 41.8771 29.824C41.655 29.8346 41.615 29.9095 41.4434 30.0977L41.3484 30.2037L41.2986 30.1664C41.2366 30.1208 41.1906 30.0908 41.1262 30.0503L41.0698 30.144C41.1657 30.2687 41.1704 30.2612 41.2188 30.4112C41.0741 30.6634 41.0767 30.581 41.0736 30.841C41.4163 31.0575 41.6055 31.1972 41.9768 31.1297C42.0306 31.0611 42.0911 30.9868 42.1428 30.9164C42.1654 30.9028 42.351 30.8565 42.3825 30.8481L42.4062 30.735L42.2795 30.6307C42.2279 30.4643 42.2827 30.4584 42.391 30.2444L42.3464 30.143C42.2644 30.1718 42.1912 30.1962 42.1089 30.2224L41.9951 30.1268ZM74.8248 28.3312C74.3227 28.831 74.4576 29.3416 74.481 30.0164C74.1201 30.0275 73.6526 30.0429 73.3213 30.022C72.8814 29.9944 72.6776 30.488 72.9769 30.7092C73.2438 30.9063 74.2204 30.7939 74.5219 30.7732C74.4952 31.3822 74.3001 32.1941 74.8268 32.5769C75.5568 32.2179 75.2826 31.4793 75.2917 30.7578C75.8556 30.7734 76.5238 30.855 76.9851 30.5098L77 30.3337C76.5309 29.9673 75.8627 30.0441 75.2869 30.0526C75.3019 29.5533 75.4197 28.8727 75.1613 28.4969C75.0153 28.4081 74.9907 28.3854 74.8248 28.3312ZM84.9679 33.8626C84.6885 34.0065 84.5349 34.0837 84.2362 34.1939L84.2531 34.2455C84.337 34.5089 84.3647 34.5657 84.1939 34.7992C84.3338 34.9656 84.6578 35.121 84.8597 35.2341C85.117 35.0659 85.0505 35.0396 85.3184 34.8593C85.4051 34.695 85.422 34.6379 85.4134 34.4449C85.4088 34.3409 85.019 33.8999 84.9679 33.8626ZM47.9232 50.5099C47.6714 50.7487 47.7063 50.7487 47.3759 50.5547L47.262 50.5964C47.2773 50.7198 47.2879 50.7791 47.253 50.899L46.9593 50.8959L46.9001 50.9619C46.9877 51.0493 47.0467 51.1016 47.1419 51.1809C47.0437 51.3291 47.0629 51.2933 46.9214 51.4144C47.0175 51.5509 47.0236 51.5264 47.1903 51.6125C47.4473 51.7297 47.9982 51.7652 48.1588 51.4767C48.0851 51.3804 48.0773 51.3686 48.0322 51.2505C48.1021 51.1045 48.096 51.108 48.2079 50.9928C48.1109 50.8323 48.0026 50.6801 47.9232 50.5099ZM96.3718 63.9082C95.9194 64.4237 96.1431 64.9646 96.1224 65.666C95.6969 65.6455 94.3778 65.5086 94.3127 66.079C94.7246 66.5756 95.54 66.4462 96.1196 66.4545C96.0972 67.1154 95.8164 67.9921 96.6293 68.0945C97.1032 67.6856 96.9229 67.0234 96.8717 66.4404C97.3469 66.4481 98.2032 66.5444 98.5595 66.2636C98.6526 66.0771 98.6313 66.1745 98.6156 65.9586C98.5448 65.8458 98.4802 65.7105 98.3486 65.6896C97.8673 65.6128 97.3425 65.6797 96.8507 65.6583C96.8658 65.1328 96.994 64.4048 96.7479 64.0128C96.5828 63.9005 96.5679 63.9158 96.3718 63.9082ZM26.05 65.6329C25.7936 65.8349 25.7737 65.8845 25.624 66.178C25.6238 66.4083 25.6751 66.4177 25.8965 66.5276C25.9459 66.7491 25.9047 66.756 26.0432 66.8445C26.0945 66.8266 26.1805 66.8038 26.2184 66.7746C26.4016 66.7472 26.5749 66.7644 26.682 66.6039C27.0651 66.0298 26.6346 65.6029 26.05 65.6329ZM93.6276 80.4314C93.3791 80.5348 93.259 80.8178 93.3572 81.0683C93.4554 81.3188 93.7359 81.4447 93.9884 81.3519C94.1564 81.29 94.278 81.142 94.306 80.9651C94.334 80.7882 94.2641 80.61 94.1234 80.4991C93.9825 80.3884 93.7929 80.3625 93.6276 80.4314Z" fill="#FEFEFE"/>
<path d="M52.7593 63.7648C52.8651 60.9293 52.8041 57.7262 52.7991 54.8663L52.79 40.4849L47.0762 40.4878C50.5311 36.7647 53.8408 32.8606 57.296 29.1331C57.6035 28.8013 57.9819 28.3806 58.2542 28.0286C62.1315 32.1436 65.8673 36.3858 69.7302 40.4756L63.8263 40.4863L63.811 56.1969L63.8049 61.0027C63.8035 61.8731 63.8254 62.9424 63.776 63.8044C63.243 63.7617 62.6206 63.7425 62.0859 63.7518C59.1986 63.8016 56.2353 63.6418 53.3553 63.7594L52.7593 63.7648Z" fill="url(#paint0_linear_2289_792)"/>
<path d="M74.4806 30.0164C74.4572 29.3416 74.3223 28.831 74.8245 28.3312C74.9903 28.3854 75.0149 28.4081 75.1609 28.4969C75.4193 28.8726 75.3015 29.5533 75.2865 30.0526C75.8623 30.0441 76.5305 29.9673 76.9996 30.3337L76.9847 30.5098C76.5234 30.855 75.8552 30.7734 75.2913 30.7578C75.2822 31.4792 75.5564 32.2179 74.8264 32.5769C74.2997 32.1941 74.4948 31.3822 74.5215 30.7732C74.22 30.7939 73.2434 30.9063 72.9765 30.7092C72.6772 30.488 72.881 29.9944 73.3209 30.022C73.6522 30.0429 74.1197 30.0275 74.4806 30.0164Z" fill="#B4EF6D"/>
<path d="M42.1433 30.9164C42.0916 30.9868 42.0311 31.0611 41.9773 31.1297C41.606 31.1972 41.4168 31.0575 41.0741 30.841C41.0772 30.581 41.0746 30.6634 41.2193 30.4112C41.1709 30.2612 41.1662 30.2687 41.0703 30.144L41.1267 30.0503C41.1911 30.0908 41.2371 30.1208 41.2991 30.1664L41.3489 30.2037L41.4439 30.0977C41.6155 29.9095 41.6555 29.8346 41.8776 29.824C42.0079 29.9818 41.956 29.8921 41.9956 30.1268L42.1094 30.2224C42.1917 30.1962 42.2649 30.1718 42.347 30.143L42.3915 30.2444C42.2832 30.4584 42.2284 30.4643 42.28 30.6307L42.4067 30.735L42.383 30.8481C42.3515 30.8565 42.1659 30.9028 42.1433 30.9164Z" fill="#B4EF6D"/>
<path d="M84.8602 35.2341C84.6583 35.121 84.3343 34.9656 84.1943 34.7992C84.3652 34.5657 84.3374 34.5089 84.2535 34.2455L84.2366 34.1939C84.5353 34.0837 84.689 34.0065 84.9684 33.8626C85.0195 33.8999 85.4092 34.3409 85.4139 34.4449C85.4225 34.6379 85.4056 34.695 85.3189 34.8593C85.051 35.0396 85.1174 35.0659 84.8602 35.2341Z" fill="#B4EF6D"/>
<path d="M77.7975 68.5338C77.8706 65.2371 77.7768 61.8243 77.8049 58.5121L72.0205 58.5347C75.5925 54.9558 78.8966 50.9896 82.3513 47.2866C82.6404 46.9767 82.9344 46.6426 83.1952 46.3084C84.9064 48.1079 86.5907 50.1411 88.2851 51.99C90.3853 54.2818 92.5868 56.4171 94.7218 58.6442C92.8982 58.641 91.0724 58.6433 89.2492 58.6147C89.3359 62.5308 89.297 66.5397 89.3003 70.4627L89.305 90.2859L82.996 89.8822C82.7208 89.8628 82.3346 89.8709 82.1714 89.6833C84.9041 83.5215 84.0851 74.9606 79.4637 69.8886C79.0178 69.3994 78.3332 68.9327 77.7975 68.5338Z" fill="url(#paint1_linear_2289_792)"/>
<path d="M27.6848 56.2038L36.7224 46.4221C40.5927 50.598 44.217 54.5355 48.2695 58.5511C46.1999 58.5501 43.9963 58.4974 41.9481 58.5271C41.9491 59.7446 41.9494 60.9463 41.978 62.1629C41.987 62.5446 42.0408 64.2381 41.9829 64.5327C41.2178 64.8477 40.5705 64.9889 40.4383 65.8808C40.3664 67.3544 40.4065 69.1152 40.3819 70.627C40.8543 71.0298 41.1764 71.1295 41.7837 71.2385L41.9 71.3721C41.4487 71.4729 40.7673 71.6019 40.3695 71.7978C40.2764 71.7806 40.2535 71.7824 40.1843 71.7123C39.5671 71.1024 38.85 70.6101 38.1817 70.0563C36.1035 68.3347 34.2396 66.3988 32.5025 64.337C32.0365 63.7841 31.6304 63.1442 31.1501 62.6093L31.1071 62.5622C31.1384 61.2798 31.1154 59.8924 31.1167 58.6024C29.41 58.6021 27.6809 58.6834 25.9844 58.643C26.3704 58.5585 28.1972 58.5854 28.7148 58.5862C28.4547 57.9065 27.9916 56.8628 27.6848 56.2038Z" fill="url(#paint2_linear_2289_792)"/>
<path d="M47.1905 51.6126C47.0239 51.5264 47.0178 51.5509 46.9217 51.4144C47.0632 51.2933 47.0439 51.3291 47.1422 51.181C47.047 51.1016 46.9879 51.0494 46.9004 50.9619L46.9596 50.896L47.2532 50.899C47.2882 50.7791 47.2776 50.7198 47.2623 50.5964L47.3762 50.5547C47.7065 50.7488 47.6717 50.7488 47.9234 50.5099C48.0029 50.6801 48.1112 50.8323 48.2082 50.9929C48.0963 51.1081 48.1024 51.1046 48.0324 51.2506C48.0775 51.3686 48.0854 51.3804 48.1591 51.4767C47.9984 51.7653 47.4475 51.7298 47.1905 51.6126Z" fill="#B4EF6D"/>
<path d="M25.9843 58.643C25.8243 58.6485 25.7016 58.6417 25.5425 58.6351L25.5264 58.5586C26.2297 57.7587 26.9868 57.0196 27.6847 56.2039C27.9915 56.8628 28.4546 57.9066 28.7148 58.5863C28.1972 58.5855 26.3704 58.5585 25.9843 58.643Z" fill="#87D2BE"/>
<path d="M31.1069 62.5622L31.1499 62.6093C31.6301 63.1443 32.0363 63.7841 32.5022 64.337C34.2394 66.3988 36.1033 68.3347 38.1815 70.0563C38.8498 70.6102 39.5669 71.1025 40.1841 71.7123C40.2532 71.7824 40.2762 71.7806 40.3693 71.7979L40.3694 71.8497C40.2706 72.1091 40.2938 76.0233 40.3401 76.4725C40.7668 76.9132 41.1501 76.9816 41.7289 77.1564C41.9137 77.1938 42.2007 77.2269 42.3394 77.3359L42.3461 77.3815C41.5878 77.5146 40.9957 77.571 40.3156 77.9562L40.3151 80.9549C40.3165 82.7407 39.9658 82.8729 41.7273 83.3086L41.8565 83.3592C41.8496 83.4286 41.8953 83.5884 41.9069 83.6885C41.9713 83.726 41.9873 83.7436 42.0573 83.7626L41.7194 83.8275L41.6724 83.8369C41.1482 83.8954 40.8842 83.9698 40.4218 84.1996C40.2552 84.5025 40.2564 88.62 40.4587 88.9494C40.4295 89.1294 40.429 89.3123 40.3088 89.4333C39.7192 89.5429 38.8387 89.5398 38.215 89.5815C36.5341 89.6937 34.8268 89.7416 33.1468 89.8437C32.6247 89.8754 31.5347 89.9179 31.0527 89.9967C31.1095 89.771 31.0709 88.5976 31.0725 88.2935L31.1021 83.5371L31.1069 62.5622Z" fill="url(#paint3_linear_2289_792)"/>
<path d="M41.9347 64.9599C43.5861 63.9094 50.5812 63.7883 52.76 63.7648L53.3561 63.7594C53.848 63.8767 54.306 63.6781 54.2788 64.3671C54.1748 64.4319 54.1878 64.3948 54.1622 64.4758C54.4228 64.7864 54.5174 64.8659 54.8031 65.1277C55.1549 65.4499 56.293 66.1179 56.2528 66.5846C55.7755 66.7537 54.2555 66.5911 53.5934 66.688C53.1363 66.7444 51.4413 66.6709 50.9168 66.6526C49.2472 66.5942 47.5111 66.5447 45.843 66.4377C43.976 66.2609 43.653 66.2877 41.8719 65.5088C41.8848 65.8149 41.928 66.1866 41.7826 66.4589C41.2337 66.288 40.9279 66.1705 40.4385 65.8808C40.5707 64.9889 41.218 64.8477 41.9831 64.5327L41.9347 64.9599Z" fill="#CEF5EA"/>
<path d="M53.3555 63.7594C56.2355 63.6418 59.1988 63.8015 62.0861 63.7517C62.6208 63.7425 63.2432 63.7617 63.7761 63.8044C66.073 63.9452 68.3905 64.0517 70.6706 64.3652L70.385 64.4339C70.4849 64.967 70.3846 65.6128 70.2669 66.1466C67.9248 66.444 65.5239 66.5327 63.1664 66.6827C62.8621 66.702 62.5099 66.7166 62.2063 66.7142C61.497 66.7056 60.7659 66.7413 60.0519 66.7474C59.7489 66.6897 58.6354 66.7243 58.2696 66.7165C56.7621 66.684 55.0825 66.7861 53.5928 66.688C54.2549 66.5911 55.7749 66.7536 56.2522 66.5845C56.2924 66.1179 55.1543 65.4499 54.8025 65.1276C54.5168 64.8658 54.4222 64.7864 54.1616 64.4757C54.1873 64.3947 54.1743 64.4319 54.2782 64.3671C54.3054 63.678 53.8474 63.8767 53.3555 63.7594Z" fill="url(#paint4_linear_2289_792)"/>
<path d="M96.1222 65.666C96.143 64.9646 95.9193 64.4237 96.3716 63.9082C96.5678 63.9158 96.5827 63.9005 96.7478 64.0129C96.9939 64.4048 96.8657 65.1328 96.8505 65.6583C97.3424 65.6797 97.8671 65.6128 98.3484 65.6896C98.48 65.7106 98.5446 65.8458 98.6154 65.9586C98.6311 66.1745 98.6524 66.0771 98.5594 66.2636C98.203 66.5445 97.3467 66.4481 96.8715 66.4404C96.9227 67.0234 97.1031 67.6856 96.6292 68.0945C95.8162 67.9921 96.097 67.1154 96.1194 66.4545C95.5398 66.4463 94.7244 66.5756 94.3125 66.079C94.3777 65.5086 95.6967 65.6455 96.1222 65.666Z" fill="#83C328"/>
<path d="M70.2666 66.1466C70.3843 65.6128 70.4846 64.967 70.3847 64.4339L70.6703 64.3652C71.8551 64.5369 72.9256 64.6845 74.0676 65.0711C73.7734 65.7039 70.9953 66.067 70.2666 66.1466Z" fill="#61CCBF"/>
<path d="M74.0679 65.071C74.3772 65.1991 74.3666 65.1688 74.3755 65.5325C72.6892 66.8498 64.6379 67.171 62.2081 67.3806C62.205 67.8218 62.2214 68.5077 62.186 68.9293C62.1867 69.7367 62.2412 71.3869 62.1669 72.1356C62.0361 72.2308 62.021 72.2182 61.8573 72.2468C61.4769 72.2272 61.0794 72.2422 60.6967 72.2495C60.6204 70.7616 60.6674 68.9464 60.6827 67.4412L62.1876 67.3834C62.2132 67.2081 62.2049 66.9021 62.2063 66.7142C62.5099 66.7166 62.862 66.7021 63.1664 66.6827C65.5238 66.5327 67.9248 66.444 70.2669 66.1466C70.9956 66.067 73.7737 65.7039 74.0679 65.071Z" fill="#62AC9D"/>
<path d="M41.8714 65.5087C43.6525 66.2877 43.9755 66.2608 45.8425 66.4377C47.5105 66.5447 49.2467 66.5941 50.9162 66.6526C51.4408 66.6709 53.1358 66.7444 53.5928 66.688C55.0825 66.7861 56.7621 66.684 58.2696 66.7165C58.6354 66.7243 59.7489 66.6897 60.0519 66.7474C60.2301 66.7737 60.4137 66.7821 60.5654 66.8706L60.5451 66.96C60.2724 66.9878 60.1316 66.9827 59.855 66.9738L59.8557 67.0019C60.1055 67.0067 60.3064 67.003 60.5543 67.0455C60.6749 67.1768 60.6654 67.2003 60.6306 67.4068C57.4146 67.491 54.1362 67.5492 50.9196 67.4428C49.6626 67.3665 48.3257 67.3295 47.0648 67.2849C46.7609 67.304 46.1153 67.2948 45.8341 67.1919C45.5343 67.1859 45.4061 67.1874 45.1161 67.1239C44.9908 67.0088 44.2886 66.9542 44.0671 66.9253C43.2831 66.823 42.5457 66.6791 41.7783 66.4857L41.7821 66.4589C41.9275 66.1865 41.8843 65.8148 41.8714 65.5087Z" fill="#95E0C1"/>
<path d="M62.2083 67.3806C64.638 67.171 72.6893 66.8498 74.3756 65.5325C74.3726 66.3096 74.3535 67.1564 74.375 67.9276C74.2223 67.9829 74.1785 68.0122 74.0175 68.0275C73.496 67.9301 72.9905 68.0658 72.5025 68.0242C69.4676 67.7648 67.4984 69.6141 65.9548 72.1955C64.5895 72.2001 63.2122 72.2589 61.8574 72.2468C62.0211 72.2182 62.0363 72.2309 62.167 72.1356C62.2413 71.3869 62.1868 69.7368 62.1861 68.9293C62.2215 68.5077 62.2051 67.8218 62.2083 67.3806Z" fill="#217D73"/>
<path d="M26.2184 66.7746C26.1805 66.8038 26.0945 66.8266 26.0432 66.8444C25.9047 66.756 25.9459 66.749 25.8965 66.5276C25.6751 66.4176 25.6238 66.4083 25.624 66.178C25.7737 65.8844 25.7936 65.8349 26.05 65.6328C26.6347 65.6028 27.0651 66.0298 26.682 66.6039C26.5749 66.7644 26.4016 66.7472 26.2184 66.7746Z" fill="#B4EF6D"/>
<path d="M40.3818 70.627C40.4064 69.1152 40.3664 67.3544 40.4382 65.8808C40.9276 66.1705 41.2334 66.2879 41.7823 66.4589L41.7786 66.4857C41.7613 67.9664 41.732 69.774 41.7836 71.2385C41.1764 71.1295 40.8542 71.0298 40.3818 70.627Z" fill="#46928F"/>
<path d="M41.778 66.4857C42.5454 66.6791 43.2828 66.823 44.0668 66.9253C44.2883 66.9542 44.9905 67.0088 45.1157 67.1239C45.0534 68.6005 45.1063 70.2778 45.1182 71.7778C44.5258 71.7185 43.6633 71.5865 43.1223 71.5585L43.0641 71.5216C42.7701 71.4499 42.1995 71.3633 41.8993 71.3721L41.7831 71.2385C41.7314 69.774 41.7607 67.9664 41.778 66.4857Z" fill="#61CCBF"/>
<path d="M60.0525 66.7474C60.7665 66.7413 61.4975 66.7056 62.2068 66.7142C62.2054 66.9021 62.2138 67.2081 62.1882 67.3834L60.6833 67.4412L60.6311 67.4068C60.6659 67.2003 60.6754 67.1768 60.5548 67.0455C60.3069 67.003 60.106 67.0067 59.8562 67.0019L59.8555 66.9738C60.1321 66.9827 60.2729 66.9878 60.5456 66.96L60.5659 66.8706C60.4142 66.7821 60.2306 66.7737 60.0525 66.7474Z" fill="#61CCBF"/>
<path d="M45.1159 67.124C45.406 67.1875 45.5342 67.1859 45.8339 67.1919C46.1152 67.2948 46.7608 67.3041 47.0646 67.285C47.1449 68.8184 46.9906 70.3833 47.0745 71.8943C48.5262 71.895 49.9767 72.062 51.4319 72.014C51.9953 71.9954 52.6176 72.0421 53.1748 71.9676L57.5858 71.9857C58.2542 71.9905 59.2042 72.0299 59.8421 71.9973C59.8923 72.1218 59.9135 72.1196 59.9052 72.235C59.8708 72.5058 59.8582 72.6291 59.865 72.901C60.1124 72.9308 60.4912 72.9157 60.661 73.0097L60.6919 73.1869C60.1297 73.3807 52.0374 73.2058 50.9079 73.1843C49.81 73.1864 48.371 73.1488 47.2862 73.0711C46.7875 73.1013 45.7828 72.9687 45.1579 72.9706C45.1546 72.9238 45.1299 72.565 45.1307 72.5656C44.6145 72.2126 43.6886 72.6061 43.2126 72.1232C43.0704 71.9789 43.1205 71.7505 43.1224 71.5586C43.6635 71.5866 44.526 71.7185 45.1184 71.7778C45.1064 70.2778 45.0536 68.6005 45.1159 67.124Z" fill="#95E0C1"/>
<path d="M47.0648 67.285C48.3258 67.3295 49.6626 67.3665 50.9197 67.4428L50.9094 71.9672C51.6164 71.964 52.4801 71.9384 53.175 71.9676C52.6178 72.0421 51.9955 71.9954 51.4321 72.014C49.9769 72.062 48.5264 71.895 47.0747 71.8943C46.9908 70.3833 47.1451 68.8184 47.0648 67.285Z" fill="#87D2BE"/>
<path d="M50.9195 67.4428C54.1361 67.5492 57.4145 67.491 60.6305 67.4069L60.6826 67.4412C60.6673 68.9465 60.6203 70.7616 60.6966 72.2495L60.3044 72.2426C60.4645 72.204 60.4641 72.2127 60.597 72.1201L60.5726 72.0562C60.2945 71.9764 60.1291 71.9948 59.842 71.9973C59.2042 72.0299 58.2541 71.9905 57.5858 71.9857L53.1748 71.9676C52.4798 71.9384 51.6162 71.964 50.9092 71.9672L50.9195 67.4428Z" fill="#55BFAF"/>
<path d="M74.3746 67.9276C75.7051 67.8676 76.5781 67.8676 77.7973 68.5339C78.333 68.9328 79.0176 69.3994 79.4635 69.8887C84.0849 74.9606 84.9039 83.5215 82.1712 89.6833C81.0869 91.742 80.3015 93.0249 78.3849 94.4101C76.5914 95.4285 75.3022 95.6278 73.2122 95.4063L74.2515 95.3793C64.1012 92.8083 63.9697 71.3383 74.0171 68.0275C74.1781 68.0122 74.2219 67.983 74.3746 67.9276ZM75.0003 75.12C74.7621 75.2161 69.5404 78.437 69.5836 78.377C69.5062 80.3778 69.548 82.6573 69.5555 84.6803C70.9903 85.5795 72.5146 86.3693 73.9657 87.2459C74.2636 87.4259 74.5728 87.5997 74.8824 87.7586L74.9363 87.7882C75.3836 87.628 76.9048 86.6104 77.409 86.3015C78.3433 85.7294 79.3235 85.1418 80.2622 84.571L80.2887 78.2301C80.078 78.0778 79.802 77.9267 79.5723 77.7953C78.0382 76.9174 76.5151 76.0312 75.0003 75.12Z" fill="#B4EF6D"/>
<path d="M65.9552 72.1955C67.4988 69.6141 69.468 67.7648 72.5029 68.0242C72.9909 68.0658 73.4964 67.9301 74.0179 68.0274C63.9706 71.3382 64.1021 92.8083 74.2524 95.3792L73.2131 95.4063C72.113 95.4124 71.1833 95.5028 70.1381 95.1729C69.5725 94.7985 68.9651 94.4897 68.4211 94.0783C67.3464 93.2655 66.5534 92.259 65.8573 91.1181L65.7379 90.9182L65.3763 90.2492L65.1493 89.7635C64.441 88.1368 64.1672 86.9768 63.8546 85.2676L63.8371 85.0769L63.7274 84.3752L63.6644 83.8441C63.4879 82.4589 63.6174 80.4704 63.7404 79.0944L63.768 78.9319C63.79 78.6663 63.8374 78.4283 63.8839 78.1667L63.9699 77.6976C64.3444 76.0261 64.7164 74.7101 65.4264 73.132L65.5687 72.9218C65.6322 72.7659 65.8649 72.3625 65.9552 72.1955Z" fill="#4FB32A"/>
<path d="M40.3691 71.7978C40.767 71.6019 41.4483 71.4729 41.8996 71.3721C42.1998 71.3633 42.7704 71.4499 43.0645 71.5216L43.0807 72.2346C42.6118 72.315 42.2222 72.3813 41.7497 72.4225C41.614 72.059 40.8014 72.1031 40.4154 71.972L40.3693 71.8496L40.3691 71.7978Z" fill="#217D73"/>
<path d="M43.0648 71.5216L43.1229 71.5585C43.1209 71.7505 43.0709 71.9789 43.213 72.1231C43.689 72.6061 44.6149 72.2125 45.1311 72.5655C45.1303 72.5649 45.155 72.9238 45.1583 72.9705C45.2429 74.2722 45.1867 76.2364 45.1847 77.5814C44.7263 77.5545 42.6622 77.3274 42.3463 77.3815L42.3396 77.3359C42.2009 77.2269 41.9139 77.1937 41.7291 77.1563C41.7722 75.6587 41.7279 73.9704 41.7188 72.4598L41.75 72.4225C42.2225 72.3813 42.6121 72.315 43.0811 72.2346L43.0648 71.5216Z" fill="#4BA3A0"/>
<path d="M40.3396 76.4725C40.2933 76.0233 40.2701 72.1091 40.3689 71.8497L40.4151 71.972C40.8011 72.1031 41.6137 72.0591 41.7494 72.4226L41.7181 72.4599C41.3493 72.394 40.8631 72.2883 40.5008 72.2944C40.2972 72.5043 40.344 75.9052 40.3396 76.4725Z" fill="#4BA3A0"/>
<path d="M18.8252 72.2079C19.0198 72.0972 19.1179 72.0111 19.338 72.0304C19.7922 72.2708 19.6439 73.2211 19.6521 73.721C20.0273 73.713 21.3492 73.6051 21.3589 74.1431C21.0083 74.5702 20.1813 74.4683 19.6824 74.4538C19.6638 75.0422 19.6638 75.6669 19.477 76.2221C19.4395 76.3336 19.4449 76.4128 19.4471 76.5288C19.4341 76.4024 19.4205 76.3585 19.387 76.235C18.6695 75.7604 19.1457 74.9231 18.8838 74.4287C18.914 74.1028 18.9141 74.0338 18.8679 73.7103C18.8577 73.2089 18.85 72.709 18.8252 72.2079Z" fill="#B4EF6D"/>
<path d="M59.8418 71.9973C60.1289 71.9947 60.2943 71.9763 60.5723 72.0561L60.5967 72.1201C60.4638 72.2127 60.4643 72.204 60.3042 72.2426L59.905 72.2349C59.9133 72.1195 59.8921 72.1217 59.8418 71.9973Z" fill="#61CCBF"/>
<path d="M61.8572 72.2468C63.212 72.2588 64.5894 72.2001 65.9546 72.1954C65.8644 72.3624 65.6316 72.7659 65.5681 72.9218C64.272 72.9021 62.7953 72.9584 61.4794 72.9703C60.8814 72.9715 60.5033 72.855 59.8651 72.9009C59.8583 72.629 59.8708 72.5058 59.9053 72.2349L60.3045 72.2425L60.6966 72.2495C61.0794 72.2422 61.4769 72.2272 61.8572 72.2468Z" fill="#0B5857"/>
<path d="M40.3396 76.4725C40.3441 75.9052 40.2972 72.5043 40.5009 72.2944C40.8631 72.2883 41.3493 72.394 41.7181 72.4598C41.7272 73.9704 41.7715 75.6587 41.7284 77.1564C41.1496 76.9816 40.7663 76.9132 40.3396 76.4725Z" fill="#136F6A"/>
<path d="M59.8652 72.9009C60.5034 72.855 60.8816 72.9715 61.4796 72.9703C61.7242 73.1133 62.1452 72.9598 62.3745 73.048C62.2283 73.0699 62.199 73.0748 62.0524 73.0701L62.0134 73.1041C62.045 73.1153 62.1901 73.1623 62.2125 73.1784L61.8845 73.1947C61.5389 73.2014 61.0396 73.1965 60.7079 73.2279L60.6921 73.1869L60.6612 73.0097C60.4914 72.9157 60.1126 72.9308 59.8652 72.9009Z" fill="#62AC9D"/>
<path d="M61.4795 72.9703C62.7954 72.9585 64.2721 72.9021 65.5682 72.9218L65.4259 73.132C64.4755 73.192 63.163 73.218 62.2124 73.1784C62.19 73.1623 62.0449 73.1153 62.0133 73.1041L62.0523 73.0702C62.1989 73.0748 62.2282 73.0699 62.3743 73.048C62.1451 72.9598 61.7241 73.1133 61.4795 72.9703Z" fill="#4BA3A0"/>
<path d="M45.1582 72.9705C45.7832 72.9687 46.7878 73.1013 47.2866 73.0711C47.2861 74.2691 47.2804 75.4657 47.2385 76.6631C47.2273 76.985 47.2214 77.3065 47.247 77.6279C46.9682 77.6191 46.4679 77.54 46.2511 77.6497C46.1285 77.846 46.1721 77.9054 46.1629 78.1782L46.1195 78.1834C46.1276 77.9976 46.1537 77.8768 46.0678 77.7144C45.8586 77.5528 45.4704 77.5889 45.1846 77.5814C45.1866 76.2364 45.2428 74.2723 45.1582 72.9705Z" fill="#87D2BE"/>
<path d="M47.2862 73.0711C48.371 73.1488 49.8099 73.1864 50.9078 73.1843C50.9204 74.685 50.9068 76.1896 50.8946 77.6906C49.7249 77.6963 48.4414 77.6383 47.2465 77.6279C47.221 77.3065 47.2269 76.9851 47.2381 76.6631C47.2799 75.4657 47.2857 74.2691 47.2862 73.0711Z" fill="#61CCBF"/>
<path d="M62.2127 73.1784C63.1633 73.218 64.4758 73.192 65.4262 73.132C64.7161 74.7101 64.3442 76.0261 63.9696 77.6976C63.2693 77.6999 62.567 77.7076 61.8672 77.6865C61.9323 76.351 61.8603 74.6015 61.8846 73.1947L62.2127 73.1784Z" fill="#136F6A"/>
<path d="M50.9078 73.1843C52.0372 73.2058 60.1296 73.3807 60.6918 73.1869L60.7076 73.2279C60.683 74.2805 60.6234 76.753 60.7158 77.7313L60.7025 77.786C60.4208 77.734 57.8914 77.7672 57.4904 77.7662L50.8945 77.6907C50.9067 76.1896 50.9203 74.685 50.9078 73.1843Z" fill="#62AC9D"/>
<path d="M60.7077 73.2279C61.0393 73.1965 61.5387 73.2014 61.8842 73.1947C61.8599 74.6015 61.9319 76.351 61.8668 77.6865L61.8307 77.6996C61.4415 77.6985 61.1048 77.7105 60.7159 77.7313C60.6235 76.753 60.6831 74.2804 60.7077 73.2279Z" fill="#217D73"/>
<path d="M18.8844 74.4287C18.4289 74.4273 17.6421 74.4999 17.3555 74.1043L17.4244 73.9782C17.9027 73.6871 18.3089 73.7314 18.8685 73.7103C18.9148 74.0338 18.9146 74.1028 18.8844 74.4287Z" fill="#B4EF6D" fill-opacity="0.964706"/>
<path d="M69.5843 78.377C69.541 78.437 74.7628 75.2161 75.0009 75.12L75.0021 76.0921L74.9217 76.046C74.7594 76.3153 74.1657 76.5735 74.0021 76.1558L73.9802 76.3867C73.7461 76.4857 73.5196 76.5524 73.2636 76.567C73.2046 76.7966 73.2071 76.8082 73.2029 77.0482C72.9116 77.4769 72.4395 77.7945 72.2592 78.2409C72.0554 78.7458 72.4355 79.123 71.9892 79.5468C72.1433 79.85 74.7021 81.2184 75.1244 81.4458L74.9861 81.5466L74.9527 81.5406C74.5795 81.2142 70.3225 78.8341 69.8129 78.6572C69.7546 78.6957 69.6964 78.7343 69.6382 78.7728C69.6255 78.6286 69.6069 78.5189 69.5843 78.377Z" fill="url(#paint5_linear_2289_792)"/>
<path d="M75.0005 75.12C76.5154 76.0311 78.0385 76.9174 79.5726 77.7953C79.8023 77.9266 80.0782 78.0778 80.2889 78.23L80.2625 84.5709C79.3238 85.1418 78.3435 85.7293 77.4093 86.3014C76.905 86.6104 75.3838 87.628 74.9365 87.7882C75.1171 87.2177 74.9905 82.4497 74.9857 81.5466L75.124 81.4458L75.2582 81.3356L75.1415 81.3056C74.8998 81.0362 74.9987 79.8974 74.9992 79.4864L75.0017 76.0921L75.0005 75.12Z" fill="#83C328"/>
<path d="M75.1245 81.4458C74.7021 81.2184 72.1434 79.85 71.9893 79.5468C72.4356 79.123 72.0555 78.7458 72.2593 78.2409C72.4396 77.7945 72.9116 77.4769 73.203 77.0482C73.2072 76.8082 73.2047 76.7966 73.2637 76.567C73.5197 76.5524 73.7461 76.4857 73.9803 76.3867L74.0022 76.1558C74.1658 76.5735 74.7595 76.3153 74.9218 76.046L75.0021 76.0921L74.9997 79.4864C74.9992 79.8974 74.9003 81.0362 75.1419 81.3056L75.2587 81.3356L75.1245 81.4458Z" fill="#4FB32A"/>
<path d="M40.3151 77.9562C40.9953 77.571 41.5873 77.5146 42.3456 77.3815C42.6616 77.3275 44.7256 77.5546 45.184 77.5814C45.4699 77.5889 45.8581 77.5528 46.0673 77.7144C46.1532 77.8769 46.1271 77.9977 46.119 78.1834C45.8718 78.3461 43.4254 78.3304 42.9284 78.4414C42.7845 78.4735 41.9356 78.5093 41.7631 78.5098C41.7679 79.1247 41.8397 83.0515 41.7269 83.3086C39.9653 82.8729 40.3161 82.7407 40.3147 80.9549L40.3151 77.9562Z" fill="#136F6A"/>
<path d="M46.1623 78.1783C46.1716 77.9055 46.128 77.846 46.2506 77.6498C46.4674 77.5401 46.9677 77.6192 47.2464 77.628C48.4413 77.6383 49.7248 77.6963 50.8945 77.6907L57.4904 77.7662C57.8914 77.7672 60.4208 77.734 60.7025 77.786L60.6943 78.2321C60.4529 78.2304 60.1054 78.2141 59.8782 78.2592C59.4126 78.4196 57.8178 78.3781 57.2414 78.4037C53.7986 78.557 50.3234 78.5385 46.8825 78.3489C46.286 78.316 45.6478 78.4258 45.0166 78.408C45.2923 78.2724 45.6918 78.3961 46.0951 78.3093L46.1623 78.1783Z" fill="#95E0C1"/>
<path d="M60.7158 77.7313C61.1047 77.7106 61.4414 77.6985 61.8306 77.6997C61.8833 77.938 61.8803 77.9755 61.8751 78.2234C61.4807 78.231 61.0888 78.2315 60.6943 78.232L60.7025 77.786L60.7158 77.7313Z" fill="#4BA3A0"/>
<path d="M61.8311 77.6996L61.8671 77.6865C62.567 77.7076 63.2693 77.6999 63.9696 77.6977L63.8836 78.1668C63.2534 78.1881 62.4964 78.2292 61.8756 78.2234C61.8807 77.9755 61.8838 77.938 61.8311 77.6996Z" fill="#217D73"/>
<path d="M46.1196 78.1834L46.163 78.1782L46.0957 78.3092C45.6925 78.3961 45.293 78.2723 45.0172 78.4079C45.0495 78.569 45.0982 78.7822 45.1182 78.9399C45.0984 80.2734 45.1185 81.6054 45.1225 82.9389C45.1233 83.2021 45.129 83.5387 45.0995 83.7977C44.3984 83.8059 43.7456 83.6514 42.9322 83.6763L43.1093 83.5985C42.9222 83.4428 42.1454 83.3921 41.8567 83.3592L41.7275 83.3086C41.8404 83.0515 41.7686 79.1246 41.7637 78.5098C41.9362 78.5093 42.7852 78.4734 42.9291 78.4413C43.4261 78.3303 45.8725 78.346 46.1196 78.1834Z" fill="#4BA3A0"/>
<path d="M61.875 78.2233C62.4959 78.2292 63.2528 78.1881 63.883 78.1667C63.8365 78.4283 63.7892 78.6663 63.7671 78.9319C62.4917 78.936 61.1615 78.9591 59.8903 78.9282C59.8621 78.7076 59.8739 78.4823 59.8781 78.2592C60.1054 78.2141 60.4528 78.2304 60.6942 78.232C61.0887 78.2314 61.4806 78.231 61.875 78.2233Z" fill="#0B5857"/>
<path d="M45.0166 78.4079C45.6478 78.4257 46.286 78.3159 46.8825 78.3489C50.3234 78.5385 53.7986 78.557 57.2414 78.4037C57.8178 78.378 59.4126 78.4195 59.8782 78.2592C59.874 78.4823 59.8621 78.7076 59.8904 78.9282L59.9113 79.0811C59.7386 79.2271 59.3257 79.1721 59.0861 79.1626C56.4357 79.0575 53.5923 79.3086 50.9604 79.1415C50.7213 79.0537 47.607 79.0628 47.0512 79.033C46.4123 79.0107 45.7527 78.9983 45.1176 78.94C45.0976 78.7822 45.0488 78.5691 45.0166 78.4079Z" fill="url(#paint6_linear_2289_792)"/>
<path d="M69.5842 78.377C69.6068 78.5189 69.6255 78.6286 69.6381 78.7729C69.6964 78.7343 69.7546 78.6958 69.8128 78.6572C70.3225 78.8342 74.5794 81.2142 74.9527 81.5406C74.8517 83.5082 74.8826 85.7669 74.883 87.7586C74.5733 87.5997 74.2642 87.4259 73.9663 87.2459C72.5152 86.3693 70.9909 85.5795 69.5561 84.6803C69.5486 82.6573 69.5067 80.3778 69.5842 78.377Z" fill="#83C328"/>
<path d="M59.8904 78.9282C61.1616 78.959 62.4918 78.936 63.7672 78.9319L63.7397 79.0944C63.1215 79.1015 62.5018 79.0945 61.8836 79.0905L60.6527 79.0782C60.6513 80.6367 60.6175 82.3168 60.6532 83.865L60.6353 83.8967L50.8783 83.8985C50.8329 83.2576 50.7367 79.5008 50.9604 79.1415C53.5923 79.3086 56.4358 79.0575 59.0862 79.1626C59.3257 79.1721 59.7387 79.2271 59.9113 79.081L59.8904 78.9282Z" fill="#4BA3A0"/>
<path d="M45.1184 78.9399C45.7534 78.9983 46.413 79.0107 47.052 79.033C47.0447 80.6197 47.0162 82.2687 47.0377 83.8522L46.1648 83.8473L45.0996 83.7977C45.1291 83.5387 45.1234 83.2021 45.1226 82.9389C45.1186 81.6054 45.0986 80.2734 45.1184 78.9399Z" fill="#61CCBF"/>
<path d="M47.0514 79.033C47.6073 79.0628 50.7215 79.0538 50.9606 79.1415C50.7369 79.5008 50.8331 83.2576 50.8784 83.8985C49.603 83.9076 48.3195 83.8554 47.0372 83.8522C47.0157 82.2687 47.0442 80.6197 47.0514 79.033Z" fill="#55BFAF"/>
<path d="M60.6536 79.0782L61.8844 79.0905C61.9042 80.1041 61.8872 81.1059 61.8874 82.1182C61.8875 82.6075 61.8572 83.2992 61.9155 83.772C62.0695 83.8723 62.3442 83.8525 62.5432 83.8579C62.3092 83.8741 62.1188 83.8908 61.8848 83.883C61.608 83.8546 60.9805 83.8739 60.654 83.865C60.6183 82.3168 60.6521 80.6367 60.6536 79.0782Z" fill="#136F6A"/>
<path d="M61.8836 79.0906C62.5019 79.0946 63.1216 79.1016 63.7398 79.0944C63.6167 80.4705 63.4872 82.4589 63.6637 83.8442L62.5425 83.8579C62.3435 83.8525 62.0688 83.8723 61.9148 83.772C61.8565 83.2992 61.8868 82.6075 61.8867 82.1182C61.8865 81.106 61.9035 80.1041 61.8836 79.0906Z" fill="#0B5857"/>
<path d="M93.9886 81.3519C93.7361 81.4447 93.4557 81.3188 93.3575 81.0683C93.2593 80.8178 93.3794 80.5348 93.6278 80.4314C93.7932 80.3625 93.9828 80.3884 94.1236 80.4992C94.2644 80.61 94.3342 80.7883 94.3062 80.9651C94.2782 81.142 94.1567 81.2901 93.9886 81.3519Z" fill="#83C328"/>
<path d="M74.9524 81.5406L74.9858 81.5466C74.9906 82.4497 75.1172 87.2177 74.9366 87.7882L74.8827 87.7586C74.8823 85.7668 74.8514 83.5082 74.9524 81.5406Z" fill="#4FB32A"/>
<path d="M42.057 83.7626C41.987 83.7436 41.971 83.726 41.9066 83.6885C41.895 83.5884 41.8493 83.4286 41.8562 83.3592C42.1449 83.3921 42.9216 83.4428 43.1088 83.5985L42.9317 83.6763C42.6093 83.6885 42.373 83.7199 42.057 83.7626Z" fill="#EDFDF5"/>
<path d="M42.0577 83.7626C42.3736 83.7199 42.61 83.6885 42.9324 83.6763C43.7458 83.6514 44.3985 83.8059 45.0996 83.7977L46.1649 83.8473L46.1698 84.6623C45.7899 84.6663 45.3958 84.6757 45.0176 84.667L43.7261 84.6762C43.0386 84.669 42.4613 84.6638 41.7747 84.6003C41.8062 84.3624 41.8158 84.0503 41.7197 83.8275L42.0577 83.7626Z" fill="#217D73"/>
<path d="M40.4219 84.1995C40.8843 83.9697 41.1483 83.8953 41.6725 83.8369C41.7234 84.0821 41.7405 84.1189 41.714 84.3619C41.4336 84.6879 40.7076 84.4078 40.4219 84.1995Z" fill="#0B5857"/>
<path d="M41.6726 83.8369L41.7196 83.8275C41.8157 84.0503 41.8061 84.3625 41.7745 84.6004C41.7211 86.1784 41.7989 87.7733 41.7342 89.3636C41.2737 89.2577 40.8721 89.1836 40.4589 88.9494C40.2566 88.62 40.2554 84.5025 40.422 84.1996C40.7077 84.4078 41.4336 84.6879 41.7141 84.3619C41.7406 84.119 41.7234 84.0822 41.6726 83.8369Z" fill="url(#paint7_linear_2289_792)"/>
<path d="M46.1641 83.8473L47.0369 83.8522C48.3193 83.8554 49.6027 83.9075 50.8782 83.8985L60.6352 83.8967L60.6371 84.4308H60.0079C58.3013 84.4608 56.5791 84.5059 54.8745 84.5842C51.9759 84.7173 49.07 84.6987 46.169 84.6623L46.1641 83.8473Z" fill="#95E0C1"/>
<path d="M60.6537 83.865C60.9802 83.8739 61.6077 83.8546 61.8845 83.883L61.8724 84.433L60.6376 84.4308L60.6357 83.8967L60.6537 83.865Z" fill="#62AC9D"/>
<path d="M62.5425 83.8578L63.6638 83.8441L63.7268 84.3752C63.1298 84.4011 62.464 84.4444 61.8721 84.433L61.8841 83.883C62.1181 83.8908 62.3085 83.8741 62.5425 83.8578Z" fill="#217D73"/>
<path d="M61.8728 84.433C62.4647 84.4444 63.1305 84.4011 63.7275 84.3752L63.8372 85.077C62.8578 85.1109 61.6341 85.0793 60.7008 85.1368L60.0687 85.1354C59.9694 84.8981 60.0015 84.6924 60.0088 84.4308H60.638L61.8728 84.433Z" fill="#0B5857"/>
<path d="M46.1698 84.6624C49.0707 84.6987 51.9766 84.7173 54.8753 84.5842C56.5799 84.5059 58.3021 84.4608 60.0087 84.4308C60.0014 84.6923 59.9693 84.8981 60.0686 85.1354V85.3131L55.9014 85.3188C55.2964 85.2464 53.5364 85.2984 52.8769 85.3021L47.0728 85.303C46.3915 85.3045 45.8003 85.3086 45.1198 85.2564L45.0176 84.667C45.3957 84.6757 45.7898 84.6663 46.1698 84.6624Z" fill="url(#paint8_linear_2289_792)"/>
<path d="M41.7747 84.6003C42.4613 84.6639 43.0386 84.669 43.7261 84.6762C43.4254 84.7184 43.2017 84.7428 42.8975 84.7635C43.6948 85.0566 44.1702 85.1576 45.0128 85.2756C45.0752 85.4222 45.0757 85.4205 45.0966 85.5782C45.0621 86.9764 45.1035 88.3801 45.0782 89.7817C44.45 89.7647 43.6571 89.6975 43.0291 89.643C42.8036 89.5431 42.0141 89.4159 41.7344 89.3635C41.7991 87.7733 41.7212 86.1784 41.7747 84.6003Z" fill="#46928F"/>
<path d="M43.7261 84.6762L45.0176 84.6671L45.1198 85.2564L45.0966 85.5782C45.0757 85.4206 45.0752 85.4222 45.0128 85.2756C44.1702 85.1576 43.6948 85.0566 42.8975 84.7635C43.2017 84.7429 43.4254 84.7184 43.7261 84.6762Z" fill="#55BFAF"/>
<path d="M60.6999 85.1368C61.6332 85.0793 62.857 85.1109 63.8363 85.077L63.8538 85.2676C63.3037 85.3417 62.4597 85.3168 61.8806 85.3153L60.7069 85.3059L60.6982 85.2743L60.6999 85.1368Z" fill="#46928F"/>
<path d="M60.0684 85.1354L60.7005 85.1368L60.6988 85.2743C60.4307 85.3209 60.3449 85.3167 60.0684 85.3131V85.1354Z" fill="#55BFAF"/>
<path d="M45.1197 85.2563C45.8002 85.3086 46.3914 85.3045 47.0728 85.303C47.0792 86.7751 47.1116 88.2953 47.0923 89.7621C47.8933 89.7645 49.3087 89.7314 50.06 89.8119C49.1807 89.8315 48.3228 89.8145 47.4457 89.804C47.2064 89.8012 46.2882 89.7785 46.0995 89.8144C45.7598 89.8247 45.4181 89.7994 45.0781 89.7817C45.1034 88.3801 45.0621 86.9764 45.0965 85.5781L45.1197 85.2563Z" fill="#61CCBF"/>
<path d="M60.0683 85.3131C60.3449 85.3167 60.4307 85.3209 60.6988 85.2743L60.7075 85.3059C60.686 86.6399 60.6471 88.4577 60.7048 89.7674L50.8594 89.7649L50.8767 85.3686C52.1498 85.3799 54.6902 85.4284 55.9011 85.3188L60.0683 85.3131Z" fill="#46928F"/>
<path d="M61.8805 85.3153C62.4597 85.3169 63.3036 85.3417 63.8537 85.2676C64.1664 86.9768 64.4401 88.1369 65.1484 89.7635C64.5768 89.7763 63.9761 89.7717 63.4022 89.7753C62.9709 89.7356 62.3259 89.7571 61.8779 89.759L61.8805 85.3153Z" fill="#0B5857"/>
<path d="M47.0723 85.303L52.8763 85.3021C53.5359 85.2984 55.2959 85.2464 55.9008 85.3188C54.6899 85.4284 52.1495 85.3799 50.8764 85.3686L50.8591 89.7649L60.7045 89.7674L60.7247 89.8053L60.7027 89.8674C60.4211 89.8063 58.1191 89.8374 57.7125 89.8369L50.0595 89.8119C49.3082 89.7314 47.8928 89.7646 47.0918 89.7621C47.1111 88.2953 47.0787 86.7751 47.0723 85.303Z" fill="#55BFAF"/>
<path d="M60.7077 85.3059L61.8813 85.3153L61.8787 89.7589C62.3267 89.757 62.9717 89.7356 63.403 89.7752C63.0062 89.8073 62.2975 89.8257 61.8907 89.801C61.5452 89.7692 61.0718 89.7832 60.7252 89.8053L60.705 89.7674C60.6473 88.4577 60.6862 86.6399 60.7077 85.3059Z" fill="#136F6A"/>
<path d="M40.4583 88.9494C40.8715 89.1835 41.2731 89.2577 41.7337 89.3635C42.0134 89.4159 42.8029 89.5431 43.0284 89.643C42.1198 89.7368 41.1572 89.7913 40.3225 90.1802C40.3199 90.7782 40.184 94.8537 40.4369 95.151C40.5176 95.246 40.6545 95.3069 40.7697 95.3453C41.3273 95.4459 44.3242 95.3949 45.0647 95.3932L45.1183 95.3894L47.0446 95.401L50.8496 95.4087L60.695 95.396L61.8702 95.3912L67.1575 95.4019C67.9992 95.406 68.9401 95.4332 69.7792 95.3714C69.9001 95.3626 70.0424 95.2498 70.1374 95.1729C71.1825 95.5028 72.1123 95.4124 73.2124 95.4063C75.3024 95.6278 76.5916 95.4285 78.385 94.4101C78.7564 94.4947 81.159 94.4573 81.7559 94.4562L89.3061 94.4538C89.285 93.1431 89.2363 91.6364 89.2861 90.3451C91.5494 90.6532 93.6181 90.8601 95.9027 91.2319C94.4846 92.8815 93.1416 94.4238 91.5158 95.8827C91.2936 96.082 90.7938 96.5456 90.637 96.7651C83.5601 97.6264 76.4241 98.0101 69.3022 98.2126C66.7939 98.284 64.2925 98.4094 61.782 98.4281C55.3127 98.4764 48.8395 98.2527 42.3784 97.9566C38.299 97.7696 16.8427 96.4476 14.7557 93.9617C14.6262 93.8074 14.5708 93.6194 14.5973 93.4196C14.7838 92.011 21.7815 91.0175 22.9767 90.8454C23.4624 90.7754 26.1324 90.5264 26.4211 90.2776C26.4447 90.2572 26.4663 90.2346 26.4888 90.2132L26.5602 90.3048C26.862 90.4157 30.4805 90.043 31.0524 89.9967C31.5344 89.9178 32.6243 89.8754 33.1464 89.8437C34.8264 89.7416 36.5337 89.6937 38.2147 89.5815C38.8383 89.5398 39.7189 89.5428 40.3084 89.4333C40.4287 89.3123 40.4292 89.1294 40.4583 88.9494Z" fill="#CEF5EA"/>
<path d="M40.323 90.1803C41.1577 89.7913 42.1203 89.7368 43.0288 89.6431C43.6568 89.6976 44.4497 89.7647 45.078 89.7817C45.4179 89.7994 45.7596 89.8247 46.0994 89.8144L46.1008 90.4908C45.7411 90.506 45.4378 90.5197 45.0775 90.5051C44.7692 90.4588 43.9737 90.5125 43.6268 90.5265C43.0069 90.4998 42.4073 90.5084 41.7874 90.5135C41.7962 91.2056 41.7549 94.7474 41.868 95.0876L42.1828 95.2565L42.1914 95.307C41.7947 95.368 41.1837 95.3541 40.7701 95.3453C40.6549 95.307 40.5181 95.246 40.4373 95.151C40.1844 94.8537 40.3204 90.7783 40.323 90.1803Z" fill="#136F6A"/>
<path d="M78.3857 94.4101C80.3023 93.0248 81.0877 91.742 82.1721 89.6832C82.3353 89.8708 82.7214 89.8628 82.9967 89.8822L89.3056 90.2859L89.2869 90.3451C89.2371 91.6364 89.2857 93.1431 89.3068 94.4538L81.7566 94.4562C81.1597 94.4573 78.7571 94.4947 78.3857 94.4101Z" fill="#A5EACA"/>
<path d="M46.0996 89.8144C46.2883 89.7785 47.2064 89.8012 47.4457 89.8041C48.3229 89.8145 49.1808 89.8315 50.0601 89.8119L57.7131 89.8369C58.1196 89.8375 60.4217 89.8063 60.7033 89.8675L60.6759 90.1496C60.4705 90.3098 60.3099 90.2118 59.9996 90.2709C56.279 90.3387 52.5621 90.5862 48.8384 90.5128C47.9474 90.4952 46.9811 90.5596 46.101 90.4908L46.0996 89.8144Z" fill="#95E0C1"/>
<path d="M60.7248 89.8054C61.0713 89.7832 61.5447 89.7693 61.8902 89.801L61.8798 90.303C61.285 90.3015 60.5837 90.3169 59.999 90.2709C60.3093 90.2118 60.47 90.3098 60.6753 90.1496L60.7027 89.8675L60.7248 89.8054Z" fill="#62AC9D"/>
<path d="M63.4026 89.7752C63.9765 89.7717 64.5772 89.7763 65.1488 89.7635L65.3758 90.2492C64.1935 90.283 63.0628 90.3003 61.8799 90.303L61.8903 89.801C62.2972 89.8257 63.0058 89.8073 63.4026 89.7752Z" fill="#46928F"/>
<path d="M61.8798 90.3031C63.0627 90.3004 64.1934 90.283 65.3757 90.2493L65.7373 90.9182C63.9672 90.9759 61.8382 90.9557 60.055 90.9393H60.02C59.9954 90.722 60.0012 90.4913 59.999 90.2709C60.5837 90.3169 61.285 90.3015 61.8798 90.3031Z" fill="#0B5857"/>
<path d="M46.1004 90.4908C46.9805 90.5596 47.9468 90.4952 48.8378 90.5128C52.5616 90.5862 56.2784 90.3387 59.999 90.2709C60.0012 90.4912 59.9954 90.722 60.02 90.9393L60.0086 91.1254L59.1348 91.1234C58.7493 91.0866 58.2854 91.1045 57.8938 91.1005C54.3068 91.0638 50.6982 91.1865 47.113 91.1023C46.4193 91.1018 45.8109 91.1038 45.1176 91.0492L45.0771 90.5051C45.4375 90.5197 45.7408 90.506 46.1004 90.4908Z" fill="url(#paint9_linear_2289_792)"/>
<path d="M43.6264 90.5265C43.9732 90.5125 44.7687 90.4588 45.077 90.5051L45.1175 91.0492C45.1101 92.4335 45.1609 94.04 45.1183 95.3895L45.0647 95.3932C45.1239 94.1503 45.0624 92.3661 45.0681 91.0679C44.2705 91.0543 43.5197 90.7509 42.6924 90.629C43.0356 90.606 43.2851 90.593 43.6264 90.5265Z" fill="#62AC9D"/>
<path d="M41.7868 90.5135C42.4066 90.5084 43.0063 90.4998 43.6262 90.5265C43.285 90.593 43.0355 90.606 42.6922 90.6289C43.5196 90.7509 44.2704 91.0543 45.068 91.0679C45.0622 92.3661 45.1238 94.1503 45.0646 95.3932C44.3241 95.3949 41.3271 95.4459 40.7695 95.3453C41.1831 95.354 41.7941 95.368 42.1908 95.3069L42.1822 95.2564L41.8673 95.0876C41.7543 94.7474 41.7956 91.2056 41.7868 90.5135Z" fill="#46928F"/>
<path d="M60.0202 90.9393H60.0552C60.2739 90.9762 60.5743 90.9778 60.7102 91.0865C60.5178 91.1293 60.2137 91.122 60.0088 91.1254L60.0202 90.9393Z" fill="#55BFAF"/>
<path d="M60.0557 90.9392C61.8388 90.9557 63.9679 90.9759 65.738 90.9182L65.8574 91.1181L61.882 91.138C61.4394 91.1383 61.1488 91.1319 60.7106 91.0864C60.5748 90.9778 60.2743 90.9762 60.0557 90.9392Z" fill="#217D73"/>
<path d="M45.1179 91.0492C45.8112 91.1038 46.4197 91.1018 47.1134 91.1023C47.037 92.498 47.0538 93.9967 47.0451 95.4011L45.1188 95.3895C45.1614 94.0401 45.1106 92.4335 45.1179 91.0492Z" fill="#61CCBF"/>
<path d="M47.1132 91.1022C50.6984 91.1865 54.307 91.0638 57.894 91.1005C58.2855 91.1045 58.7495 91.0865 59.135 91.1233C58.3944 91.1989 57.0483 91.1626 56.2366 91.1632C54.4604 91.1641 52.6308 91.1966 50.8576 91.1723L50.8499 95.4087L47.0449 95.401C47.0536 93.9967 47.0368 92.498 47.1132 91.1022Z" fill="#62AC9D"/>
<path d="M59.1348 91.1233L60.0085 91.1253C60.2135 91.1219 60.5176 91.1293 60.7099 91.0864C60.6748 92.5153 60.6915 93.9653 60.695 95.396L50.8496 95.4087L50.8573 91.1723C52.6305 91.1966 54.4602 91.1641 56.2364 91.1632C57.048 91.1626 58.3941 91.1989 59.1348 91.1233Z" fill="#46928F"/>
<path d="M60.7104 91.0864C61.1485 91.1319 61.4392 91.1383 61.8818 91.138C61.8573 92.5562 61.8596 93.9729 61.8708 95.3912L60.6955 95.396C60.692 93.9653 60.6753 92.5153 60.7104 91.0864Z" fill="#136F6A"/>
<path d="M61.8814 91.138L65.8567 91.1181C66.5528 92.259 67.3458 93.2656 68.4206 94.0784C68.9645 94.4897 69.5719 94.7985 70.1375 95.1729C70.0425 95.2498 69.9002 95.3626 69.7793 95.3714C68.9402 95.4332 67.9993 95.406 67.1576 95.4019L61.8704 95.3912C61.8592 93.9729 61.8569 92.5562 61.8814 91.138Z" fill="#0B5857"/>
<path d="M95.9034 91.2319L96.0764 91.2092L96.1344 91.2259C98.0081 91.7496 101.097 91.8967 102.566 93.3338C103.163 93.9186 101.401 94.6515 100.995 94.7836C97.6694 95.8661 94.0904 96.282 90.6377 96.7651C90.7945 96.5456 91.2943 96.082 91.5165 95.8827C93.1423 94.4238 94.4853 92.8815 95.9034 91.2319Z" fill="#A5EACA"/>
<defs>
<linearGradient id="paint0_linear_2289_792" x1="56.6236" y1="28.4198" x2="61.8012" y2="63.9001" gradientUnits="userSpaceOnUse">
<stop stop-color="#9FD8C9"/>
<stop offset="1" stop-color="#E0EEE9"/>
</linearGradient>
<linearGradient id="paint1_linear_2289_792" x1="84.7564" y1="46.6585" x2="79.427" y2="89.4192" gradientUnits="userSpaceOnUse">
<stop stop-color="#81C8B1"/>
<stop offset="1" stop-color="#D9ECE1"/>
</linearGradient>
<linearGradient id="paint2_linear_2289_792" x1="36.0486" y1="46.6913" x2="40.37" y2="71.6502" gradientUnits="userSpaceOnUse">
<stop stop-color="#99D6C4"/>
<stop offset="1" stop-color="#C6E2DA"/>
</linearGradient>
<linearGradient id="paint3_linear_2289_792" x1="32.5769" y1="62.4302" x2="37.7442" y2="89.8179" gradientUnits="userSpaceOnUse">
<stop stop-color="#97D3C3"/>
<stop offset="1" stop-color="#E9F1EF"/>
</linearGradient>
<linearGradient id="paint4_linear_2289_792" x1="68.5983" y1="61.2878" x2="56.4017" y2="68.1183" gradientUnits="userSpaceOnUse">
<stop stop-color="#54D5C2"/>
<stop offset="1" stop-color="#BFFBF0"/>
</linearGradient>
<linearGradient id="paint5_linear_2289_792" x1="72.2088" y1="76.4957" x2="74.627" y2="81.5102" gradientUnits="userSpaceOnUse">
<stop stop-color="#5ABA29"/>
<stop offset="1" stop-color="#379217"/>
</linearGradient>
<linearGradient id="paint6_linear_2289_792" x1="52.6088" y1="77.7776" x2="52.4591" y2="79.489" gradientUnits="userSpaceOnUse">
<stop stop-color="#41C5B0"/>
<stop offset="1" stop-color="#80EDDC"/>
</linearGradient>
<linearGradient id="paint7_linear_2289_792" x1="41.2715" y1="89.2128" x2="40.7725" y2="84.2294" gradientUnits="userSpaceOnUse">
<stop stop-color="#0A5656"/>
<stop offset="1" stop-color="#107773"/>
</linearGradient>
<linearGradient id="paint8_linear_2289_792" x1="52.6842" y1="83.863" x2="52.5168" y2="85.7783" gradientUnits="userSpaceOnUse">
<stop stop-color="#3EB8A7"/>
<stop offset="1" stop-color="#78E8D4"/>
</linearGradient>
<linearGradient id="paint9_linear_2289_792" x1="52.6204" y1="89.8548" x2="52.5113" y2="91.4498" gradientUnits="userSpaceOnUse">
<stop stop-color="#37B5A3"/>
<stop offset="1" stop-color="#73E7D6"/>
</linearGradient>
</defs>
</svg>
