<svg width="120" height="120" viewBox="0 0 120 120" fill="none" xmlns="http://www.w3.org/2000/svg">
<path d="M58.0447 21.7561C56.9445 22.3564 55.8382 22.9932 54.744 23.6071C54.1611 23.934 52.8876 24.5743 52.4203 24.9649C52.4248 27.027 52.4084 29.1258 52.4369 31.1846C51.2614 31.5012 49.5637 32.0329 48.4497 32.4963C45.6222 33.6726 40.3905 36.8252 38.4569 39.2086C37.6503 38.7985 33.4388 35.8619 32.6891 36.3364C31.9864 36.7812 30.1982 37.7893 29.458 38.2705C28.8145 38.6433 28.1736 39.0234 27.531 39.3981C26.9875 39.7151 26.2858 40.0442 25.8138 40.4437C25.4465 41.0463 25.694 48.4978 25.7348 49.6445C25.7462 49.9637 27.448 50.8617 27.8295 51.0667C28.897 51.8069 30.3966 52.5838 31.5501 53.3239C30.9142 57.6478 30.5722 62.9741 31.544 67.2731C30.7525 67.881 29.1512 68.5977 28.2598 69.1517C28.0093 69.3074 27.4428 69.5933 27.2426 69.7653C26.5828 70.1066 26.2645 70.2422 25.7662 70.7769C25.7963 73.6913 25.7739 76.6478 25.8105 79.5621C25.813 79.7576 25.8915 79.9483 26.0491 80.0667C27.1989 80.8972 28.5825 81.6081 29.7972 82.3551C30.1563 82.576 31.6007 83.4747 31.8759 83.5929C32.1626 83.8127 32.6443 84.0722 32.9712 84.2607C32.9962 84.2802 33.0176 84.3049 33.0459 84.319C33.3481 84.4685 36.761 82.3671 37.2542 82.0549C37.5581 81.9072 38.0394 81.629 38.3266 81.4504C41.875 85.9492 47.0328 89.1869 52.4668 90.8947C52.4739 92.405 52.4139 94.1389 52.4619 95.6123C52.7289 95.7736 54.0418 96.5781 54.2603 96.6417C54.6266 96.8885 54.9843 97.0882 55.368 97.3069L55.218 97.3738C54.9846 97.2334 55.0988 97.2456 54.8725 97.2806C54.8207 97.3316 54.7573 97.3938 54.6826 97.4673C53.9949 97.5367 53.0115 97.512 52.3544 97.5061L32.3231 97.4979L26.9527 97.4982C26.2348 97.4922 24.9046 97.4069 24.2671 97.4601L24.1684 97.4801C23.5087 96.486 22.6462 95.5936 21.956 94.6018C12.1897 80.5694 10.3972 61.5425 18.0601 46.1504C22.9078 36.4132 30.3685 28.8363 40.3376 24.3524C41.2428 23.9453 42.021 23.8545 42.9105 23.5442L42.9851 23.5175C42.9492 23.6857 42.7143 23.9545 42.5989 24.1056C43.3053 24.9411 43.8509 25.9652 44.4918 26.8608C44.9821 26.0388 45.7003 24.9487 46.3204 24.2416C45.9676 23.7466 45.2218 22.8822 45.0099 22.3666C45.5218 22.3643 45.8876 22.2383 46.3782 22.1019C51.2606 20.731 56.4363 20.177 61.5021 20.2153C64.2372 20.3252 66.9114 20.7388 69.6091 21.1538C70.9455 21.3594 72.0058 21.6736 73.2942 21.9758C73.0586 22.7157 72.2516 23.7519 71.7446 24.3463C72.3437 25.0998 73.296 26.4642 73.7278 27.3126C74.3369 25.9915 74.7881 25.5015 75.6116 24.3739C75.3656 23.9135 74.3641 22.6513 74.409 22.3487C98.5175 29.0617 111.771 56.2196 104.899 79.7517C103.453 84.7059 100.618 91.3383 97.2856 95.3205L97.1582 95.3266C96.9371 95.5727 95.7941 97.1757 95.6915 97.2354C94.8992 97.0536 94.0392 97.2798 93.2458 97.274C86.1892 97.2237 79.128 97.2184 72.0712 97.3281L66.8192 97.3883C66.3543 97.3967 64.6746 97.4826 64.3257 97.412C65.2224 96.8443 66.7375 96.086 67.4963 95.5217C67.4985 93.9668 67.4871 92.4699 67.4389 90.9168C72.0533 89.6911 76.3654 87.0408 79.7887 83.7511C80.3698 83.1927 81.3186 82.3083 81.7981 81.6829C82.8298 82.4776 85.2994 83.6222 86.1217 84.3562C86.1878 84.3701 86.2803 84.3538 86.3351 84.3194C87.9033 83.3354 89.6109 82.4976 91.1816 81.5326C91.9058 81.1823 93.2551 80.3646 93.9842 79.9349L93.9745 73.9482C93.9714 73.0373 94.0059 71.6535 93.9448 70.7873C93.8307 70.5014 90.2583 68.7272 89.7366 68.3546C89.4591 68.1567 88.6801 67.9291 88.3976 67.6365C89.4723 62.6011 89.5794 58.1298 88.3421 53.0952C88.4183 52.9265 93.4212 50.2733 94.0958 49.8262C94.0818 47.7418 94.1346 45.2744 94.0471 43.2197C94.0982 42.8518 94.0913 41.1895 94.1026 40.7041C93.7587 40.4632 93.4009 40.2497 93.0376 40.0395C90.877 38.7902 88.7391 37.4949 86.5437 36.3076C84.9011 37.1867 83.326 38.0068 81.6884 38.9184L81.6328 38.914C81.354 38.5797 80.0457 37.4646 79.6758 37.1687C76.8466 34.9049 73.5375 33.1025 70.1566 31.8121C69.3274 31.4956 68.2725 31.1865 67.4159 30.9154C67.446 28.9084 67.4348 26.8704 67.4412 24.8608C66.6512 24.1753 64.6863 23.1829 63.7016 22.6739C62.3616 21.9811 61.2316 21.3574 59.9309 20.5875C59.6109 20.7848 58.2508 21.5789 58.0447 21.7561ZM78.9771 29.3504L78.4901 29.9886C78.6721 30.2044 78.8307 30.4176 79.0562 30.585C79.181 30.3765 79.3082 30.1768 79.4102 29.9564C79.2969 29.7893 79.1063 29.4887 78.9771 29.3504ZM18.3003 53.1323C17.8059 53.9982 17.3196 54.8361 16.8019 55.688C17.0067 56.0239 18.2711 58.2269 18.4338 58.2735C18.4376 58.2746 18.4419 58.2725 18.4459 58.2721C18.8376 57.6088 19.5806 56.3469 20.0328 55.7763C19.732 55.2614 18.6735 53.4899 18.3003 53.1323ZM98.638 54.808C98.0351 55.8016 97.3447 56.9254 96.8194 57.9589C97.0531 58.3429 98.5134 60.9522 98.6528 61.0312L98.7195 60.9979C99.2035 60.172 100.046 58.6495 100.619 57.9622C100.312 57.5045 98.8815 54.9518 98.638 54.808ZM104.189 65.0823C103.745 65.48 103.568 66.1653 104.376 66.1748C104.856 65.7214 105 65.2313 104.189 65.0823ZM17.3841 72.8117L16.8523 73.4238C17.1441 73.6774 17.2185 73.7438 17.4589 74.0559C17.6164 73.7592 17.6818 73.6462 17.8844 73.3803C17.8183 73.3072 17.4217 72.8435 17.3841 72.8117ZM99.4481 81.8329C98.8712 82.7186 98.2586 83.8269 97.7335 84.7592C98.2093 85.2345 99.0788 86.8509 99.4672 87.485C99.8226 86.7123 100.621 85.2909 101.163 84.6518C100.773 84.0651 100.42 83.5279 100.066 82.9189C99.8936 82.6226 99.621 82.0756 99.4481 81.8329ZM32.7854 89.9156C32.2637 90.7741 31.6829 91.6827 31.0218 92.4391C31.4798 93.0069 31.8366 93.5467 32.2393 94.1513C32.3327 94.2916 32.7285 94.9187 32.8122 95.0063C33.4183 93.9868 33.8405 93.319 34.5564 92.3687C34.1661 91.9227 33.9967 91.7049 33.6764 91.2235C33.4883 90.941 32.9845 90.1106 32.7854 89.9156ZM79.6758 91.267C79.1962 91.7336 78.7405 92.1712 78.2274 92.604C78.4858 92.9058 79.4564 94.0708 79.7571 94.2091C80.2449 93.5385 80.5501 93.2716 81.168 92.7227C80.9289 92.4832 79.859 91.3357 79.6758 91.267Z" fill="#EDFDF5"/>
<path d="M58.0452 21.7561C58.2513 21.5789 59.6114 20.7849 59.9314 20.5875C61.2321 21.3574 62.3621 21.9811 63.702 22.6739C64.6868 23.183 66.6516 24.1753 67.4417 24.8609C67.4353 26.8704 67.4465 28.9084 67.4164 30.9155C67.4096 31.3158 67.3943 31.6668 67.4423 32.0652C67.4408 32.8167 67.4636 33.4531 67.5076 34.2039C66.5899 34.9174 65.478 35.4453 64.4645 36.0269C64.1425 36.2115 63.3659 36.6837 63.0575 36.819L62.9588 36.7817C62.6826 36.887 61.5181 37.5417 61.2359 37.7289C60.9826 37.7516 60.0977 37.841 59.9193 37.7591C59.8871 37.0549 60.0007 35.3271 59.8384 34.7789C59.8223 32.9046 59.7338 30.88 59.7372 29.0485C59.2962 28.8 58.2554 28.1782 57.8388 27.9315C57.3321 27.6315 54.9862 26.3862 54.7003 26.0955C54.4058 25.8998 53.5912 25.5007 53.2432 25.3176C53.4323 24.9291 53.6722 24.6631 53.8552 24.2243C55.0221 23.5831 56.7922 22.5965 57.988 21.8917C58.0071 21.8465 58.0262 21.8014 58.0452 21.7561Z" fill="#93D396"/>
<path d="M73.2947 21.9758C73.4958 21.797 73.6002 21.6003 73.746 21.3731C73.9316 21.7805 74.0378 22.0837 74.4095 22.3487C74.3646 22.6513 75.3661 23.9135 75.6121 24.3739C74.7886 25.5015 74.3374 25.9915 73.7283 27.3126C73.2966 26.4642 72.3442 25.0998 71.7451 24.3463C72.2521 23.7519 73.0591 22.7157 73.2947 21.9758Z" fill="#CEF5EA"/>
<path d="M45.0096 22.3666C45.2215 22.8823 45.9673 23.7466 46.3202 24.2416C45.7 24.9488 44.9819 26.0388 44.4916 26.8608C43.8507 25.9652 43.305 24.9411 42.5986 24.1056C42.7141 23.9545 42.9489 23.6857 42.9849 23.5175C43.5487 22.9424 43.9809 22.2868 44.4372 21.6271C44.6514 21.9478 44.755 22.0798 45.0096 22.3666Z" fill="#CEF5EA"/>
<path d="M52.4199 24.9649C52.8873 24.5743 54.1607 23.934 54.7436 23.6071C55.8378 22.9933 56.9442 22.3565 58.0443 21.7561C58.0254 21.8013 58.0062 21.8465 57.9871 21.8917C56.7914 22.5965 55.0212 23.5831 53.8544 24.2243C53.6714 24.6631 53.4315 24.9291 53.2423 25.3175C53.5904 25.5007 54.405 25.8997 54.6995 26.0954C54.9854 26.3862 57.3312 27.6315 57.838 27.9315C58.2546 28.1782 59.2954 28.8 59.7364 29.0484C59.733 30.88 59.8215 32.9046 59.8375 34.7789L59.8119 35.7647L59.7508 35.8542C59.7427 36.0575 59.6799 37.3974 59.6435 37.496C59.3137 37.5598 58.4196 37.5366 58.1231 37.3481C57.8817 37.0254 56.7364 36.088 56.3789 35.7062C56.0471 35.3521 55.7369 34.8144 55.4558 34.5586C55.3203 34.3997 55.1319 33.5692 55.0549 33.3186C54.617 31.8934 54.1861 30.5424 54.1971 29.036C54.1995 28.6936 54.1408 28.3076 54.1726 27.9604C54.2571 27.4763 54.4621 26.9127 54.5537 26.4219C54.5868 26.2444 54.5526 26.264 54.4388 26.1223C53.9172 25.7864 52.9685 25.2706 52.4199 24.9649Z" fill="#62AC9D"/>
<path d="M52.4204 24.9649C52.9689 25.2705 53.9177 25.7864 54.4393 26.1222C54.5531 26.2639 54.5873 26.2444 54.5541 26.4219C54.4626 26.9127 54.2575 27.4762 54.173 27.9603C54.1413 28.3076 54.2 28.6936 54.1975 29.036C54.1865 30.5423 54.6174 31.8934 55.0554 33.3186C55.1323 33.5692 55.3208 34.3997 55.4563 34.5586C55.512 34.8594 55.6708 35.5657 55.6108 35.8294L55.5241 35.8794C55.1113 35.7283 54.6559 35.2159 54.3073 35.2548C53.7907 35.0123 52.8786 34.5286 52.422 34.1863C52.3825 33.5372 52.4266 32.9797 52.4264 32.3427C48.2192 33.2429 42.3283 36.7442 39.333 39.787C39.197 39.7276 38.6664 39.3357 38.457 39.2086C40.3906 36.8252 45.6223 33.6726 48.4498 32.4963C49.5638 32.033 51.2615 31.5012 52.437 31.1846C52.4086 29.1258 52.425 27.0271 52.4204 24.9649Z" fill="#285F5A"/>
<path d="M78.4902 29.9886L78.9771 29.3504C79.1064 29.4887 79.2969 29.7893 79.4103 29.9564C79.3083 30.1768 79.181 30.3765 79.0562 30.585C78.8308 30.4176 78.6722 30.2043 78.4902 29.9886Z" fill="#A5EACA"/>
<path d="M67.416 30.9155C68.2725 31.1865 69.3275 31.4957 70.1567 31.8121C73.5375 33.1025 76.8467 34.9049 79.6759 37.1687C80.0458 37.4646 81.3541 38.5798 81.6328 38.914C81.3354 39.1363 80.9827 39.3158 80.6557 39.4971C80.2273 39.0737 79.4355 38.4477 78.9572 38.0578C75.5529 35.2815 71.6206 33.3859 67.4419 32.0652C67.3939 31.6668 67.4092 31.3158 67.416 30.9155Z" fill="#285F5A"/>
<path d="M67.5074 34.2039C67.4635 33.453 67.4406 32.8167 67.4422 32.0652C71.6208 33.3859 75.5532 35.2815 78.9575 38.0578C79.4357 38.4477 80.2275 39.0737 80.656 39.4971C80.4243 39.663 79.275 40.3691 79.0502 40.4342C78.9614 40.8775 78.9895 42.3847 78.9897 42.9081L78.9934 47.795C78.9522 48.3941 78.9707 49.0428 78.975 49.6469C78.4473 50.0374 77.3238 50.5903 76.71 50.9117L72.9012 52.9015C72.3967 53.1658 71.3927 53.6804 70.9595 54.0103C70.7767 53.9778 70.4664 53.2332 70.3271 53.027C69.8086 52.2592 69.1573 51.7249 68.479 51.1229C66.7422 49.5818 64.6544 48.6204 62.3917 48.1433C61.8535 48.0268 61.3525 47.9733 60.8216 47.8699L60.8213 38.1513C61.1802 37.8452 62.6032 37.0741 63.0573 36.819C63.3658 36.6837 64.1424 36.2115 64.4643 36.0268C65.4779 35.4452 66.5897 34.9174 67.5074 34.2039ZM71.5238 40.8741C71.2223 41.4729 70.9179 41.8726 70.5142 42.4109C70.7787 42.8537 71.1134 43.541 71.6495 43.6435C71.9868 43.2741 72.2962 42.8006 72.6039 42.4876C72.4619 42.2093 71.7256 41.0361 71.5238 40.8741Z" fill="#EDFDF5"/>
<path d="M52.422 34.1863C52.8786 34.5286 53.7907 35.0124 54.3073 35.2548C54.605 35.5447 57.4911 37.0963 58.0428 37.4009C58.4456 37.6381 58.8572 37.8876 59.2648 38.1136C59.2107 39.2712 59.2375 40.584 59.2388 41.7565L59.2402 47.9678C56.3118 48.2519 54.3593 49.0372 52.013 50.8746C51.3253 51.4132 50.8132 51.8906 50.2179 52.5465C49.9279 52.8661 49.3183 53.9118 49.0919 54.1047C47.2595 53.067 45.4423 51.9478 43.5955 50.9178C42.6315 50.3801 41.8173 49.8034 40.7901 49.2884C40.6979 46.5379 40.8911 43.6757 40.7643 40.915C40.7563 40.7393 40.6632 40.6831 40.5532 40.5625C40.2072 40.2899 39.7217 39.9955 39.333 39.787C42.3283 36.7443 48.2192 33.2429 52.4264 32.3427C52.4266 32.9797 52.3825 33.5372 52.422 34.1863Z" fill="#FEFEFE"/>
<path d="M55.4565 34.5586C55.7377 34.8144 56.0479 35.3521 56.3796 35.7062C56.7371 36.088 57.8824 37.0254 58.1238 37.3481L58.0431 37.4009C57.4914 37.0963 54.6053 35.5447 54.3076 35.2548C54.6561 35.2159 55.1115 35.7284 55.5244 35.8794L55.6111 35.8294C55.6711 35.5657 55.5123 34.8594 55.4565 34.5586Z" fill="#46928F"/>
<path d="M59.8377 34.7789C60 35.3271 59.8864 37.0549 59.9186 37.7591C60.097 37.841 60.9819 37.7516 61.2352 37.7289C61.5174 37.5417 62.6819 36.887 62.9581 36.7817L63.0568 36.819C62.6027 37.0742 61.1797 37.8453 60.8207 38.1514C60.5642 38.2658 60.2598 38.412 59.9987 38.5015L59.8939 38.4529C59.762 38.2203 59.8168 36.205 59.812 35.7647L59.8377 34.7789Z" fill="#4BA3A0"/>
<path d="M58.1237 37.3481C58.4202 37.5366 59.3143 37.5598 59.6441 37.496C59.6805 37.3974 59.7434 36.0576 59.7514 35.8542L59.8125 35.7647C59.8173 36.205 59.7625 38.2203 59.8944 38.4529L59.9992 38.5015C59.6715 38.4688 59.5794 38.3575 59.3085 38.1678L59.265 38.1136C58.8573 37.8876 58.4457 37.6381 58.043 37.4009L58.1237 37.3481Z" fill="#46928F"/>
<path d="M25.8135 40.4437C26.2855 40.0442 26.9872 39.7151 27.5307 39.3981C28.1733 39.0234 28.8142 38.6433 29.4577 38.2705C30.1979 37.7893 31.9861 36.7812 32.6887 36.3364C33.4385 35.8619 37.65 38.7985 38.4566 39.2086C38.666 39.3357 39.1965 39.7276 39.3326 39.787C39.7213 39.9955 40.2068 40.2899 40.5527 40.5624C40.4121 40.6389 40.4292 40.6594 40.3262 40.7333C38.6367 41.9469 36.68 42.806 34.8572 43.7969C34.2477 44.1282 33.6203 44.4016 33.055 44.753C32.8504 44.6026 32.7595 44.518 32.5256 44.4296C32.2412 44.2189 28.804 42.1522 28.6309 42.1036L28.3692 41.9148L27.8114 41.5885C27.5002 41.468 26.1006 40.6321 25.8135 40.4437Z" fill="url(#paint0_linear_2289_892)"/>
<path d="M81.6881 38.9184C83.3257 38.0068 84.9008 37.1868 86.5434 36.3076C88.7388 37.495 90.8767 38.7902 93.0373 40.0396C93.4005 40.2497 93.7584 40.4632 94.1023 40.7041C94.091 41.1895 94.0979 42.8518 94.0468 43.2197C94.1342 45.2745 94.0815 47.7418 94.0955 49.8262C93.4209 50.2733 88.418 52.9266 88.3418 53.0952C87.9483 53.2229 87.6507 53.4421 87.337 53.5438C87.02 53.7041 86.692 53.8649 86.3809 54.0339C86.4071 53.4879 86.3858 52.918 86.387 52.3699C86.3925 49.7704 86.3551 47.2143 86.2255 44.6197C85.7333 44.2719 84.3088 43.5164 83.6911 43.1464C83.0639 42.7707 81.4065 41.7091 80.8372 41.455L80.4418 41.2297L80.4174 41.2025C80.027 38.856 81.6059 39.6157 81.6881 38.9184Z" fill="#93D396"/>
<path d="M59.2648 38.1136L59.3083 38.1677L59.2885 47.9494C59.8249 47.9066 60.2802 47.8723 60.8214 47.8699C61.3522 47.9733 61.8532 48.0268 62.3915 48.1433C64.6541 48.6204 66.7419 49.5818 68.4788 51.1229C69.157 51.7249 69.8084 52.2592 70.3268 53.027C70.4662 53.2332 70.7765 53.9778 70.9593 54.0103C71.1777 54.2106 71.6188 55.0991 71.7798 55.4016C72.3512 55.0141 73.0118 54.731 73.6191 54.3978C74.5556 53.8841 75.4921 53.381 76.437 52.8834C77.6971 52.2197 79.2781 51.4774 80.4144 50.6164C81.7667 51.2571 83.0876 52.2397 84.3761 52.8784C84.6723 53.0938 86.0828 53.9491 86.3813 54.0339C86.6924 53.8649 87.0204 53.7041 87.3374 53.5438C88.2304 57.1847 88.423 63.4534 87.3595 67.0417C87.0284 66.9151 86.6322 66.6599 86.3187 66.473C86.0991 66.5896 84.7021 67.3403 84.5851 67.4645C82.956 68.3045 81.3716 69.2619 79.7658 70.1462C79.4922 70.2969 79.1935 70.445 78.9306 70.6104C78.4945 70.2843 77.2108 69.6055 76.6574 69.2837C74.9397 68.2846 73.2351 67.2618 71.4559 66.3787C71.2355 66.7461 70.9146 67.2666 70.6456 67.5885C70.6267 67.6025 70.6077 67.6167 70.5888 67.6309C68.0277 70.8891 65.0156 72.3483 60.8112 72.7105C60.8133 73.2293 60.8399 73.9825 60.8091 74.4826C60.7532 73.9362 60.7634 73.2783 60.7578 72.7208C60.2138 72.7259 59.7852 72.7221 59.244 72.6859C55.6878 72.3818 51.5489 70.5689 49.5158 67.5168C49.282 67.1385 48.9437 66.7051 48.6777 66.283C47.0671 63.6765 46.7084 59.509 47.852 56.6746C48.0088 56.2861 48.1384 55.8554 48.2698 55.4562L48.3219 55.3576C48.5431 54.9302 48.9772 54.3628 49.0919 54.1046C49.3183 53.9118 49.9279 52.8661 50.2178 52.5465C50.8131 51.8906 51.3252 51.4132 52.013 50.8746C54.3592 49.0372 56.3118 48.2518 59.2402 47.9678L59.2388 41.7565C59.2375 40.584 59.2106 39.2712 59.2648 38.1136ZM56.9289 59.8372C55.9637 59.5359 54.7553 59.2691 53.7545 59.0293C53.4552 60.8698 52.7414 63.1985 53.9763 64.8192C55.2267 66.4603 56.9342 66.1655 58.6885 66.1409C58.8204 65.8134 58.8535 65.7339 59.0548 65.447C59.8476 65.4693 60.6039 65.4737 61.3662 65.2397C66.2118 63.7519 66.3169 58.2677 63.9206 54.6528C62.8621 55.5743 61.366 55.6754 60.0673 56.2705C58.4399 57.016 57.5452 58.1739 56.9289 59.8372Z" fill="url(#paint1_linear_2289_892)"/>
<path d="M59.9986 38.5015C60.2597 38.4119 60.5641 38.2658 60.8207 38.1513L60.821 47.8699C60.2798 47.8722 59.8246 47.9066 59.2881 47.9494L59.3079 38.1677C59.5788 38.3574 59.6709 38.4688 59.9986 38.5015Z" fill="#95E0C1"/>
<path d="M81.6327 38.914L81.6884 38.9185C81.6061 39.6157 80.0273 38.856 80.4177 41.2026C80.0615 40.9711 79.4355 40.5326 79.0498 40.4343C79.2747 40.3691 80.4239 39.6631 80.6556 39.4971C80.9826 39.3158 81.3353 39.1363 81.6327 38.914Z" fill="#62AC9D"/>
<path d="M27.8293 51.0667C27.4477 50.8617 25.7459 49.9637 25.7346 49.6445C25.6938 48.4978 25.4463 41.0463 25.8136 40.4437C26.1007 40.632 27.5002 41.4679 27.8115 41.5885C27.7529 42.8369 28.0199 50.592 27.8293 51.0667Z" fill="#285F5A"/>
<path d="M79.0502 40.4343C79.4359 40.5326 80.0619 40.9711 80.4181 41.2025L80.4425 41.2297C80.446 42.054 80.503 50.304 80.3697 50.5563C79.9006 50.2886 79.4591 50.0053 79.0346 49.6713C79.0337 49.0461 79.0428 48.418 78.9935 47.795L78.9897 42.9081C78.9895 42.3847 78.9615 40.8775 79.0502 40.4343Z" fill="#285F5A"/>
<path d="M33.0557 44.7529C33.621 44.4016 34.2484 44.1282 34.8579 43.7969C36.6808 42.806 38.6375 41.9469 40.327 40.7333C40.43 40.6594 40.4129 40.6388 40.5535 40.5624C40.6635 40.683 40.7566 40.7393 40.7647 40.9149C40.8914 43.6756 40.6982 46.5378 40.7904 49.2883L40.7752 50.0183L39.8468 50.4548C38.2445 51.3512 35.8605 52.8487 34.2879 53.5884L34.2268 53.5412C33.9856 53.6247 33.9694 53.5298 33.7671 53.5175C32.8182 53.46 32.9859 52.3727 32.9604 51.6456C32.9384 49.6189 32.9998 46.7058 32.8232 44.7503C32.7012 44.63 32.6348 44.5571 32.5264 44.4296C32.7603 44.518 32.8511 44.6026 33.0557 44.7529Z" fill="url(#paint2_linear_2289_892)"/>
<path d="M70.5137 42.4109C70.9174 41.8726 71.2217 41.4729 71.5232 40.8741C71.725 41.0362 72.4613 42.2093 72.6034 42.4876C72.2956 42.8006 71.9862 43.2741 71.649 43.6436C71.1129 43.541 70.7782 42.8537 70.5137 42.4109Z" fill="#CEF5EA"/>
<path d="M80.4419 41.2297L80.8373 41.455L80.7324 41.5044L80.5832 41.4133L80.5282 41.4522C80.4886 42.2347 80.6073 43.0907 80.607 43.9157C80.6066 46.544 79.9899 49.0369 81.9461 51.1705C82.54 51.8183 83.6069 52.2817 84.3872 52.768C84.3808 52.8734 84.3877 52.8476 84.3758 52.8784C83.0873 52.2397 81.7664 51.2571 80.4141 50.6165L80.3691 50.5563C80.5024 50.304 80.4454 42.054 80.4419 41.2297Z" fill="#35797C"/>
<path d="M80.8375 41.455C81.4068 41.7092 83.0642 42.7708 83.6913 43.1465C84.309 43.5164 85.7336 44.2719 86.2258 44.6198C86.3554 47.2143 86.3928 49.7704 86.3872 52.3699C86.3861 52.918 86.4074 53.4879 86.3812 54.0339C86.0827 53.9492 84.6722 53.0938 84.376 52.8784C84.3879 52.8476 84.381 52.8734 84.3873 52.768C83.6071 52.2817 82.5402 51.8183 81.9463 51.1705C79.9901 49.0369 80.6067 46.544 80.6072 43.9157C80.6074 43.0907 80.4887 42.2348 80.5283 41.4522L80.5834 41.4133L80.7326 41.5044L80.8375 41.455Z" fill="#62AC9D"/>
<path d="M27.8113 41.5886L28.3691 41.9148L28.6308 42.1036C28.4618 42.0846 28.4364 42.0798 28.2977 41.9818C27.5802 42.3706 28.2864 47.0166 28.4417 47.9661C28.7651 49.945 29.7579 52.3506 31.8937 53.0297C32.1809 53.1211 32.5983 53.3626 32.8608 53.2539L32.8612 53.1352C32.8621 53.0336 32.8608 52.8918 32.9255 52.8114C32.9322 53.1097 32.9309 53.7231 32.9722 53.9916L32.6608 53.885C32.3594 53.6968 31.8918 53.3947 31.5497 53.324C30.3963 52.5838 28.8966 51.807 27.8291 51.0667C28.0197 50.5921 27.7527 42.837 27.8113 41.5886Z" fill="#35797C"/>
<path d="M28.6308 42.1036C28.8039 42.1522 32.2411 44.2189 32.5255 44.4296C32.6339 44.5571 32.7003 44.63 32.8223 44.7502C32.9989 46.7058 32.9375 49.6189 32.9596 51.6456C32.9552 51.9758 32.9627 52.4975 32.9255 52.8113C32.8608 52.8917 32.8621 53.0335 32.8611 53.1351L32.8608 53.2538C32.5983 53.3626 32.1809 53.1211 31.8936 53.0297C29.7579 52.3506 28.7651 49.9449 28.4416 47.9661C28.2864 47.0165 27.5802 42.3705 28.2976 41.9818C28.4364 42.0798 28.4618 42.0846 28.6308 42.1036Z" fill="#62AC9D"/>
<path d="M78.9929 47.795C79.0422 48.418 79.0331 49.0461 79.034 49.6713C79.4585 50.0053 79.9 50.2886 80.3691 50.5563L80.4141 50.6164C79.2778 51.4774 77.6968 52.2197 76.4367 52.8834C75.4918 53.381 74.5554 53.8841 73.6188 54.3979C73.0115 54.731 72.3509 55.0141 71.7795 55.4016C71.6185 55.0991 71.1774 54.2106 70.959 54.0103C71.3921 53.6804 72.3962 53.1659 72.9007 52.9015L76.7095 50.9118C77.3232 50.5903 78.4468 50.0374 78.9745 49.647C78.9702 49.0429 78.9516 48.3941 78.9929 47.795Z" fill="#95E0C1"/>
<path d="M40.7903 49.2883C41.8174 49.8034 42.6316 50.38 43.5956 50.9177C45.4425 51.9478 47.2596 53.0669 49.0921 54.1046C48.9775 54.3628 48.5433 54.9302 48.3221 55.3576L48.27 55.4561C47.6617 55.0718 46.886 54.7224 46.2536 54.3376C44.18 53.0755 41.8369 51.8243 39.8467 50.4548L40.775 50.0183L40.7903 49.2883Z" fill="#95E0C1"/>
<path d="M34.2874 53.5884C35.86 52.8487 38.244 51.3512 39.8463 50.4548C41.8365 51.8243 44.1797 53.0755 46.2532 54.3376C46.8857 54.7225 47.6613 55.0718 48.2696 55.4562C48.1383 55.8554 48.0087 56.2861 47.8519 56.6746C46.7082 59.509 47.0669 63.6765 48.6776 66.283C46.3801 67.4611 44.1443 68.9293 41.8748 70.1714C41.5203 70.3655 41.1533 70.6062 40.7965 70.7864C40.2847 70.2374 36.3253 67.9971 35.4695 67.5839C35.2321 67.3542 33.6322 66.5032 33.2447 66.2818C33.0209 66.3862 32.7814 66.5181 32.5608 66.6334C31.9208 63.0873 31.8125 57.4221 32.6611 53.885L32.9725 53.9916C33.4106 54.1706 33.9265 53.8175 34.2874 53.5884ZM40.0623 55.991C39.828 56.2412 39.604 56.4899 39.3498 56.72C39.6097 56.981 39.9035 57.2641 40.1466 57.5352C40.3564 57.1757 40.413 57.0551 40.7474 56.7908C40.6239 56.6399 40.1782 56.0591 40.0623 55.991Z" fill="#FEFEFE"/>
<path d="M32.9258 52.8113C32.963 52.4975 32.9555 51.9758 32.9599 51.6456C32.9853 52.3727 32.8176 53.46 33.7666 53.5175C33.9689 53.5298 33.985 53.6247 34.2262 53.5412L34.2874 53.5884C33.9264 53.8175 33.4106 54.1706 32.9724 53.9915C32.9312 53.7231 32.9325 53.1097 32.9258 52.8113Z" fill="#4BA3A0"/>
<path d="M87.3369 53.5438C87.6506 53.4421 87.9482 53.2229 88.3417 53.0952C89.5789 58.1298 89.4718 62.6011 88.3972 67.6365C88.1958 67.5502 87.5002 67.1888 87.3591 67.0417C88.4225 63.4534 88.2299 57.1847 87.3369 53.5438Z" fill="#285F5A"/>
<path d="M16.8018 55.688C17.3194 54.8361 17.8057 53.9982 18.3001 53.1323C18.6734 53.4899 19.7318 55.2614 20.0326 55.7763C19.5804 56.3469 18.8374 57.6088 18.4457 58.2721C18.4417 58.2725 18.4375 58.2746 18.4336 58.2735C18.2709 58.2269 17.0065 56.0239 16.8018 55.688Z" fill="#A5EACA"/>
<path d="M31.5503 53.324C31.8924 53.3948 32.36 53.6969 32.6614 53.8851C31.8128 57.4221 31.9211 63.0873 32.5611 66.6334C32.2653 66.814 31.81 67.0749 31.5443 67.2732C30.5724 62.9741 30.9145 57.6478 31.5503 53.324Z" fill="#285F5A"/>
<path d="M56.9287 59.8372C57.545 58.1738 58.4397 57.016 60.0671 56.2705C61.3658 55.6754 62.8619 55.5743 63.9205 54.6528C66.3167 58.2677 66.2116 63.7519 61.366 65.2397C60.6037 65.4737 59.8474 65.4692 59.0546 65.447C59.2388 65.0683 59.4281 64.6892 59.5849 64.3008C60.2222 62.7221 59.2775 60.9712 57.8483 60.2235C57.5506 60.0677 57.2443 59.9553 56.9287 59.8372Z" fill="#83C328"/>
<path d="M96.8193 57.9589C97.3446 56.9254 98.035 55.8016 98.6379 54.808C98.8814 54.9518 100.312 57.5045 100.619 57.9622C100.046 58.6495 99.2034 60.172 98.7194 60.9979L98.6527 61.0312C98.5133 60.9522 97.053 58.3429 96.8193 57.9589Z" fill="#A5EACA"/>
<path d="M39.3496 56.72C39.6038 56.4899 39.8278 56.2412 40.0621 55.991C40.178 56.0591 40.6237 56.6399 40.7472 56.7908C40.4129 57.0551 40.3562 57.1757 40.1464 57.5352C39.9033 57.2642 39.6095 56.981 39.3496 56.72Z" fill="#CEF5EA"/>
<path d="M53.7545 59.0294C54.7553 59.2691 55.9638 59.536 56.9289 59.8372C57.2445 59.9554 57.5508 60.0678 57.8485 60.2235C59.2777 60.9713 60.2224 62.7222 59.5851 64.3008C59.4283 64.6893 59.239 65.0684 59.0548 65.447C58.8535 65.7339 58.8204 65.8135 58.6885 66.1409C56.9342 66.1655 55.2268 66.4603 53.9764 64.8192C52.7414 63.1985 53.4552 60.8698 53.7545 59.0294Z" fill="#8EC880"/>
<path d="M104.376 66.1748C103.567 66.1653 103.744 65.48 104.189 65.0823C105 65.2313 104.855 65.7214 104.376 66.1748Z" fill="#95E0C1"/>
<path d="M32.561 66.6334C32.7817 66.5181 33.0211 66.3863 33.2449 66.2819C33.6325 66.5032 35.2323 67.3542 35.4697 67.5839C35.6411 67.9472 36.3182 67.9307 36.243 68.3123C35.328 69.2257 34.7047 69.8049 34.065 70.9678C33.5764 71.8562 32.8281 73.6803 32.1407 74.3902C32.0017 74.2654 31.0309 73.6885 30.8537 73.6417L30.79 73.6786C30.2329 73.3983 29.1067 72.5698 28.6373 72.3804C28.0318 72.0196 26.7826 71.1926 26.1507 70.7706C26.1398 70.7302 26.1289 70.6896 26.1182 70.6491C26.2471 70.3805 26.9571 70.055 27.2605 69.8559L27.2428 69.7654C27.443 69.5933 28.0095 69.3074 28.26 69.1518C29.1513 68.5977 30.7527 67.881 31.5442 67.2732C31.81 67.0749 32.2652 66.814 32.561 66.6334Z" fill="#8EC880"/>
<path d="M40.7964 70.7864C41.1532 70.6062 41.5203 70.3655 41.8748 70.1714C44.1442 68.9294 46.38 67.4611 48.6775 66.283C48.9435 66.7051 49.2818 67.1385 49.5156 67.5168C48.8114 68.0175 47.7977 68.502 47.0402 68.9658C45.0283 70.1977 42.8942 71.3207 40.8995 72.5697C40.9117 72.0028 40.9587 71.3615 40.7793 70.8236L40.7964 70.7864Z" fill="#95E0C1"/>
<path d="M70.6455 67.5885C70.9146 67.2666 71.2354 66.7462 71.4559 66.3788C73.235 67.2618 74.9396 68.2846 76.6573 69.2837C77.2107 69.6055 78.4945 70.2843 78.9306 70.6104L78.8739 70.7194C78.8445 71.2968 78.8277 71.8753 78.8578 72.4533C76.3231 70.787 73.2458 69.2207 70.6455 67.5885Z" fill="#95E0C1"/>
<path d="M86.3186 66.473C86.6321 66.6599 87.0283 66.9151 87.3595 67.0417C87.5006 67.1887 88.1962 67.5501 88.3977 67.6365C88.6801 67.9291 89.4591 68.1567 89.7366 68.3546C90.2584 68.7272 93.8307 70.5014 93.9448 70.7873C93.8779 70.8257 93.8503 70.8445 93.7723 70.8442C93.4943 70.843 88.43 73.7886 87.6522 74.2311C87.2572 74.4559 86.5411 74.9761 86.1315 75.0586C85.2493 74.5481 84.2786 73.8868 83.3832 73.4319C82.7851 73.0741 82.1991 72.7183 81.6083 72.3486C81.4514 72.111 80.9927 71.895 80.7324 71.7569C81.3519 70.5644 82.7128 69.8853 83.367 68.2806C83.681 68.0666 84.4916 67.6874 84.5851 67.4645C84.702 67.3403 86.099 66.5896 86.3186 66.473Z" fill="#8EC880"/>
<path d="M78.9306 70.6104C79.1935 70.445 79.4922 70.2969 79.7658 70.1462C81.3716 69.2619 82.956 68.3045 84.5852 67.4645C84.4916 67.6874 83.6811 68.0666 83.3671 68.2806C82.7129 69.8853 81.352 70.5644 80.7325 71.7569C80.9928 71.895 81.4514 72.111 81.6084 72.3486C81.4079 72.2678 81.0704 72.0778 80.8552 71.9723C80.1848 71.5605 79.5348 71.1465 78.874 70.7194L78.9306 70.6104Z" fill="#62AC9D"/>
<path d="M49.5155 67.5168C51.5486 70.5689 55.6875 72.3818 59.2438 72.6859C59.2364 75.6882 59.1229 79.5143 59.2754 82.4746C58.7177 82.7236 54.7319 84.985 54.5436 85.2176C53.962 85.4946 53.0376 86.0617 52.4514 86.3979C52.4435 87.5043 52.4816 88.6175 52.472 89.7366C46.4007 87.4847 43.7596 85.748 39.3242 80.983C39.7549 80.6652 40.7457 80.373 40.7906 79.7602C40.9633 77.4018 40.7846 74.9287 40.8995 72.5697C42.8941 71.3207 45.0282 70.1977 47.0401 68.9658C47.7976 68.502 48.8114 68.0175 49.5155 67.5168Z" fill="#FEFEFE"/>
<path d="M30.79 73.6786L30.8538 73.6417C31.031 73.6885 32.0018 74.2654 32.1407 74.3902C32.8282 73.6803 33.5765 71.8562 34.0651 70.9678C34.7048 69.8049 35.3281 69.2257 36.2431 68.3122C36.3182 67.9307 35.6411 67.9472 35.4698 67.5839C36.3256 67.9971 40.285 70.2374 40.7968 70.7864L40.7797 70.8236C40.3309 71.005 38.5201 72.1715 37.9723 72.4814C36.33 73.4111 34.7498 74.2547 33.0635 75.1091C32.8127 74.9156 32.652 74.7584 32.3499 74.668C32.3064 74.6092 30.9453 73.7776 30.79 73.6786Z" fill="url(#paint3_linear_2289_892)"/>
<path d="M60.8112 72.7105C65.0157 72.3483 68.0278 70.8891 70.5889 67.6309C70.6078 67.6167 70.6268 67.6026 70.6456 67.5885C73.2459 69.2207 76.3232 70.787 78.8579 72.4533C78.9147 74.636 78.9147 76.817 78.8937 79C78.8905 79.3419 78.8843 79.6835 78.9071 80.025C79.3693 80.297 80.1418 80.7858 80.5959 81.0146C80.6391 81.0484 80.7389 81.1308 80.7818 81.1562C77.3176 85.2189 72.4674 88.232 67.3925 89.8214C67.3756 89.5523 67.3788 89.187 67.3734 88.9105C67.4142 88.069 67.4506 87.2731 67.4536 86.4311C66.6008 85.9121 65.1546 85.0455 64.2651 84.6272C63.1571 83.9574 61.9364 83.3206 60.8018 82.6609C60.8536 81.788 60.8218 80.6304 60.8206 79.7343L60.8091 74.4826C60.84 73.9825 60.8134 73.2293 60.8112 72.7105Z" fill="#EDFDF5"/>
<path d="M25.7666 70.7769C26.2649 70.2422 26.5832 70.1066 27.243 69.7654L27.2607 69.8559C26.9573 70.055 26.2473 70.3805 26.1184 70.6491C26.1292 70.6896 26.1401 70.7302 26.151 70.7706C26.7829 71.1926 28.0321 72.0196 28.6376 72.3804L28.4626 72.405C27.9305 73.4548 28.5084 76.0214 28.663 77.2347C28.8955 79.0586 29.9987 80.6783 30.3252 82.4568C30.3649 82.6732 31.7084 83.2419 31.8763 83.5929C31.6011 83.4748 30.1567 82.5761 29.7976 82.3552C28.5829 81.6081 27.1993 80.8973 26.0495 80.0668C25.8919 79.9484 25.8134 79.7576 25.8109 79.5621C25.7743 76.6478 25.7967 73.6914 25.7666 70.7769Z" fill="url(#paint4_linear_2289_892)"/>
<path d="M78.8738 70.7194C79.5347 71.1465 80.1846 71.5605 80.855 71.9723L80.5609 71.9299C80.3869 72.8434 80.3453 80.2639 80.5775 80.9101C80.6013 80.9763 80.5953 80.944 80.5957 81.0145C80.1416 80.7858 79.3691 80.297 78.9069 80.025C78.884 79.6835 78.8903 79.3419 78.8935 78.9999C78.9145 76.817 78.9145 74.636 78.8577 72.4533C78.8276 71.8753 78.8444 71.2967 78.8738 70.7194Z" fill="#285F5A"/>
<path d="M93.9453 70.7874C94.0064 71.6535 93.9719 73.0374 93.975 73.9483L93.9847 79.9349C93.2556 80.3646 91.9063 81.1824 91.182 81.5326L91.1429 81.4986C90.9838 81.4866 90.4258 81.8638 90.2191 81.9728C89.5739 82.011 87.7841 81.413 87.0785 81.2192C86.8488 81.1561 86.4065 81.2525 86.3266 81.1606C86.0819 80.8787 86.3238 79.6691 86.1473 79.2466C86.1422 79.2294 86.137 79.2122 86.1318 79.195C86.1729 78.9381 86.1487 77.9827 86.1455 77.6893L86.132 75.0586C86.5415 74.9761 87.2577 74.4559 87.6527 74.2311C88.4305 73.7886 93.4947 70.843 93.7728 70.8442C93.8507 70.8445 93.8784 70.8257 93.9453 70.7874Z" fill="#93D396"/>
<path d="M33.0632 75.1091C34.7495 74.2547 36.3296 73.411 37.972 72.4814C38.5198 72.1714 40.3305 71.005 40.7794 70.8235C40.9588 71.3614 40.9118 72.0028 40.8996 72.5696C40.7848 74.9286 40.9635 77.4017 40.7907 79.7601C40.7459 80.3729 39.755 80.6652 39.3244 80.983C38.974 81.0968 38.6538 81.2796 38.3265 81.4505C38.0393 81.6291 37.558 81.9073 37.2541 82.0549C37.3447 81.8981 37.4034 81.8991 37.52 81.763L37.4919 81.6893C37.2857 81.7303 36.1028 81.4057 35.8109 81.3266C35.0126 81.1103 33.8643 80.3229 33.118 80.1867C33.0049 80.3326 33.1389 80.5952 32.9957 80.8418C32.9713 80.5483 32.9807 80.1712 32.9838 79.8729C33.0011 78.2857 32.9197 76.7037 32.9007 75.1176C32.6405 74.9449 32.5717 74.888 32.3496 74.668C32.6517 74.7583 32.8124 74.9156 33.0632 75.1091Z" fill="url(#paint5_linear_2289_892)"/>
<path d="M80.8553 71.9724C81.0705 72.0778 81.408 72.2678 81.6085 72.3486C82.1993 72.7184 82.7853 73.0742 83.3834 73.4319C83.6541 73.7415 84.0869 73.9521 84.4514 74.1485C84.1539 74.5927 84.0313 74.9032 83.7774 75.3273C83.7691 76.1538 83.8304 76.8059 84.4108 77.4389C84.7912 77.8538 85.4247 78.1559 85.9761 77.9987L86.0693 78.0635C86.1238 78.4217 85.9887 78.9962 86.1316 79.195C86.1194 80.8274 86.1763 82.7518 86.122 84.3563C85.2997 83.6222 82.83 82.4776 81.7983 81.683C81.6279 81.5359 81.0605 81.1977 80.8566 81.0902L80.7818 81.1562C80.7389 81.1308 80.6392 81.0484 80.596 81.0145C80.5956 80.944 80.6016 80.9763 80.5778 80.9101C80.3456 80.264 80.3871 72.8434 80.5612 71.9299L80.8553 71.9724Z" fill="#62AC9D"/>
<path d="M28.6368 72.3804C29.1061 72.5697 30.2323 73.3983 30.7894 73.6786C30.9447 73.7776 32.3058 74.6092 32.3493 74.668C32.5714 74.8879 32.6402 74.9449 32.9004 75.1176C32.9194 76.7037 33.0007 78.2857 32.9835 79.8729C32.9804 80.1712 32.971 80.5483 32.9954 80.8418C32.9816 81.268 33.036 84.0997 32.9709 84.2607C32.6439 84.0722 32.1623 83.8127 31.8755 83.5929C31.7076 83.2419 30.3641 82.6732 30.3244 82.4567C29.9979 80.6783 28.8947 79.0585 28.6622 77.2346C28.5077 76.0214 27.9297 73.4547 28.4618 72.405L28.6368 72.3804Z" fill="#62AC9D"/>
<path d="M59.2438 72.6859C59.785 72.7221 60.2135 72.7259 60.7575 72.7208C60.7631 73.2783 60.7529 73.9362 60.8088 74.4826L60.8203 79.7343C60.8215 80.6304 60.8532 81.788 60.8014 82.6609L59.9569 82.1147L59.2754 82.4746C59.123 79.5143 59.2364 75.6881 59.2438 72.6859Z" fill="#95E0C1"/>
<path d="M16.8525 73.4238L17.3843 72.8118C17.422 72.8435 17.8185 73.3072 17.8846 73.3804C17.682 73.6463 17.6166 73.7592 17.4591 74.0559C17.2187 73.7439 17.1443 73.6774 16.8525 73.4238Z" fill="#A5EACA"/>
<path d="M83.3828 73.4319C84.2782 73.8868 85.2489 74.5481 86.1311 75.0586L86.1447 77.6893C86.1479 77.9826 86.172 78.9381 86.131 79.1949C85.9881 78.9962 86.1232 78.4216 86.0687 78.0635L85.9755 77.9987C85.4241 78.1558 84.7906 77.8537 84.4102 77.4389C83.8298 76.8058 83.7685 76.1538 83.7768 75.3273C84.0307 74.9032 84.1533 74.5926 84.4509 74.1485C84.0863 73.9521 83.6535 73.7415 83.3828 73.4319Z" fill="#6CB578"/>
<path d="M86.1317 79.1949C86.1368 79.2122 86.142 79.2294 86.1471 79.2466C86.3236 79.6691 86.0818 80.8787 86.3264 81.1605C86.4064 81.2525 86.8486 81.1561 87.0783 81.2191C87.7839 81.413 89.5737 82.011 90.2189 81.9728C90.4257 81.8638 90.9836 81.4866 91.1427 81.4986L91.1819 81.5326C89.6112 82.4976 87.9037 83.3354 86.3355 84.3194C86.2806 84.3538 86.1882 84.3701 86.1221 84.3562C86.1764 82.7518 86.1195 80.8274 86.1317 79.1949Z" fill="#87D2BE"/>
<path d="M32.9962 80.8418C33.1394 80.5952 33.0054 80.3326 33.1185 80.1867C33.8648 80.3229 35.0131 81.1103 35.8114 81.3266C36.1033 81.4057 37.2862 81.7303 37.4924 81.6893L37.5205 81.763C37.4039 81.899 37.3452 81.8981 37.2546 82.0549C36.7614 82.3671 33.3486 84.4685 33.0463 84.319C33.0181 84.3049 32.9966 84.2802 32.9717 84.2607C33.0368 84.0997 32.9825 81.268 32.9962 80.8418Z" fill="#87D2BE"/>
<path d="M38.3262 81.4505C38.6535 81.2796 38.9736 81.0968 39.324 80.983C43.7595 85.748 46.4005 87.4847 52.4718 89.7366C52.4814 88.6174 52.4433 87.5043 52.4513 86.3979C53.0374 86.0617 53.9618 85.4946 54.5434 85.2176C54.3212 85.5267 53.0407 86.1825 52.6429 86.4071C53.2716 87.0203 54.2498 87.5693 55.0131 88.0198C55.0843 88.0934 55.2309 88.21 55.2248 88.2885C55.1985 88.6252 54.7082 89.2658 54.6648 89.5633C54.3325 91.8436 54.5953 94.6773 55.6058 96.7388C55.7244 97.0294 55.9082 97.1708 56.0072 97.4612C55.7801 97.5525 54.7603 96.7019 54.2599 96.6417C54.0414 96.5781 52.7285 95.7736 52.4614 95.6124C52.4135 94.139 52.4735 92.4051 52.4664 90.8948C47.0324 89.187 41.8746 85.9492 38.3262 81.4505Z" fill="#285F5A"/>
<path d="M80.7813 81.1562L80.8561 81.0902C81.06 81.1977 81.6274 81.5359 81.7978 81.6829C81.3183 82.3083 80.3695 83.1927 79.7884 83.7511C76.3651 87.0408 72.053 89.6911 67.4386 90.9169C67.3762 90.6494 67.3929 90.1158 67.3921 89.8214C72.467 88.232 77.3171 85.2188 80.7813 81.1562Z" fill="#285F5A"/>
<path d="M97.7334 84.7592C98.2585 83.8269 98.8711 82.7186 99.448 81.8329C99.6209 82.0756 99.8935 82.6226 100.066 82.9189C100.42 83.528 100.773 84.0651 101.163 84.6518C100.62 85.2909 99.8225 86.7123 99.4671 87.485C99.0787 86.8509 98.2092 85.2345 97.7334 84.7592Z" fill="#A5EACA"/>
<path d="M54.5441 85.2176C54.7324 84.985 58.7182 82.7236 59.2759 82.4746L59.9573 82.1147L60.8019 82.6609C61.9365 83.3205 63.1573 83.9573 64.2653 84.6272C64.622 85.0235 65.871 85.5641 66.0076 85.7599C65.8539 85.853 66.0081 85.7756 65.8219 85.8218C64.0361 86.2648 62.615 87.4038 61.548 88.8765C61.0948 89.5022 60.6281 90.4065 59.8552 90.6316C59.6961 90.6614 59.2643 90.1995 58.8927 90.2066C58.5259 90.1696 55.6862 88.2841 55.0138 88.0198C54.2505 87.5693 53.2723 87.0203 52.6436 86.407C53.0414 86.1825 54.3219 85.5267 54.5441 85.2176Z" fill="#8EC880"/>
<path d="M64.2652 84.6272C65.1546 85.0454 66.6008 85.912 67.4536 86.4311C67.4507 87.2731 67.4142 88.069 67.3734 88.9105C67.3178 89.0306 67.3114 89.1191 67.2964 89.2501C67.1573 88.8775 67.4641 86.9665 67.2947 86.6012C67.017 86.6599 66.0722 87.2779 65.766 87.4513C64.967 87.9039 60.3704 90.6083 59.7434 90.7492C59.4711 90.5256 59.1964 90.3799 58.8926 90.2066C59.2642 90.1995 59.696 90.6614 59.855 90.6317C60.628 90.4065 61.0946 89.5022 61.5479 88.8765C62.6149 87.4038 64.0359 86.2648 65.8218 85.8218C66.008 85.7756 65.8537 85.853 66.0075 85.7599C65.8709 85.5641 64.6219 85.0235 64.2652 84.6272Z" fill="#BBDF9B"/>
<path d="M59.7434 90.7492C60.3705 90.6083 64.967 87.9038 65.766 87.4513C66.0722 87.2778 67.017 86.6599 67.2947 86.6012C67.4642 86.9665 67.1574 88.8774 67.2965 89.2501C67.3115 89.1191 67.3178 89.0306 67.3735 88.9105C67.3789 89.1869 67.3757 89.5522 67.3926 89.8214C67.3934 90.1158 67.3768 90.6494 67.4391 90.9169C67.4873 92.4699 67.4988 93.9668 67.4965 95.5217C66.7377 96.086 65.2226 96.8443 64.3259 97.412L63.8759 97.6371L63.8471 97.6154C63.5061 97.6222 61.486 98.9955 61.015 99.1985C60.9208 99.2392 60.0177 99.1191 59.9336 99.0855C59.7231 98.2792 60.0292 96.6706 59.7791 95.8246C59.7583 94.1348 59.7282 92.4383 59.7434 90.7492Z" fill="#93D396"/>
<path d="M55.0136 88.0198C55.686 88.2842 58.5257 90.1696 58.8925 90.2066C59.1964 90.3799 59.4711 90.5256 59.7433 90.7492C59.7281 92.4383 59.7582 94.1349 59.779 95.8246L59.7496 97.8111C59.5592 98.2269 59.8969 99.0106 59.5222 99.3879C59.0495 99.4678 58.2939 98.7342 57.783 98.5958C57.5943 98.4067 57.1018 98.2181 56.9484 98.0623C56.4987 97.6051 56.1432 97.1203 55.6063 96.7388C54.5958 94.6773 54.333 91.8436 54.6653 89.5633C54.7087 89.2658 55.199 88.6252 55.2254 88.2885C55.2315 88.21 55.0849 88.0934 55.0136 88.0198Z" fill="#62AC9D"/>
<path d="M31.0215 92.4392C31.6825 91.6827 32.2633 90.7742 32.785 89.9156C32.9841 90.1106 33.4879 90.941 33.676 91.2236C33.9964 91.705 34.1657 91.9227 34.5561 92.3687C33.8402 93.319 33.418 93.9869 32.8119 95.0064C32.7282 94.9187 32.3323 94.2917 32.2389 94.1514C31.8363 93.5467 31.4795 93.0069 31.0215 92.4392Z" fill="#A5EACA"/>
<path d="M78.2275 92.604C78.7406 92.1712 79.1963 91.7337 79.676 91.267C79.8591 91.3357 80.9291 92.4832 81.1681 92.7227C80.5502 93.2716 80.245 93.5385 79.7572 94.2091C79.4565 94.0709 78.4859 92.9058 78.2275 92.604Z" fill="#A5EACA"/>
<path d="M64.3261 97.412C64.675 97.4827 66.3548 97.3968 66.8196 97.3883L72.0716 97.3281C79.1284 97.2184 86.1897 97.2237 93.2462 97.2741C94.0396 97.2798 94.8996 97.0536 95.692 97.2354C95.7945 97.1758 96.9375 95.5727 97.1587 95.3267L97.2861 95.3206C96.7865 96.0288 96.2246 96.7095 95.7582 97.4333C95.5378 97.6485 95.4832 97.7679 95.3337 98.0327C95.1616 98.1985 94.9544 98.3569 94.7058 98.3623C88.2564 98.502 81.702 98.3749 75.2569 98.4468L72.0413 98.4976C71.0521 98.5052 70.273 98.4538 69.2939 98.5982C69.6006 98.8416 69.6448 98.8833 70.0026 99.0565C70.6482 99.3693 72.839 99.3401 73.1186 99.9864C72.9109 100.875 68.8368 100.55 67.9702 100.552L57.5133 100.493L51.83 100.501C50.9825 100.505 47.0951 100.678 46.6973 100.09C46.7808 99.7522 47.556 99.5216 47.8677 99.5343L48.0452 99.5032C48.5379 99.4118 49.3026 99.4231 49.6949 99.2367L49.5757 99.1848L49.5924 99.1153C49.7311 98.9934 49.9589 98.77 50.1188 98.7042L50.1392 98.8023C50.0973 98.8451 50.0556 98.8877 50.0139 98.9305C50.3184 98.8545 50.5468 98.76 50.8378 98.6481C50.67 98.5006 50.2589 98.7512 49.9288 98.6468L50.0736 98.6036C49.7295 98.437 47.8045 98.5293 47.3233 98.5616L32.6661 98.5446L28.1766 98.5547C27.3246 98.556 25.7716 98.5831 24.9529 98.4448C24.9072 98.1737 24.4682 97.7064 24.2676 97.4602C24.9051 97.407 26.2353 97.4923 26.9532 97.4983L32.3235 97.4979L52.3548 97.5061C53.0119 97.5121 53.9953 97.5367 54.683 97.4673C54.7578 97.3938 54.8212 97.3316 54.873 97.2806C55.0993 97.2456 54.985 97.2334 55.2184 97.3738L55.3684 97.3069C56.1544 97.6993 57.0097 98.3131 57.7639 98.6814C58.4617 99.1232 59.0881 99.4177 59.778 99.835L59.821 99.855C60.2623 99.8452 63.3092 97.9718 63.8761 97.6371L64.3261 97.412Z" fill="#CEF5EA"/>
<path d="M59.7794 95.8246C60.0295 96.6707 59.7234 98.2792 59.9339 99.0856C60.018 99.1191 60.9211 99.2392 61.0153 99.1985C61.4862 98.9956 63.5063 97.6222 63.8473 97.6154L63.8762 97.6371C63.3092 97.9718 60.2623 99.8452 59.821 99.855L59.778 99.835C59.8118 99.4693 59.7589 98.2383 59.75 97.8112L59.7794 95.8246Z" fill="#4BA3A0"/>
<path d="M54.2607 96.6417C54.7611 96.7018 55.7809 97.5525 56.008 97.4612C55.909 97.1708 55.7252 97.0294 55.6066 96.7388C56.1435 97.1203 56.499 97.6051 56.9487 98.0623C57.1021 98.2181 57.5946 98.4067 57.7833 98.5958L57.7638 98.6814C57.0096 98.313 56.1544 97.6993 55.3684 97.3069C54.9847 97.0882 54.627 96.8885 54.2607 96.6417Z" fill="#46928F"/>
<path d="M96.6952 97.4346C98.7786 97.3355 100.92 97.3869 103.005 97.4313C103.36 97.4388 106.261 97.2395 105.151 98.2236C103.895 98.3729 102.352 98.3322 101.07 98.3341C99.6687 98.3361 98.1007 98.3713 96.7149 98.2462L96.3986 98.1813L96.3438 98.091C96.3691 97.8293 96.5297 97.6803 96.6952 97.4346Z" fill="#EDFDF5" fill-opacity="0.988235"/>
<path d="M24.9527 98.4448C22.7006 98.4073 20.3787 98.5978 18.1073 98.4783C16.9965 98.4198 15.9979 98.56 14.8625 98.3525C14.6073 98.1375 14.7254 97.8716 14.8981 97.6459C15.3617 97.3535 22.9713 97.5103 24.1686 97.4801L24.2674 97.4601C24.468 97.7064 24.907 98.1737 24.9527 98.4448Z" fill="#EDFDF5"/>
<path d="M95.333 98.0328C95.4825 97.7679 95.5371 97.6485 95.7575 97.4333L96.695 97.4346C96.5295 97.6804 96.3688 97.8293 96.3435 98.091L96.3984 98.1814L96.7147 98.2463C96.1398 98.2579 95.7573 98.3691 95.333 98.0328Z" fill="#EDFDF5" fill-opacity="0.854902"/>
<path d="M57.7831 98.5958C58.2941 98.7342 59.0497 99.4678 59.5223 99.3879C59.8971 99.0106 59.5593 98.2269 59.7498 97.8112C59.7587 98.2383 59.8115 99.4694 59.7778 99.835C59.0879 99.4177 58.4615 99.1232 57.7637 98.6814L57.7831 98.5958Z" fill="#46928F"/>
<path d="M47.3232 98.5616C47.8044 98.5293 49.7295 98.437 50.0735 98.6036L49.9288 98.6468C50.2589 98.7512 50.67 98.5006 50.8378 98.6481C50.5467 98.76 50.3183 98.8545 50.0139 98.9305C50.0556 98.8877 50.0973 98.8451 50.1391 98.8023L50.1188 98.7042C49.9589 98.77 49.7311 98.9935 49.5923 99.1153L49.5757 99.1848L49.6949 99.2367C49.3025 99.4231 48.5379 99.4118 48.0451 99.5032L47.8677 99.5343C47.3701 98.9618 47.8572 98.9313 47.7191 98.6196L47.3232 98.5616Z" fill="#FEFEFE" fill-opacity="0.827451"/>
<defs>
<linearGradient id="paint0_linear_2289_892" x1="27.342" y1="37.4852" x2="39.0115" y2="43.4401" gradientUnits="userSpaceOnUse">
<stop stop-color="#58A087"/>
<stop offset="1" stop-color="#D9FD9A"/>
</linearGradient>
<linearGradient id="paint1_linear_2289_892" x1="48.3314" y1="65.7173" x2="87.1008" y2="53.2209" gradientUnits="userSpaceOnUse">
<stop stop-color="#B9DEC6"/>
<stop offset="1" stop-color="#FFFBFA"/>
</linearGradient>
<linearGradient id="paint2_linear_2289_892" x1="40.6154" y1="40.7868" x2="33.3169" y2="53.4175" gradientUnits="userSpaceOnUse">
<stop stop-color="#C6E973"/>
<stop offset="1" stop-color="#68C2BF"/>
</linearGradient>
<linearGradient id="paint3_linear_2289_892" x1="34.0752" y1="70.7581" x2="38.1273" y2="73.8718" gradientUnits="userSpaceOnUse">
<stop stop-color="#A0DC84"/>
<stop offset="1" stop-color="#D0E6A5"/>
</linearGradient>
<linearGradient id="paint4_linear_2289_892" x1="25.7911" y1="76.7093" x2="30.1391" y2="76.6331" gradientUnits="userSpaceOnUse">
<stop stop-color="#154852"/>
<stop offset="1" stop-color="#519786"/>
</linearGradient>
<linearGradient id="paint5_linear_2289_892" x1="41.0383" y1="71.2062" x2="34.4741" y2="81.0674" gradientUnits="userSpaceOnUse">
<stop stop-color="#BEEA72"/>
<stop offset="1" stop-color="#81CAA9"/>
</linearGradient>
</defs>
</svg>
